<svg width="150" height="96" viewBox="0 0 150 96" fill="none" xmlns="http://www.w3.org/2000/svg">
<g clip-path="url(#clip0_20_1053)">
<path d="M108.172 90.0645L107.398 80.4366L105.184 90.6178C105.184 90.6178 105.214 93.1864 105.287 96H108.123C108.218 92.7837 108.172 90.0645 108.172 90.0645Z" fill="#F0F0F0"/>
<path d="M68.3427 93.4885C68.1247 92.5882 67.9708 91.6736 67.8822 90.7515L67.5724 87.421C67.4421 86.5088 67.3082 85.7051 67.1737 84.9957C66.187 79.9378 65.1684 79.7549 65.1684 79.7549C65.1246 79.7884 65.0821 79.8255 65.0383 79.8638C64.9186 79.9727 64.8072 80.0904 64.7048 80.2157C63.0826 82.2775 61.9821 87.6253 61.4039 91.1728C61.0847 93.1325 60.9256 94.5425 60.9256 94.5425C60.9256 94.5425 61.0702 95.1432 61.2673 96H68.6699C68.6419 95.1543 68.5323 94.3132 68.3427 93.4885Z" fill="#F0F0F0"/>
<path d="M126.552 0H22.5345C10.1405 0 0 10.1405 0 22.5345V73.4655C0 85.8595 10.1405 96 22.5345 96H55.5022L55.0768 93.9971C55.0768 93.9971 53.9826 86.9359 55.0768 81.4305C55.4302 79.7032 55.6726 77.955 55.8027 76.1968C55.9396 74.2118 56.264 72.2442 56.7718 70.3204C56.8007 70.2093 56.8332 70.0992 56.8634 69.9885C56.5965 69.9159 56.4739 69.8579 56.5359 69.8213C56.7069 69.7203 56.8009 69.411 56.8477 69.0186C57.1392 66.4208 57.695 63.8594 58.5066 61.3744C57.4009 62.0685 56.6668 62.1423 56.1862 61.8733C54.4974 61.4121 55.1985 57.6137 55.1985 57.6137C55.1985 57.6137 56.248 49.3981 56.5967 46.4234C56.7971 44.7135 59.3653 43.7446 61.6388 43.2185C61.8783 42.7046 62.0509 42.187 61.9413 41.6437C61.9339 41.6072 61.9233 41.5718 61.9136 41.5361C61.6246 40.894 61.037 40.3658 60.8164 39.7009C60.7187 39.5219 60.6499 39.3287 60.6125 39.1283C60.4172 37.9883 61.4831 37.0036 61.7904 35.9073C61.4769 35.6045 61.2428 35.2291 61.1089 34.8144C60.6405 33.8538 60.8689 32.7009 62.3728 31.8107C62.673 31.633 62.9911 31.4762 63.3143 31.3257C63.4326 31.2492 63.5614 31.1901 63.6966 31.1504C64.7727 30.6636 65.8543 30.1927 66.4982 29.245C66.6641 29.001 66.8095 28.7178 67.0779 28.5895C67.2043 28.5355 67.3396 28.5052 67.477 28.5002C69.5504 28.341 71.4279 30.1191 73.4914 29.8642C74.1165 29.787 74.7547 29.5242 75.3547 29.7134C75.749 29.8377 76.0567 30.1406 76.3217 30.4537C77.0429 31.3146 77.5652 32.3241 77.8512 33.4102C78.1372 34.4962 78.1799 35.6321 77.9763 36.7365C77.7147 38.0959 77.0784 39.4971 77.5369 40.805C77.8738 41.766 78.7757 42.546 78.7821 43.5626C78.7874 44.3991 78.1936 45.0666 77.6199 45.7175C77.6945 45.7938 77.7672 45.8721 77.838 45.9525C79.24 47.55 78.9751 48.9133 78.7774 49.4592L78.7774 49.4594L78.0564 56.4169L77.4485 61.0845C77.4485 61.0845 77.2981 63 75.8822 63.4201C75.4697 63.6109 74.9294 63.6612 74.2192 63.445C73.7583 63.3048 73.3699 63.1646 73.0403 63.0283C73.3518 64.0233 73.888 66.0546 73.8009 68.026C73.6793 70.7787 74.0441 71.0181 74.0441 71.0181C74.0212 71.0464 73.9953 71.072 73.9668 71.0946C75.411 74.2855 75.4243 77.5593 73.9225 80.8321C72.2203 84.5422 74.0441 93.1593 74.0441 93.1593C74.0441 93.1593 74.1739 94.5035 74.2323 96H100.344C99.929 92.0388 99.43 88.0731 99.2084 87.6299C98.843 86.8991 99.307 74.8598 99.4801 70.6779C99.4032 70.6585 99.328 70.6387 99.2571 70.6183C99.1337 70.5829 99.0227 70.546 98.9202 70.5083C98.915 70.7211 98.9375 70.9337 98.9871 71.1407C99.1408 71.4993 98.7722 71.7629 98.1458 71.9427C98.5102 73.7206 98.9601 77.029 97.4378 77.67C95.8718 78.3293 95.8404 74.324 95.9264 72.2362C95.7289 72.2435 95.5308 72.2473 95.3351 72.2473C93.4538 72.2473 95.8884 50.4462 95.7778 49.0075C95.6671 47.5689 96.6631 41.7036 96.6631 41.7036C96.6631 41.7036 96.9951 40.4863 97.9911 40.2649C98.9871 40.0436 103.746 37.277 103.746 37.277C104.013 36.901 104.352 36.5807 104.742 36.3341V36.1703C104.866 36.0547 104.998 35.9479 105.137 35.8507C105.079 34.8837 104.948 33.6362 104.852 32.7934C104.318 32.2484 103.956 31.557 103.814 30.8067C103.61 30.6475 103.417 30.4755 103.235 30.2918C102.778 29.7679 102.516 29.1023 102.492 28.4075C102.472 27.7174 102.572 27.029 102.788 26.3731C102.844 26.1551 102.93 25.9461 103.044 25.7518C103.2 25.5266 103.397 25.332 103.623 25.1774C103.691 25.1276 103.76 25.0809 103.829 25.0339C103.976 24.7489 104.191 24.5047 104.455 24.3232C105.02 23.9524 105.747 23.9827 106.422 23.9995C106.432 23.9998 106.443 23.9997 106.453 23.9998C106.578 23.9796 106.704 23.9629 106.83 23.9497C106.904 23.9351 106.972 23.8993 107.026 23.8466C107.079 23.794 107.117 23.7268 107.133 23.6533C107.224 23.7412 107.316 23.829 107.407 23.9168C107.544 23.9149 107.681 23.9172 107.818 23.9239C107.879 23.785 107.95 23.6511 108.032 23.5232C108.082 23.6661 108.132 23.8091 108.182 23.952C108.32 23.9667 108.457 23.9852 108.593 24.0089C108.701 23.9234 108.808 23.8379 108.916 23.7525C108.94 23.7335 109.025 24.0136 109.069 24.1097C109.143 24.1287 109.216 24.1489 109.29 24.1715C109.404 24.1663 109.531 24.1449 109.602 24.1461C109.991 24.1329 110.376 24.229 110.714 24.4234C111.008 24.6378 111.25 24.9169 111.421 25.2393C111.855 25.9271 112.125 26.7061 112.21 27.5155C112.421 27.8082 112.57 28.1411 112.647 28.4937C112.83 29.6046 111.774 30.533 111.565 31.6392C111.453 32.2294 111.581 32.883 111.28 33.403C111.149 33.6124 110.976 33.7931 110.773 33.9345C110.653 34.024 110.528 34.1064 110.399 34.1812C110.406 34.8504 110.482 35.5171 110.628 36.1703L110.77 36.7163C110.991 36.8759 111.23 37.0604 111.492 37.277C111.492 37.277 114.591 38.605 115.698 39.269C116.67 39.8527 117.728 39.9239 118.045 40.6844L118.132 40.7076C118.132 40.7076 119.239 52.9915 119.35 55.0942C119.46 57.1968 120.788 70.1447 120.567 70.698C120.485 70.9028 119.963 71.1378 119.333 71.3247C119.701 73.0054 120.294 76.6606 118.686 77.338C117.055 78.0247 117.088 73.6517 117.185 71.6549C116.968 71.6352 116.825 71.5783 116.804 71.4727C116.786 71.3828 116.729 70.9764 116.645 70.3569C116.507 70.3784 116.364 70.4005 116.212 70.4236C116.182 70.4282 116.149 70.433 116.118 70.4376C117.521 74.8511 114.414 86.556 113.816 88.8472C113.504 90.0444 113.167 93.0045 112.863 96H126.552C138.946 96 149.086 85.8595 149.086 73.4655V22.5345C149.086 10.1405 138.946 0 126.552 0Z" fill="#F0F0F0"/>
<path d="M33.3775 40.6013C41.7166 40.6013 48.4768 34.4495 48.4768 26.8609C48.4768 19.2723 41.7166 13.1205 33.3775 13.1205C25.0383 13.1205 18.2781 19.2723 18.2781 26.8609C18.2781 34.4495 25.0383 40.6013 33.3775 40.6013Z" fill="#3F3D56"/>
<path d="M58.2516 71.7616C58.2516 71.7616 63.3377 68.2649 63.3377 66.6755C63.3377 65.0861 66.8344 54.755 68.7417 59.3642C70.649 63.9735 66.0397 70.4901 66.0397 70.4901C66.0397 70.4901 60.9536 79.7086 57.9338 81.298C54.9139 82.8874 52.3708 81.9338 52.3708 81.9338V77.6424L55.2766 73.3419C55.6054 72.8553 56.0486 72.4567 56.5673 72.1812C57.0859 71.9057 57.6643 71.7616 58.2516 71.7616Z" fill="#FFB9B9"/>
<path d="M43.795 47.4177C43.795 47.4177 51.4172 49.8278 52.2119 50.9404C53.0066 52.053 53.3245 50.1457 55.5497 57.457C57.7748 64.7682 58.3311 71.8411 58.3311 71.8411C58.3311 71.8411 52.8477 73.6689 53.4834 80.8212C54.1192 87.9735 52.5298 95.7616 52.5298 95.7616H50.5455L46.1722 82.2517L51.4172 61.7484C51.4172 61.7484 43.9609 49.14 43.795 47.4177Z" fill="#575A89"/>
<path d="M41.245 40.7682C46.5119 40.7682 50.7815 36.4986 50.7815 31.2318C50.7815 25.965 46.5119 21.6954 41.245 21.6954C35.9782 21.6954 31.7086 25.965 31.7086 31.2318C31.7086 36.4986 35.9782 40.7682 41.245 40.7682Z" fill="#FFB9B9"/>
<path d="M44.9007 38.3841C44.9007 38.3841 42.1987 47.2848 44.5828 48.5563C46.9669 49.8278 49.6689 55.5497 49.6689 55.5497L45.5364 60.1589H36L31.7086 55.3907L29.9603 47.2848L32.3444 45.3775C32.3444 45.3775 34.8874 39.0199 34.8874 35.6821C34.8874 32.3444 44.9007 38.3841 44.9007 38.3841Z" fill="#FFB9B9"/>
<path d="M45.6954 48.2384C45.6954 48.2384 43.7881 47.7616 44.9007 49.6689C46.0132 51.5762 47.1258 55.0728 43.1523 55.2318C39.1788 55.3907 35.2053 53.3245 33.9338 49.0331C32.6622 44.7417 32.1854 45.0596 31.7086 45.2185C31.2318 45.3775 26.1457 50.6225 26.1457 50.6225L27.894 60.4768L28.5298 95.7616H51.7351C51.7351 95.7616 52.6887 85.5894 51.0993 83.2053C49.5099 80.8212 52.5298 74.7814 52.5298 74.7814C52.5298 74.7814 55.2318 70.649 53.1656 62.702C51.0993 54.755 46.4901 48.2384 45.6954 48.2384Z" fill="#007FFE"/>
<path d="M32.8212 45.2185C32.8212 45.2185 30.4371 44.106 28.3708 46.0133C26.3046 47.9205 21.6954 49.5099 21.6954 50.4636C21.6954 51.4172 25.6689 78.596 22.9669 83.3642C20.2649 88.1325 17.404 95.7616 17.404 95.7616H30.6617C30.6617 95.7616 32.8212 87.8146 35.0463 83.5232C37.2715 79.2318 37.1126 67.1523 36.4768 63.4967C35.841 59.8411 32.8212 45.2185 32.8212 45.2185Z" fill="#575A89"/>
<path d="M18.8344 87.3377L19.6085 95.7616H28.1987L27.4172 85.2715L18.8344 87.3377Z" fill="#FFB9B9"/>
<path d="M57.9338 82.8874L60 95.7616H105.934L109.907 69.8543L57.9338 82.8874Z" fill="#3F3D56"/>
<path d="M111.656 68.106L112.132 70.4901L52.6888 84.7947V82.7285L111.656 68.106Z" fill="#3F3D56"/>
<path d="M86.543 72.3974L86.2252 75.0993L89.7218 74.6225L88.2914 71.9205L86.543 72.3974Z" fill="#3F3D56"/>
<path d="M67.3112 45.0596C67.3112 45.0596 74.3046 44.5828 76.2119 49.9868C78.1192 55.3907 82.5695 65.0861 84.3179 66.5166C86.0662 67.947 87.9735 71.7616 87.6556 73.0331" stroke="#3F3D56" stroke-width="5" stroke-miterlimit="10"/>
<path d="M68.3444 44.9801C68.3444 45.7263 67.5509 46.3311 66.2781 46.3311C65.0053 46.3311 64.3708 45.7263 64.3708 44.9801C64.3708 44.234 65.0053 43.6291 66.2781 43.6291C67.5509 43.6291 68.3444 44.234 68.3444 44.9801Z" fill="#007FFE"/>
<path d="M56.5828 69.7748C56.5828 69.7748 57.7748 64.7682 55.5497 57.457C53.3245 50.1457 53.0066 52.053 52.2119 50.9404C51.4172 49.8278 43.795 47.4177 43.795 47.4177C43.8495 47.9836 44.6912 49.725 45.7969 51.8082C45.5978 51.0573 45.2963 50.3374 44.9007 49.6689C43.7881 47.7616 45.6954 48.2384 45.6954 48.2384C46.4901 48.2384 51.0993 54.755 53.1656 62.702C55.2318 70.649 52.5298 74.7815 52.5298 74.7815L56.5828 69.7748Z" fill="#575A89"/>
<path d="M43.8676 47.3642C43.8676 47.3642 44.8085 50.9337 45.6096 51.4536C46.4106 51.9735 51.1613 56.9092 51.1613 56.9092L50.5431 52.9272L48 49.1126L47.3236 48.6218L43.8676 47.3642Z" fill="#575A89"/>
<path opacity="0.1" d="M22.7285 58.3311L22.9501 50.1457C22.9501 50.1457 17.7219 52.3709 17.245 61.9073C16.7682 71.4437 18.0397 89.404 19.7881 89.5629C21.5364 89.7218 29.8013 87.8146 29.8013 87.8146C29.8013 87.8146 31.0728 64.7682 30.596 61.7483C30.1192 58.7285 22.7285 58.3311 22.7285 58.3311Z" fill="black"/>
<path d="M23.1258 50.1457H21.8375C21.8375 50.1457 16.6093 52.3709 16.1325 61.9073C15.6556 71.4437 16.9272 89.404 18.6755 89.5629C20.4238 89.7218 28.6887 87.8146 28.6887 87.8146C28.6887 87.8146 29.9603 64.7682 29.4834 61.7483C29.0066 58.7285 23.1258 50.1457 23.1258 50.1457Z" fill="#575A89"/>
<path d="M29.8808 39.7351C35.3232 39.7351 39.7351 34.7895 39.7351 28.6887C39.7351 22.588 35.3232 17.6424 29.8808 17.6424C24.4384 17.6424 20.0265 22.588 20.0265 28.6887C20.0265 34.7895 24.4384 39.7351 29.8808 39.7351Z" fill="#3F3D56"/>
<path d="M36.9536 37.6689C38.0509 37.6689 38.9404 36.3524 38.9404 34.7285C38.9404 33.1045 38.0509 31.7881 36.9536 31.7881C35.8564 31.7881 34.9669 33.1045 34.9669 34.7285C34.9669 36.3524 35.8564 37.6689 36.9536 37.6689Z" fill="#FFB9B9"/>
<path d="M20.0265 25.7483C24.5033 25.7483 28.1325 22.1192 28.1325 17.6424C28.1325 13.1656 24.5033 9.53642 20.0265 9.53642C15.5497 9.53642 11.9205 13.1656 11.9205 17.6424C11.9205 22.1192 15.5497 25.7483 20.0265 25.7483Z" fill="#3F3D56"/>
<path d="M21.0742 24.1362C19.8966 24.7354 18.5904 25.0376 17.2693 25.0165C15.9482 24.9955 14.6523 24.6518 13.4944 24.0154C12.3365 23.379 11.3518 22.4691 10.6259 21.3651C9.90003 20.2611 9.45505 18.9964 9.32971 17.6811C9.15661 18.8165 9.22678 19.9757 9.53557 21.0819C9.84436 22.1881 10.3847 23.216 11.1208 24.0976C11.857 24.9792 12.772 25.6942 13.8054 26.1954C14.8388 26.6966 15.9669 26.9724 17.1149 27.0046C18.2629 27.0368 19.4047 26.8247 20.4646 26.3822C21.5244 25.9398 22.4781 25.2772 23.2625 24.4383C24.0469 23.5994 24.644 22.6033 25.0144 21.5162C25.3847 20.429 25.5198 19.2756 25.4106 18.1323C25.2177 19.4059 24.7237 20.6151 23.9694 21.6594C23.2152 22.7036 22.2226 23.5528 21.0742 24.1362Z" fill="#3F3D56"/>
<path d="M15.5795 18.9822C14.7655 17.9414 14.2183 16.7175 13.9855 15.4169C13.7527 14.1163 13.8414 12.7785 14.2438 11.52C14.6463 10.2616 15.3503 9.12056 16.2945 8.19636C17.2387 7.27217 18.3946 6.59281 19.6614 6.21745C18.5139 6.2654 17.3897 6.55666 16.3633 7.07195C15.3369 7.58723 14.4317 8.31477 13.7077 9.20634C12.9838 10.0979 12.4576 11.1332 12.164 12.2435C11.8704 13.3538 11.8161 14.5139 12.0047 15.6468C12.1934 16.7797 12.6206 17.8595 13.2582 18.8148C13.8957 19.7701 14.729 20.5789 15.7028 21.1878C16.6767 21.7967 17.7687 22.1916 18.9067 22.3465C20.0447 22.5014 21.2027 22.4127 22.3038 22.0862C21.0168 22.1412 19.7353 21.8883 18.5657 21.3485C17.3962 20.8086 16.3724 19.9973 15.5795 18.9822Z" fill="#3F3D56"/>
<path d="M41.8013 27.9735C44.9614 27.9735 47.5232 26.1233 47.5232 23.8411C47.5232 21.5588 44.9614 19.7086 41.8013 19.7086C38.6412 19.7086 36.0795 21.5588 36.0795 23.8411C36.0795 26.1233 38.6412 27.9735 41.8013 27.9735Z" fill="#3F3D56"/>
</g>
<defs>
<clipPath id="clip0_20_1053">
<rect width="149.086" height="96" fill="white"/>
</clipPath>
</defs>
</svg>
