<svg width="103" height="96" viewBox="0 0 103 96" fill="none" xmlns="http://www.w3.org/2000/svg">
<g clip-path="url(#clip0_19_72)">
<path d="M34.8604 43.169C30.5914 43.169 26.4183 41.9031 22.8687 39.5314C19.3192 37.1597 16.5526 33.7886 14.919 29.8446C13.2853 25.9005 12.8578 21.5606 13.6907 17.3736C14.5235 13.1866 16.5792 9.34061 19.5979 6.32196C22.6165 3.30331 26.4625 1.24759 30.6495 0.414742C34.8365 -0.418101 39.1764 0.00934524 43.1205 1.64303C47.0645 3.27671 50.4356 6.04325 52.8073 9.59281C55.1791 13.1424 56.445 17.3155 56.445 21.5845C56.4385 27.3071 54.1623 32.7934 50.1158 36.8399C46.0694 40.8864 40.583 43.1626 34.8604 43.169ZM34.8604 0.339917C30.6587 0.339917 26.5512 1.58589 23.0576 3.92028C19.5639 6.25467 16.841 9.57262 15.233 13.4546C13.625 17.3365 13.2043 21.6081 14.0241 25.7291C14.8438 29.8502 16.8671 33.6356 19.8382 36.6067C22.8094 39.5778 26.5948 41.6012 30.7158 42.4209C34.8369 43.2406 39.1085 42.8199 42.9904 41.212C46.8724 39.604 50.1903 36.881 52.5247 33.3874C54.8591 29.8937 56.105 25.7863 56.105 21.5845C56.105 15.9501 53.8668 10.5465 49.8827 6.56232C45.8985 2.57818 40.4949 0.339917 34.8604 0.339917Z" fill="#F0F0F0"/>
<path d="M21.3254 22.3583C20.7256 20.1714 25.5633 18.2962 26.8337 20.0573C27.0104 19.8069 27.6632 19.6548 27.9628 19.7316C28.256 19.829 28.5269 19.9835 28.76 20.1863C29.0979 20.4459 29.4481 20.7147 29.6555 21.088C29.8644 21.4597 29.8967 21.9666 29.6156 22.2892C29.3929 22.5457 28.7354 22.7116 28.4005 22.7792C28.1671 22.8268 27.9704 22.8652 27.8015 22.8929C27.648 22.6717 27.5773 22.4036 27.6018 22.1356C27.488 22.2123 27.3927 22.3132 27.3226 22.4311C27.2525 22.5491 27.2093 22.681 27.1963 22.8176C27.1916 22.8744 29.0841 29.8375 29.0841 29.8375C28.8567 29.9669 28.6175 30.0744 28.3698 30.1585C27.8797 29.4095 27.5044 28.5915 27.2562 27.7315C27.1991 28.3065 27.2063 28.8862 27.2777 29.4596C27.3156 29.7812 27.37 30.1006 27.4405 30.4166C25.1917 30.902 21.8092 30.7422 20.3377 28.6777L20.3369 28.6521C20.3358 28.5706 20.3063 28.492 20.2536 28.4299C20.2009 28.3677 20.1283 28.3258 20.0481 28.3113C19.9679 28.2968 19.8851 28.3107 19.814 28.3505C19.7429 28.3903 19.6879 28.4536 19.6583 28.5296C19.6226 28.6207 19.5897 28.6995 19.5604 28.7622C19.1319 27.2292 19.6864 25.455 21.3254 22.3583Z" fill="#2F2E41"/>
<path d="M31.9306 92.3063L33.6062 92.2922L34.3479 85.6786L31.8751 85.6995L31.9306 92.3063Z" fill="#A0616A"/>
<path d="M36.9694 94.3574L34.2933 92.5423L34.2832 91.3432L33.7077 91.3818L31.9239 91.5047L31.4866 91.5338L31.1692 95.7716L32.4262 95.7602L32.6404 94.572L33.2236 95.7542L36.5549 95.7264C36.7146 95.725 36.8697 95.6726 36.9975 95.5769C37.1253 95.4812 37.2192 95.3471 37.2655 95.1943C37.3118 95.0414 37.308 94.8778 37.2547 94.7272C37.2015 94.5767 37.1015 94.4471 36.9694 94.3574H36.9694Z" fill="#2F2E41"/>
<path d="M15.2232 91.653L16.8798 91.9048L18.6609 85.4925L16.2159 85.121L15.2232 91.653Z" fill="#A0616A"/>
<path d="M19.8729 94.4771L17.5185 92.2606L17.6987 91.0751L17.1244 91.0219L15.3437 90.8605L14.9073 90.8198L13.9218 94.9537L15.1647 95.1418L15.5646 94.0026L15.953 95.2623L19.2466 95.7631C19.4045 95.7871 19.5659 95.76 19.7073 95.6857C19.8487 95.6115 19.9627 95.494 20.0326 95.3504C20.1025 95.2068 20.1247 95.0447 20.096 94.8876C20.0673 94.7305 19.9891 94.5867 19.8729 94.4771H19.8729Z" fill="#2F2E41"/>
<path d="M31.16 46.1014L35.9108 54.6102C35.9108 54.6102 35.7125 72.1097 36.3439 72.7588C36.9753 73.4079 37.5469 73.99 36.9753 73.9848C36.4036 73.9795 35.7117 75.3705 35.7117 75.3705L34.5294 88.5191H31.5478C31.5478 88.5191 29.4499 80.7651 29.897 76.3434L26.365 60.1844C26.365 60.1844 23.8274 75.4658 23.3701 75.9231C22.9128 76.3804 22.6369 76.3772 23.1179 76.8361C23.5988 77.2951 23.1179 78.333 23.1179 78.333L18.1045 88.7379L15.3852 88.395C15.3852 88.395 15.8567 79.9007 17.4983 76.2541V59.0214C17.3747 60.4989 23.1584 45.5446 19.6216 46.667C20.7405 46.3119 31.16 46.1014 31.16 46.1014Z" fill="#2F2E41"/>
<path d="M27.1221 29.8769L22.2926 28.8525L21.3337 30.7827L18.1045 32.6522C18.1045 32.6522 20.1861 41.163 20.1742 42.36C20.144 45.3989 15.2815 52.2114 18.9543 51.6873C22.6272 51.1633 23.3732 48.968 24.5523 49.3151C29.4167 50.7472 35.198 50.5954 33.2307 48.6281C31.2634 46.6609 31.703 33.5654 31.703 33.5654L27.8927 31.7647L27.1221 29.8769Z" fill="#007FFE"/>
<path d="M18.0132 60.7845C18.2073 60.5531 18.3034 60.2551 18.2811 59.9539C18.2588 59.6528 18.1198 59.3722 17.8938 59.1719C17.8472 59.1319 17.7974 59.0959 17.7449 59.0641L18.5524 55.1012L16.6857 53.9839L16.1665 59.5323C16.0516 59.7603 16.0154 60.0199 16.0636 60.2706C16.1118 60.5214 16.2417 60.7491 16.4329 60.9183C16.6545 61.1106 16.9435 61.207 17.2362 61.1862C17.5289 61.1655 17.8013 61.0293 17.9936 60.8077C18.0003 60.8 18.0068 60.7923 18.0132 60.7845Z" fill="#A0616A"/>
<path d="M16.9821 42.2414L17.1374 35.0199C17.1472 34.566 17.2476 34.1186 17.433 33.7041C17.6183 33.2895 17.8847 32.9163 18.2165 32.6063C18.5483 32.2963 18.9387 32.0559 19.3649 31.8991C19.791 31.7424 20.2442 31.6725 20.6978 31.6936C22.1734 31.7625 21.7802 32.3522 22.1722 33.7765C22.8091 36.0918 23.0541 37.4301 22.9004 37.7542C22.8483 37.8639 22.7935 37.9691 22.7408 38.0702C22.4691 38.5912 22.2728 38.9677 22.7716 39.3283C22.9689 39.4588 23.1838 39.5605 23.4098 39.6304C23.635 39.7104 23.7977 39.7682 23.8091 39.8955C23.8201 40.0187 23.681 40.1465 23.2959 40.3669C22.2618 40.9587 21.3651 44.4959 21.3563 44.5309L18.3556 57.1185L15.9651 56.9998L16.9821 42.2414Z" fill="#007FFE"/>
<path d="M47.0613 52.1079C46.7623 52.0654 46.4918 51.9078 46.3072 51.6688C46.1226 51.4299 46.0385 51.1283 46.0729 50.8282C46.0808 50.7674 46.0938 50.7073 46.1117 50.6485L42.8634 48.239L43.5061 46.1606L47.599 49.9424C47.8368 50.0353 48.0371 50.2044 48.1688 50.4232C48.3004 50.6419 48.3559 50.8981 48.3266 51.1518C48.3086 51.2959 48.2623 51.4351 48.1905 51.5614C48.1186 51.6877 48.0226 51.7986 47.9079 51.8878C47.7932 51.9769 47.6621 52.0427 47.522 52.0811C47.3819 52.1196 47.2356 52.1302 47.0914 52.1121C47.0813 52.1108 47.0713 52.1095 47.0613 52.1079Z" fill="#A0616A"/>
<path d="M46.057 47.9235L44.3575 49.6087L33.7155 42.2466C33.6856 42.2265 30.6553 40.1934 29.4905 40.4438C29.0567 40.5371 28.8678 40.535 28.7937 40.4359C28.7171 40.3336 28.7996 40.1818 28.9137 39.9719C29.0352 39.7689 29.1271 39.5497 29.1868 39.3208C29.317 38.7192 28.9195 38.5702 28.3693 38.364C28.2625 38.324 28.1514 38.2824 28.0394 38.2355C27.7085 38.097 26.9967 36.9374 25.924 34.7891C25.2641 33.4674 24.5777 33.2913 25.6296 32.2542C25.9531 31.9355 26.337 31.6848 26.7588 31.5167C27.1806 31.3487 27.6318 31.2668 28.0858 31.2758C28.5397 31.2848 28.9873 31.3846 29.4021 31.5692C29.817 31.7539 30.1906 32.0196 30.5011 32.3509L35.441 37.6208L46.057 47.9235Z" fill="#007FFE"/>
<path d="M25.0845 28.7801C27.2606 28.7801 29.0247 27.0161 29.0247 24.84C29.0247 22.6639 27.2606 20.8999 25.0845 20.8999C22.9085 20.8999 21.1444 22.6639 21.1444 24.84C21.1444 27.0161 22.9085 28.7801 25.0845 28.7801Z" fill="#A0616A"/>
<path d="M19.1749 22.6655C18.575 20.4787 23.4128 18.6034 24.6832 20.3645C24.8599 20.1141 25.5127 19.962 25.8123 20.0388C26.1054 20.1362 26.3764 20.2907 26.6095 20.4935C26.9474 20.7531 27.2976 21.0219 27.505 21.3952C27.7139 21.7669 27.7462 22.2738 27.4651 22.5964C27.2423 22.8529 26.5849 23.0188 26.25 23.0864C26.0166 23.134 25.8199 23.1724 25.651 23.2001C25.4975 22.979 25.4268 22.7108 25.4513 22.4428C25.3375 22.5195 25.2422 22.6204 25.1721 22.7384C25.102 22.8563 25.0588 22.9883 25.0458 23.1248C25.0411 23.1816 26.9336 30.1447 26.9336 30.1447C26.7062 30.2741 26.467 30.3816 26.2193 30.4657C25.7292 29.7167 25.3539 28.8987 25.1057 28.0387C25.0486 28.6138 25.0558 29.1934 25.1272 29.7668C25.1651 30.0884 25.2194 30.4078 25.29 30.7238C23.0412 31.2092 19.6587 31.0494 18.1872 28.985L18.1864 28.9593C18.1853 28.8778 18.1558 28.7993 18.1031 28.7371C18.0504 28.6749 17.9778 28.633 17.8976 28.6186C17.8174 28.6041 17.7346 28.6179 17.6635 28.6577C17.5924 28.6976 17.5374 28.7609 17.5078 28.8368C17.4721 28.9279 17.4392 29.0067 17.4099 29.0694C16.9813 27.5364 17.5359 25.7622 19.1749 22.6655Z" fill="#2F2E41"/>
<path d="M9.22167 92.9939C9.14267 92.9976 9.06447 92.9768 8.99765 92.9345C8.93083 92.8922 8.87864 92.8304 8.84813 92.7574C8.81762 92.6845 8.81027 92.6039 8.82709 92.5266C8.84391 92.4493 8.88408 92.3791 8.94215 92.3254L8.96857 92.2204C8.96509 92.212 8.96159 92.2035 8.95807 92.1951C8.87848 92.0072 8.74513 91.8469 8.57475 91.7345C8.40437 91.622 8.20457 91.5624 8.00043 91.5632C7.7963 91.564 7.59695 91.625 7.42741 91.7387C7.25787 91.8524 7.12571 92.0137 7.04752 92.2022C6.73504 92.9548 6.3372 93.7087 6.23924 94.5045C6.1961 94.8562 6.2143 95.2128 6.29303 95.5583C5.5591 93.9573 5.17799 92.2172 5.17554 90.4561C5.17538 90.0141 5.19994 89.5725 5.24909 89.1333C5.28971 88.7732 5.34606 88.4157 5.41815 88.0608C5.81152 86.135 6.6561 84.3299 7.88254 82.7939C8.47613 82.47 8.95618 81.972 9.258 81.3669C9.36734 81.1493 9.44461 80.9171 9.48742 80.6775C9.42046 80.6863 9.23494 79.6665 9.28545 79.6039C9.19213 79.4623 9.02511 79.3919 8.92319 79.2537C8.41633 78.5665 7.718 78.6865 7.35344 79.6204C6.57466 80.0134 6.56712 80.6653 7.04497 81.2922C7.34898 81.6911 7.39075 82.2308 7.6575 82.6578C7.63005 82.6929 7.60151 82.727 7.57407 82.7621C7.07241 83.4072 6.63517 84.0998 6.26864 84.8302C6.35777 84.012 6.25138 83.1843 5.95822 82.4152C5.66111 81.6984 5.1042 81.0948 4.61379 80.4751C4.48408 80.3087 4.30793 80.1844 4.10761 80.1181C3.9073 80.0517 3.6918 80.0462 3.48837 80.1023C3.28493 80.1584 3.10269 80.2735 2.96468 80.4332C2.82667 80.5928 2.73908 80.7898 2.71299 80.9992C2.71199 81.0083 2.71101 81.0174 2.71005 81.0266C2.78289 81.0677 2.8542 81.1113 2.92396 81.1574C3.01161 81.216 3.07952 81.2996 3.1188 81.3975C3.15808 81.4953 3.1669 81.6027 3.1441 81.7056C3.1213 81.8085 3.06795 81.9021 2.99103 81.9742C2.91411 82.0463 2.81721 82.0934 2.71304 82.1095L2.70237 82.1111C2.72832 82.3737 2.77419 82.6338 2.83958 82.8894C2.21044 85.3225 3.56871 86.2087 5.50815 86.2485C5.55096 86.2704 5.59269 86.2924 5.6355 86.3132C5.26724 87.3569 5.03624 88.4439 4.94832 89.5471C4.89854 90.198 4.90148 90.8518 4.9571 91.5022L4.95381 91.4791C4.81329 90.7559 4.42749 90.1034 3.86156 89.6316C3.02102 88.9412 1.83349 88.6869 0.926702 88.1319C0.830332 88.07 0.718273 88.037 0.603749 88.0367C0.489224 88.0364 0.377011 88.0689 0.280339 88.1303C0.183667 88.1917 0.106573 88.2795 0.0581472 88.3833C0.0097212 88.4871 -0.00801777 88.6025 0.00702739 88.7161L0.0107359 88.7403C0.145909 88.7954 0.277524 88.8588 0.404809 88.9302C0.477652 88.9713 0.548956 89.0149 0.618723 89.0611C0.706367 89.1196 0.774279 89.2033 0.81356 89.3011C0.852841 89.3989 0.861655 89.5063 0.838855 89.6092C0.816055 89.7121 0.762705 89.8058 0.685786 89.8778C0.608867 89.9499 0.511968 89.9971 0.407791 90.0131L0.397117 90.0148C0.389435 90.0159 0.382839 90.017 0.375172 90.0181C0.606139 90.5695 0.930309 91.0771 1.33348 91.5186C1.72687 93.6426 3.41647 93.8441 5.22383 93.2256H5.22493C5.42323 94.0873 5.71055 94.9261 6.08226 95.7284H9.14491C9.1559 95.6944 9.16578 95.6593 9.17566 95.6252C8.89217 95.6431 8.60757 95.6261 8.32821 95.5748C8.55544 95.2959 8.78267 95.0149 9.0099 94.7361C9.01497 94.7309 9.01974 94.7254 9.02418 94.7196C9.13944 94.5769 9.2558 94.4353 9.37106 94.2926L9.37112 94.2924C9.37726 93.855 9.32707 93.4186 9.22177 92.994L9.22167 92.9939Z" fill="#F0F0F0"/>
<path d="M0.113442 95.7978C0.113363 95.8243 0.118539 95.8507 0.128676 95.8753C0.138812 95.8998 0.153711 95.9222 0.172508 95.941C0.191306 95.9598 0.213633 95.9746 0.238208 95.9848C0.262783 95.9949 0.289119 96.0001 0.315702 96H43.3641C43.4177 96 43.4692 95.9787 43.5071 95.9408C43.545 95.9028 43.5663 95.8514 43.5663 95.7978C43.5663 95.7441 43.545 95.6927 43.5071 95.6547C43.4692 95.6168 43.4177 95.5955 43.3641 95.5955H0.315702C0.289119 95.5954 0.262782 95.6006 0.238208 95.6107C0.213633 95.6209 0.191306 95.6358 0.172508 95.6546C0.153711 95.6734 0.138813 95.6957 0.128676 95.7203C0.118539 95.7448 0.113364 95.7712 0.113442 95.7978Z" fill="#CCCCCC"/>
<path d="M94.1804 9.70801H50.7525C50.237 9.70801 49.7266 9.80954 49.2504 10.0068C48.7741 10.2041 48.3414 10.4932 47.9769 10.8577C47.6124 11.2222 47.3233 11.6549 47.126 12.1311C46.9288 12.6074 46.8272 13.1178 46.8272 13.6333V79.2041C46.8272 80.2451 47.2408 81.2435 47.9769 81.9797C48.713 82.7158 49.7114 83.1293 50.7525 83.1294H94.1804C95.2214 83.1293 96.2198 82.7158 96.956 81.9797C97.6921 81.2435 98.1056 80.2451 98.1056 79.2041C103.867 56.9204 104.044 35.0503 98.1056 13.6333C98.1056 12.5922 97.6921 11.5938 96.956 10.8577C96.2198 10.1216 95.2214 9.70801 94.1804 9.70801ZM52.0716 74.0446C52.0716 74.2131 52.0047 74.3748 51.8855 74.4939C51.7663 74.6131 51.6047 74.6801 51.4362 74.6801H49.7935C49.625 74.6801 49.4634 74.6131 49.3442 74.4939C49.225 74.3748 49.1581 74.2131 49.1581 74.0446V72.402C49.1581 72.2335 49.225 72.0718 49.3442 71.9526C49.4634 71.8335 49.625 71.7665 49.7935 71.7665H51.4362C51.6047 71.7665 51.7663 71.8335 51.8855 71.9526C52.0047 72.0718 52.0716 72.2335 52.0716 72.402V74.0446ZM52.0716 67.562C52.0716 67.7305 52.0047 67.8921 51.8855 68.0113C51.7663 68.1305 51.6047 68.1974 51.4362 68.1974H49.7935C49.625 68.1974 49.4634 68.1305 49.3442 68.0113C49.225 67.8921 49.1581 67.7305 49.1581 67.562V65.9194C49.1581 65.8359 49.1745 65.7533 49.2065 65.6762C49.2384 65.5991 49.2852 65.529 49.3442 65.47C49.4032 65.411 49.4733 65.3642 49.5504 65.3323C49.6275 65.3003 49.7101 65.2839 49.7935 65.2839H51.4362C51.5196 65.2839 51.6022 65.3003 51.6793 65.3323C51.7564 65.3642 51.8265 65.411 51.8855 65.47C51.9445 65.529 51.9913 65.5991 52.0232 65.6762C52.0552 65.7533 52.0716 65.8359 52.0716 65.9194V67.562ZM52.0716 61.0793C52.0716 61.2479 52.0047 61.4095 51.8855 61.5287C51.7663 61.6478 51.6047 61.7148 51.4362 61.7148H49.7935C49.625 61.7148 49.4634 61.6478 49.3442 61.5287C49.225 61.4095 49.1581 61.2479 49.1581 61.0793V59.4367C49.1581 59.2682 49.225 59.1065 49.3442 58.9874C49.4634 58.8682 49.625 58.8013 49.7935 58.8013H51.4362C51.6047 58.8013 51.7663 58.8682 51.8855 58.9874C52.0047 59.1065 52.0716 59.2682 52.0716 59.4367V61.0793ZM52.0716 54.5967C52.0716 54.7652 52.0047 54.9269 51.8855 55.046C51.7663 55.1652 51.6047 55.2322 51.4362 55.2322H49.7935C49.625 55.2322 49.4634 55.1652 49.3442 55.046C49.225 54.9269 49.1581 54.7652 49.1581 54.5967V52.9541C49.1581 52.7855 49.225 52.6239 49.3442 52.5047C49.4634 52.3856 49.625 52.3186 49.7935 52.3186H51.4362C51.6047 52.3186 51.7663 52.3856 51.8855 52.5047C52.0047 52.6239 52.0716 52.7855 52.0716 52.9541V54.5967ZM52.0716 48.114C52.0716 48.2826 52.0047 48.4442 51.8855 48.5634C51.7663 48.6826 51.6047 48.7495 51.4362 48.7495H49.7935C49.625 48.7495 49.4634 48.6826 49.3442 48.5634C49.225 48.4442 49.1581 48.2826 49.1581 48.114V46.4714C49.1581 46.3029 49.225 46.1413 49.3442 46.0221C49.4634 45.9029 49.625 45.836 49.7935 45.836H51.4362C51.6047 45.836 51.7663 45.9029 51.8855 46.0221C52.0047 46.1413 52.0716 46.3029 52.0716 46.4714V48.114ZM52.0716 41.6314C52.0716 41.7999 52.0047 41.9616 51.8855 42.0808C51.7663 42.1999 51.6047 42.2669 51.4362 42.2669H49.7935C49.625 42.2669 49.4634 42.1999 49.3442 42.0808C49.225 41.9616 49.1581 41.7999 49.1581 41.6314V39.9888C49.1581 39.8203 49.225 39.6586 49.3442 39.5395C49.4634 39.4203 49.625 39.3533 49.7935 39.3533H51.4362C51.6047 39.3533 51.7663 39.4203 51.8855 39.5395C52.0047 39.6586 52.0716 39.8203 52.0716 39.9888V41.6314ZM52.0716 35.1488C52.0716 35.3173 52.0047 35.4789 51.8855 35.5981C51.7663 35.7173 51.6047 35.7842 51.4362 35.7842H49.7935C49.625 35.7842 49.4634 35.7173 49.3442 35.5981C49.225 35.4789 49.1581 35.3173 49.1581 35.1488V33.5062C49.1581 33.3376 49.225 33.176 49.3442 33.0568C49.4634 32.9376 49.625 32.8707 49.7935 32.8707H51.4362C51.6047 32.8707 51.7663 32.9376 51.8855 33.0568C52.0047 33.176 52.0716 33.3376 52.0716 33.5062V35.1488ZM52.0716 28.6661C52.0716 28.8347 52.0047 28.9963 51.8855 29.1155C51.7663 29.2346 51.6047 29.3016 51.4362 29.3016H49.7935C49.625 29.3016 49.4634 29.2346 49.3442 29.1155C49.225 28.9963 49.1581 28.8347 49.1581 28.6661V27.0235C49.1581 26.855 49.225 26.6934 49.3442 26.5742C49.4634 26.455 49.625 26.3881 49.7935 26.3881H51.4362C51.6047 26.3881 51.7663 26.455 51.8855 26.5742C52.0047 26.6934 52.0716 26.855 52.0716 27.0235V28.6661ZM52.0716 22.1835C52.0716 22.352 52.0047 22.5137 51.8855 22.6328C51.7663 22.752 51.6047 22.819 51.4362 22.819H49.7935C49.625 22.819 49.4634 22.752 49.3442 22.6328C49.225 22.5137 49.1581 22.352 49.1581 22.1835V20.5409C49.1581 20.3724 49.225 20.2107 49.3442 20.0915C49.4634 19.9724 49.625 19.9054 49.7935 19.9054H51.4362C51.6047 19.9054 51.7663 19.9724 51.8855 20.0915C52.0047 20.2107 52.0716 20.3724 52.0716 20.5409V22.1835Z" fill="#F0F0F0"/>
<path d="M51.7009 13.2043H49.5288C49.324 13.2043 49.1581 13.3702 49.1581 13.5749V15.7471C49.1581 15.9518 49.324 16.1178 49.5288 16.1178H51.7009C51.9057 16.1178 52.0716 15.9518 52.0716 15.7471V13.5749C52.0716 13.3702 51.9057 13.2043 51.7009 13.2043Z" fill="#007FFE"/>
<path d="M89.6564 21.5321H57.94C57.8949 21.5321 57.8517 21.5142 57.8198 21.4823C57.788 21.4505 57.7701 21.4072 57.7701 21.3622C57.7701 21.3171 57.788 21.2739 57.8198 21.242C57.8517 21.2101 57.8949 21.1922 57.94 21.1922H89.6564C89.7015 21.1922 89.7447 21.2101 89.7766 21.242C89.8084 21.2739 89.8263 21.3171 89.8263 21.3622C89.8263 21.4072 89.8084 21.4505 89.7766 21.4823C89.7447 21.5142 89.7015 21.5321 89.6564 21.5321Z" fill="#CCCCCC"/>
<path d="M89.6564 15.1223H80.6243C80.5793 15.1223 80.536 15.1044 80.5042 15.0725C80.4723 15.0407 80.4544 14.9974 80.4544 14.9524C80.4544 14.9073 80.4723 14.864 80.5042 14.8322C80.536 14.8003 80.5793 14.7824 80.6243 14.7824H89.6564C89.7014 14.7824 89.7447 14.8003 89.7765 14.8322C89.8084 14.864 89.8263 14.9073 89.8263 14.9524C89.8263 14.9974 89.8084 15.0407 89.7765 15.0725C89.7447 15.1044 89.7014 15.1223 89.6564 15.1223Z" fill="#CCCCCC"/>
<path d="M89.6564 27.9419H57.94C57.8949 27.9419 57.8517 27.924 57.8198 27.8922C57.788 27.8603 57.7701 27.8171 57.7701 27.772C57.7701 27.7269 57.788 27.6837 57.8198 27.6518C57.8517 27.6199 57.8949 27.602 57.94 27.602H89.6564C89.7015 27.602 89.7447 27.6199 89.7766 27.6518C89.8084 27.6837 89.8263 27.7269 89.8263 27.772C89.8263 27.8171 89.8084 27.8603 89.7766 27.8922C89.7447 27.924 89.7015 27.9419 89.6564 27.9419Z" fill="#CCCCCC"/>
<path d="M89.6564 34.3517H57.94C57.8949 34.3517 57.8517 34.3338 57.8198 34.302C57.788 34.2701 57.7701 34.2269 57.7701 34.1818C57.7701 34.1367 57.788 34.0935 57.8198 34.0616C57.8517 34.0297 57.8949 34.0118 57.94 34.0118H89.6564C89.7015 34.0118 89.7447 34.0297 89.7766 34.0616C89.8084 34.0935 89.8263 34.1367 89.8263 34.1818C89.8263 34.2269 89.8084 34.2701 89.7766 34.302C89.7447 34.3338 89.7015 34.3517 89.6564 34.3517Z" fill="#CCCCCC"/>
<path d="M89.6564 40.7616H57.94C57.8949 40.7616 57.8517 40.7437 57.8198 40.7118C57.788 40.6799 57.7701 40.6367 57.7701 40.5916C57.7701 40.5465 57.788 40.5033 57.8198 40.4714C57.8517 40.4396 57.8949 40.4216 57.94 40.4216H89.6564C89.7015 40.4216 89.7447 40.4396 89.7766 40.4714C89.8084 40.5033 89.8263 40.5465 89.8263 40.5916C89.8263 40.6367 89.8084 40.6799 89.7766 40.7118C89.7447 40.7437 89.7015 40.7616 89.6564 40.7616Z" fill="#CCCCCC"/>
<path d="M89.6564 47.1714H57.94C57.8949 47.1714 57.8517 47.1535 57.8198 47.1216C57.788 47.0897 57.7701 47.0465 57.7701 47.0014C57.7701 46.9563 57.788 46.9131 57.8198 46.8812C57.8517 46.8494 57.8949 46.8315 57.94 46.8315H89.6564C89.7015 46.8315 89.7447 46.8494 89.7766 46.8812C89.8084 46.9131 89.8263 46.9563 89.8263 47.0014C89.8263 47.0465 89.8084 47.0897 89.7766 47.1216C89.7447 47.1535 89.7015 47.1714 89.6564 47.1714Z" fill="#CCCCCC"/>
<path d="M89.6564 53.5811H57.94C57.8949 53.5811 57.8517 53.5632 57.8198 53.5313C57.788 53.4995 57.7701 53.4562 57.7701 53.4111C57.7701 53.3661 57.788 53.3228 57.8198 53.291C57.8517 53.2591 57.8949 53.2412 57.94 53.2412H89.6564C89.7015 53.2412 89.7447 53.2591 89.7766 53.291C89.8084 53.3228 89.8263 53.3661 89.8263 53.4111C89.8263 53.4562 89.8084 53.4995 89.7766 53.5313C89.7447 53.5632 89.7015 53.5811 89.6564 53.5811Z" fill="#CCCCCC"/>
<path d="M89.6564 59.991H57.94C57.8949 59.991 57.8517 59.9731 57.8198 59.9412C57.788 59.9093 57.7701 59.8661 57.7701 59.821C57.7701 59.776 57.788 59.7327 57.8198 59.7009C57.8517 59.669 57.8949 59.6511 57.94 59.6511H89.6564C89.7015 59.6511 89.7447 59.669 89.7766 59.7009C89.8084 59.7327 89.8263 59.776 89.8263 59.821C89.8263 59.8661 89.8084 59.9093 89.7766 59.9412C89.7447 59.9731 89.7015 59.991 89.6564 59.991Z" fill="#CCCCCC"/>
<path d="M89.6564 66.4007H57.94C57.8949 66.4007 57.8517 66.3828 57.8198 66.3509C57.788 66.3191 57.7701 66.2758 57.7701 66.2308C57.7701 66.1857 57.788 66.1425 57.8198 66.1106C57.8517 66.0787 57.8949 66.0608 57.94 66.0608H89.6564C89.7015 66.0608 89.7447 66.0787 89.7766 66.1106C89.8084 66.1425 89.8263 66.1857 89.8263 66.2308C89.8263 66.2758 89.8084 66.3191 89.7766 66.3509C89.7447 66.3828 89.7015 66.4007 89.6564 66.4007Z" fill="#CCCCCC"/>
<path d="M89.6564 72.8106H57.94C57.8949 72.8106 57.8517 72.7927 57.8198 72.7608C57.788 72.729 57.7701 72.6857 57.7701 72.6407C57.7701 72.5956 57.788 72.5524 57.8198 72.5205C57.8517 72.4886 57.8949 72.4707 57.94 72.4707H89.6564C89.7015 72.4707 89.7447 72.4886 89.7766 72.5205C89.8084 72.5524 89.8263 72.5956 89.8263 72.6407C89.8263 72.6857 89.8084 72.729 89.7766 72.7608C89.7447 72.7927 89.7015 72.8106 89.6564 72.8106Z" fill="#CCCCCC"/>
<path d="M84.9544 20.0358H63.0807C62.9956 20.0359 62.9112 20.0192 62.8325 19.9867C62.7537 19.9542 62.6822 19.9065 62.6219 19.8464C62.5617 19.7862 62.5138 19.7147 62.4812 19.6361C62.4486 19.5574 62.4318 19.473 62.4318 19.3879C62.4318 19.3027 62.4486 19.2184 62.4812 19.1397C62.5138 19.061 62.5617 18.9896 62.6219 18.9294C62.6822 18.8692 62.7537 18.8215 62.8325 18.789C62.9112 18.7565 62.9956 18.7399 63.0807 18.74H84.9544C85.126 18.7403 85.2905 18.8087 85.4118 18.9301C85.5331 19.0516 85.6012 19.2162 85.6012 19.3879C85.6012 19.5595 85.5331 19.7242 85.4118 19.8456C85.2905 19.9671 85.126 20.0355 84.9544 20.0358Z" fill="#CCCCCC"/>
<path d="M84.9544 26.4456H63.0807C62.9089 26.4456 62.7441 26.3773 62.6226 26.2558C62.5011 26.1343 62.4328 25.9695 62.4328 25.7977C62.4328 25.6258 62.5011 25.4611 62.6226 25.3396C62.7441 25.2181 62.9089 25.1498 63.0807 25.1498H84.9544C85.1262 25.1498 85.291 25.2181 85.4125 25.3396C85.534 25.4611 85.6023 25.6258 85.6023 25.7977C85.6023 25.9695 85.534 26.1343 85.4125 26.2558C85.291 26.3773 85.1262 26.4456 84.9544 26.4456Z" fill="#CCCCCC"/>
<path d="M84.9544 32.8554H63.0807C62.9956 32.8555 62.9112 32.8389 62.8325 32.8064C62.7537 32.7739 62.6822 32.7262 62.6219 32.666C62.5617 32.6058 62.5138 32.5343 62.4812 32.4557C62.4486 32.377 62.4318 32.2927 62.4318 32.2075C62.4318 32.1223 62.4486 32.038 62.4812 31.9593C62.5138 31.8806 62.5617 31.8092 62.6219 31.749C62.6822 31.6888 62.7537 31.6411 62.8325 31.6086C62.9112 31.5761 62.9956 31.5595 63.0807 31.5596H84.9544C85.126 31.5599 85.2905 31.6283 85.4118 31.7497C85.5331 31.8712 85.6012 32.0358 85.6012 32.2075C85.6012 32.3791 85.5331 32.5438 85.4118 32.6652C85.2905 32.7867 85.126 32.8551 84.9544 32.8554Z" fill="#CCCCCC"/>
<path d="M84.9544 39.2652H63.0807C62.9089 39.2652 62.7441 39.1969 62.6226 39.0754C62.5011 38.9539 62.4328 38.7891 62.4328 38.6173C62.4328 38.4454 62.5011 38.2807 62.6226 38.1592C62.7441 38.0376 62.9089 37.9694 63.0807 37.9694H84.9544C85.1262 37.9694 85.291 38.0376 85.4125 38.1592C85.534 38.2807 85.6023 38.4454 85.6023 38.6173C85.6023 38.7891 85.534 38.9539 85.4125 39.0754C85.291 39.1969 85.1262 39.2652 84.9544 39.2652Z" fill="#CCCCCC"/>
<path d="M84.9544 45.675H63.0807C62.9956 45.6751 62.9112 45.6585 62.8325 45.626C62.7537 45.5935 62.6822 45.5458 62.6219 45.4856C62.5617 45.4254 62.5138 45.3539 62.4812 45.2753C62.4486 45.1966 62.4318 45.1122 62.4318 45.0271C62.4318 44.9419 62.4486 44.8576 62.4812 44.7789C62.5138 44.7002 62.5617 44.6288 62.6219 44.5686C62.6822 44.5084 62.7537 44.4607 62.8325 44.4282C62.9112 44.3957 62.9956 44.3791 63.0807 44.3792H84.9544C85.126 44.3795 85.2905 44.4479 85.4118 44.5693C85.5331 44.6908 85.6012 44.8554 85.6012 45.0271C85.6012 45.1987 85.5331 45.3634 85.4118 45.4848C85.2905 45.6063 85.126 45.6747 84.9544 45.675Z" fill="#CCCCCC"/>
<path d="M84.9544 52.0848H63.0807C62.9956 52.0849 62.9112 52.0683 62.8325 52.0358C62.7537 52.0033 62.6822 51.9556 62.6219 51.8954C62.5617 51.8352 62.5138 51.7637 62.4812 51.6851C62.4486 51.6064 62.4318 51.5221 62.4318 51.4369C62.4318 51.3517 62.4486 51.2674 62.4812 51.1887C62.5138 51.11 62.5617 51.0386 62.6219 50.9784C62.6822 50.9182 62.7537 50.8705 62.8325 50.838C62.9112 50.8055 62.9956 50.7889 63.0807 50.789H84.9544C85.126 50.7893 85.2905 50.8577 85.4118 50.9791C85.5331 51.1006 85.6012 51.2652 85.6012 51.4369C85.6012 51.6085 85.5331 51.7732 85.4118 51.8946C85.2905 52.0161 85.126 52.0845 84.9544 52.0848Z" fill="#CCCCCC"/>
<path d="M84.9544 58.4946H63.0807C62.9089 58.4946 62.7441 58.4263 62.6226 58.3048C62.5011 58.1833 62.4328 58.0185 62.4328 57.8467C62.4328 57.6749 62.5011 57.5101 62.6226 57.3886C62.7441 57.2671 62.9089 57.1988 63.0807 57.1988H84.9544C85.1262 57.1988 85.291 57.2671 85.4125 57.3886C85.534 57.5101 85.6023 57.6749 85.6023 57.8467C85.6023 58.0185 85.534 58.1833 85.4125 58.3048C85.291 58.4263 85.1262 58.4946 84.9544 58.4946Z" fill="#CCCCCC"/>
<path d="M84.9544 64.9044H63.0807C62.9956 64.9045 62.9112 64.8879 62.8325 64.8554C62.7537 64.8229 62.6822 64.7752 62.6219 64.715C62.5617 64.6548 62.5138 64.5833 62.4812 64.5047C62.4486 64.426 62.4318 64.3417 62.4318 64.2565C62.4318 64.1713 62.4486 64.087 62.4812 64.0083C62.5138 63.9296 62.5617 63.8582 62.6219 63.798C62.6822 63.7378 62.7537 63.6901 62.8325 63.6576C62.9112 63.6251 62.9956 63.6085 63.0807 63.6086H84.9544C85.126 63.6089 85.2905 63.6773 85.4118 63.7987C85.5331 63.9202 85.6012 64.0848 85.6012 64.2565C85.6012 64.4281 85.5331 64.5928 85.4118 64.7142C85.2905 64.8357 85.126 64.9041 84.9544 64.9044Z" fill="#CCCCCC"/>
<path d="M84.9544 71.3142H63.0807C62.9957 71.3142 62.9114 71.2974 62.8328 71.2649C62.7542 71.2323 62.6828 71.1846 62.6226 71.1244C62.5624 71.0643 62.5147 70.9928 62.4822 70.9142C62.4496 70.8356 62.4328 70.7514 62.4328 70.6663C62.4328 70.5812 62.4496 70.497 62.4822 70.4184C62.5147 70.3398 62.5624 70.2683 62.6226 70.2082C62.6828 70.148 62.7542 70.1003 62.8328 70.0677C62.9114 70.0352 62.9957 70.0184 63.0807 70.0184H84.9544C85.1262 70.0184 85.291 70.0867 85.4125 70.2082C85.534 70.3297 85.6023 70.4945 85.6023 70.6663C85.6023 70.8381 85.534 71.0029 85.4125 71.1244C85.291 71.2459 85.1262 71.3142 84.9544 71.3142Z" fill="#CCCCCC"/>
<path d="M65.1946 15.1868H59.5339C59.4888 15.1868 59.4456 15.2047 59.4137 15.2366C59.3818 15.2684 59.3639 15.3117 59.3639 15.3567C59.3639 15.4018 59.3818 15.445 59.4137 15.4769C59.4456 15.5088 59.4888 15.5267 59.5339 15.5267H62.1943V21.0737C62.1943 21.1188 62.2122 21.162 62.2441 21.1939C62.2759 21.2257 62.3192 21.2436 62.3642 21.2436C62.4093 21.2436 62.4525 21.2257 62.4844 21.1939C62.5163 21.162 62.5342 21.1188 62.5342 21.0737V18.1871C62.5342 17.4815 62.8145 16.8048 63.3134 16.3059C63.8123 15.807 64.489 15.5267 65.1946 15.5267C65.2397 15.5267 65.2829 15.5088 65.3148 15.4769C65.3466 15.445 65.3645 15.4018 65.3645 15.3567C65.3645 15.3117 65.3466 15.2684 65.3148 15.2366C65.2829 15.2047 65.2397 15.1868 65.1946 15.1868Z" fill="#3F3D56"/>
<path d="M85.7474 72.665C85.6535 72.665 84.4621 72.5889 84.4621 72.495L85.5774 66.8343C85.5774 66.7892 85.5953 66.746 85.6272 66.7141C85.6591 66.6823 85.7023 66.6644 85.7474 66.6644C85.7924 66.6644 85.8357 66.6823 85.8675 66.7141C85.8994 66.746 85.9173 66.7892 85.9173 66.8343V72.495C85.9173 72.5401 85.8994 72.5833 85.8675 72.6152C85.8357 72.6471 85.7924 72.665 85.7474 72.665Z" fill="#3F3D56"/>
<path d="M98.5934 13.6333C98.5934 12.5922 98.1799 11.5938 97.4438 10.8577C96.7077 10.1216 95.7093 9.70801 94.6682 9.70801H50.7363C52.5125 9.70801 73.8557 10.9631 87.4532 12.5474C89.7201 12.8112 91.8469 13.7809 93.5328 15.3192C95.2186 16.8576 96.3784 18.887 96.8481 21.1204C100.846 40.1405 100.116 59.5107 95.0244 79.2041C95.0244 80.2451 94.6108 81.2435 93.8747 81.9797C93.1386 82.7158 92.1402 83.1293 91.0991 83.1294H94.6682C95.7093 83.1293 96.7077 82.7158 97.4438 81.9797C98.1799 81.2435 98.5934 80.2451 98.5934 79.2041C104.354 56.9204 104.532 35.0503 98.5934 13.6333Z" fill="#CCCCCC"/>
<path d="M96.9367 81.1925L96.6076 81.1075C102.419 58.628 102.421 36.603 96.6137 15.6437C96.0092 14.5478 95.1395 13.6209 94.0842 12.948C93.029 12.275 91.8218 11.8774 90.5731 11.7915L73.1585 10.5574L73.1826 10.2183L90.5972 11.4524C91.9058 11.5425 93.1708 11.9601 94.2758 12.6669C95.3808 13.3736 96.2905 14.3469 96.921 15.4971L96.936 15.5337C99.8721 26.1188 101.35 37.0551 101.329 48.0399C101.307 58.8488 99.8295 70.003 96.9367 81.1925Z" fill="white"/>
<g clip-path="url(#clip1_19_72)">
<path d="M72.1643 50.4603H62.6752L61.1051 55H56.0875L64.6549 31.1408H70.2187L78.7861 55H73.7344L72.1643 50.4603ZM70.8672 46.6373L67.4197 36.6704L63.9723 46.6373H70.8672Z" fill="#007FFE"/>
<path d="M94.0736 44.9307H87.6224V51.5525H83.1168V44.9307H76.6656V40.7664H83.1168V34.1445H87.6224V40.7664H94.0736V44.9307Z" fill="url(#paint0_linear_19_72)"/>
</g>
</g>
<defs>
<linearGradient id="paint0_linear_19_72" x1="73.8667" y1="43" x2="97.0667" y2="43" gradientUnits="userSpaceOnUse">
<stop stop-color="#06B7E4"/>
<stop offset="1" stop-color="#45DAFF"/>
</linearGradient>
<clipPath id="clip0_19_72">
<rect width="102.981" height="96" fill="white"/>
</clipPath>
<clipPath id="clip1_19_72">
<rect width="38.1333" height="24" fill="white" transform="translate(56 31)"/>
</clipPath>
</defs>
</svg>
