<svg width="110" height="96" viewBox="0 0 110 96" fill="none" xmlns="http://www.w3.org/2000/svg">
<g clip-path="url(#clip0_104_32)">
<path d="M5.29277 32.7138L0.00380699 29.7349C-0.0675353 26.5477 0.640208 23.3913 2.06558 20.5397C3.28497 26.0743 9.70223 28.7074 12.6631 33.5398C13.575 35.054 14.1345 36.7541 14.3 38.5139C14.4656 40.2738 14.233 42.0483 13.6195 43.7061L13.9674 47.9972C11.2339 47.1785 8.71034 45.7769 6.57067 43.8889C4.431 42.001 2.72605 39.6716 1.57329 37.0614C0.941105 35.5906 0.49665 34.046 0.250415 32.4642C2.71636 32.7266 5.29277 32.7138 5.29277 32.7138Z" fill="#F2F2F2"/>
<path d="M100.371 86.909L100.533 83.2624C102.223 82.3587 104.109 81.8813 106.026 81.8718C103.388 84.0289 103.718 88.187 101.929 91.0877C101.364 91.9881 100.604 92.7499 99.7044 93.3166C98.8052 93.8833 97.7899 94.2404 96.7339 94.3614L94.526 95.7132C94.223 94.0242 94.2898 92.2897 94.7218 90.629C95.1537 88.9684 95.9406 87.4211 97.0281 86.0939C97.6455 85.3553 98.3535 84.6974 99.1354 84.1358C99.6642 85.5301 100.371 86.909 100.371 86.909Z" fill="#F2F2F2"/>
<path d="M94.6818 93.8366L92.6825 93.8364L91.7314 86.1252L94.6821 86.1253L94.6818 93.8366Z" fill="#FFB6B6"/>
<path d="M95.1916 95.7745L88.7453 95.7742V95.6927C88.7453 95.0273 89.0097 94.3891 89.4802 93.9186C89.9508 93.4481 90.5889 93.1837 91.2544 93.1837H91.2545L92.432 92.2903L94.629 93.1838L95.1917 93.1838L95.1916 95.7745Z" fill="#2F2E41"/>
<path d="M85.3937 93.8366L83.3945 93.8364L82.4435 86.1252L85.3942 86.1253L85.3937 93.8366Z" fill="#FFB6B6"/>
<path d="M85.9036 95.7745L79.4573 95.7742V95.6927C79.4574 95.0273 79.7217 94.3891 80.1923 93.9186C80.6628 93.4481 81.301 93.1837 81.9664 93.1837H81.9666L83.1441 92.2903L85.341 93.1838L85.9038 93.1838L85.9036 95.7745Z" fill="#2F2E41"/>
<path d="M84.5284 51.6786L97.5321 52.0037C100.002 53.3451 100.039 56.2484 99.2301 59.6954C99.2301 59.6954 99.5033 61.7443 98.957 62.2906C98.4106 62.837 98.1374 62.837 98.4106 63.7931C98.6838 64.7492 97.2405 66.3108 97.4158 66.4861C97.5911 66.6614 98.0008 67.6175 98.0008 67.6175L96.635 75.403C96.635 75.403 95.6788 88.9253 95.4057 89.1984C95.1325 89.4716 94.8593 89.1984 95.1325 89.8814C95.4057 90.5643 95.6788 90.2911 95.4057 90.5643C95.1637 90.8252 94.9357 91.0988 94.7227 91.3838H91.4204C91.4204 91.3838 91.1715 90.0179 91.1715 89.8814C91.1715 89.7448 90.8983 88.9253 90.8983 88.7887C90.8983 88.6521 91.1397 88.4106 91.1397 88.4106C91.2232 88.133 91.2795 87.8479 91.308 87.5594C91.308 87.2862 92.1276 76.7689 92.1276 76.7689L90.4885 63.1101L86.5275 76.4957C86.5275 76.4957 86.5275 88.2423 86.2543 88.5155C85.9811 88.7887 85.9811 88.6521 86.1177 89.1984C86.2543 89.7448 86.8007 89.6082 86.3909 90.0179C85.9811 90.4277 85.8445 89.7448 85.9811 90.4277L86.1177 91.1107L82.0201 91.1693C82.0201 91.1693 81.4737 90.0179 81.7469 89.6082C82.0201 89.1984 82.0037 89.3103 81.6704 88.6397C81.3371 87.9691 81.2005 87.8325 81.3371 87.696C81.4737 87.5594 81.4737 86.8329 81.4737 86.8329L82.1567 73.764C82.1567 73.764 82.2932 59.9686 82.2932 59.5589C82.3035 59.348 82.2647 59.1376 82.1798 58.9444V58.3882L82.703 56.4173L84.5284 51.6786Z" fill="#2F2E41"/>
<path d="M92.3399 24.6393C94.5713 24.6393 96.3803 22.8304 96.3803 20.599C96.3803 18.3676 94.5713 16.5587 92.3399 16.5587C90.1085 16.5587 88.2996 18.3676 88.2996 20.599C88.2996 22.8304 90.1085 24.6393 92.3399 24.6393Z" fill="#FFB6B6"/>
<path d="M90.3198 27.3097C89.4493 27.8272 88.9286 28.778 88.6297 29.7455C88.0763 31.5367 87.7432 33.3887 87.6378 35.2605L87.3221 40.8644L83.4121 52.7966C86.8008 55.6639 99.5383 53.4483 99.5383 53.4483C99.5383 53.4483 99.9293 53.3179 99.5383 52.9269C99.1473 52.5359 98.7666 52.8823 99.1576 52.4913C99.5486 52.1003 99.2791 52.5359 99.1487 52.1449C99.0184 51.7539 99.1487 52.0146 99.2791 51.8842C99.4094 51.7539 98.2701 50.5809 98.2701 50.5809L99.3128 43.7317L100.616 29.9164C99.0521 27.9614 95.9067 26.8089 95.9067 26.8089L95.0939 25.346L91.0303 25.6711L90.3198 27.3097Z" fill="#E6E6E6"/>
<path d="M89.7656 18.2278C89.9219 18.229 90.0775 18.2494 90.2289 18.2886C90.5273 18.3603 90.8303 18.4111 91.1357 18.4407C92.0711 18.5287 92.95 18.9276 93.632 19.5736C94.314 20.2197 94.7599 21.0757 94.8984 22.0049C95.1331 21.8003 95.6674 21.4237 96.1052 21.7737C96.1119 21.7792 96.1158 21.7821 96.1312 21.7748C96.422 21.6368 96.9382 19.9388 96.9539 18.4438C96.9621 17.6502 96.8372 16.6369 96.1954 16.316L96.1616 16.2991L96.1527 16.2624C96.1098 16.0839 95.6308 15.7792 94.7982 15.542C93.2851 15.1111 91.0297 14.2715 89.7596 15.5071C89.6635 15.9236 89.3508 16.815 89.0349 16.916C88.6852 17.0278 88.3831 17.1243 88.3355 17.5534C88.2957 18.164 88.2986 18.7766 88.3441 19.3868C88.4626 19.0134 88.6953 18.6866 89.0093 18.4524C89.2326 18.3021 89.4965 18.2237 89.7656 18.2278V18.2278Z" fill="#2F2E41"/>
<path d="M82.2454 40.5525L88.8453 36.3257L85.5211 31.9068L82.2387 35.9445L72.0114 36.5717C71.7424 36.3058 71.4019 36.1239 71.0313 36.0482C70.6607 35.9725 70.2761 36.0063 69.9244 36.1454C69.5726 36.2845 69.269 36.5229 69.0504 36.8316C68.8319 37.1403 68.7078 37.5059 68.6935 37.8839C68.6791 38.2619 68.7751 38.6359 68.9696 38.9603C69.1641 39.2847 69.4488 39.5454 69.7889 39.7108C70.1291 39.8762 70.5101 39.939 70.8853 39.8917C71.2606 39.8443 71.614 39.6888 71.9023 39.444L82.2454 40.5525Z" fill="#FFB6B6"/>
<path d="M94.9709 30.4259C95.354 32.7441 88.1203 37.1709 88.1203 37.1709C88.1202 36.6268 83.8027 40.7345 83.6078 40.2832C83.054 39.0007 82.6646 35.9629 81.8906 35.4767C81.448 35.1986 84.5563 32.5865 84.5563 32.5865C84.5563 32.5865 86.1833 30.9474 88.3184 28.8799C88.9112 28.2842 89.6451 27.8482 90.4517 27.6124C91.2583 27.3766 92.1115 27.3487 92.9318 27.5314C92.9318 27.5314 94.5879 28.1078 94.9709 30.4259Z" fill="#E6E6E6"/>
<path d="M108.574 41.6619L104.209 35.153L99.8613 38.5699L103.968 41.7661L104.811 51.9778C104.551 52.2524 104.376 52.5967 104.309 52.9688C104.241 53.3409 104.283 53.7247 104.429 54.0734C104.576 54.4221 104.821 54.7207 105.134 54.9327C105.447 55.1446 105.815 55.2609 106.193 55.2672C106.572 55.2736 106.943 55.1698 107.264 54.9684C107.584 54.7671 107.839 54.4769 107.997 54.1333C108.155 53.7897 108.21 53.4076 108.154 53.0334C108.099 52.6592 107.936 52.3092 107.685 52.0261L108.574 41.6619Z" fill="#FFB6B6"/>
<path d="M98.1807 29.1537C100.49 28.7216 105.069 35.86 105.069 35.86C104.525 35.8716 108.723 40.1011 108.276 40.3055C107.006 40.8864 103.977 41.34 103.507 42.1241C103.239 42.5725 100.561 39.5202 100.561 39.5202C100.561 39.5202 98.8881 37.9283 96.7759 35.8374C96.1677 35.2574 95.7163 34.5329 95.4635 33.7314C95.2106 32.93 95.1647 32.0776 95.33 31.2536C95.33 31.2536 95.8711 29.5857 98.1807 29.1537Z" fill="#E6E6E6"/>
<path d="M109.69 95.8066C109.69 95.832 109.685 95.8572 109.675 95.8807C109.665 95.9042 109.651 95.9255 109.633 95.9435C109.615 95.9615 109.594 95.9757 109.57 95.9854C109.547 95.9951 109.522 96.0001 109.496 96H63.9359C63.8846 96 63.8354 95.9796 63.7991 95.9433C63.7629 95.9071 63.7425 95.8579 63.7425 95.8066C63.7425 95.7553 63.7629 95.7061 63.7991 95.6698C63.8354 95.6335 63.8846 95.6131 63.9359 95.6131H109.496C109.522 95.6131 109.547 95.618 109.57 95.6277C109.594 95.6374 109.615 95.6516 109.633 95.6696C109.651 95.6876 109.665 95.7089 109.675 95.7325C109.685 95.756 109.69 95.7811 109.69 95.8066Z" fill="#CCCCCC"/>
<path d="M67.4833 37.1895H12.1897C11.3258 37.1904 10.4976 37.534 9.88674 38.1449C9.27589 38.7557 8.93228 39.584 8.9313 40.4478V74.8734C8.93229 75.7372 9.27589 76.5654 9.88674 77.1763C10.4976 77.7871 11.3258 78.1308 12.1897 78.1317H67.4832C68.3471 78.1308 69.1753 77.7872 69.7862 77.1763C70.3971 76.5655 70.7407 75.7372 70.7417 74.8734V40.4478C70.7407 39.584 70.3971 38.7557 69.7862 38.1449C69.1754 37.534 68.3472 37.1904 67.4833 37.1895Z" fill="#F2F2F2"/>
<path d="M67.4833 37.1895H12.1897C11.3258 37.1904 10.4976 37.534 9.88674 38.1449C9.27589 38.7557 8.93228 39.584 8.9313 40.4478V74.8734C8.93229 75.7372 9.27589 76.5654 9.88674 77.1763C10.4976 77.7871 11.3258 78.1308 12.1897 78.1317H67.4832C68.3471 78.1308 69.1753 77.7872 69.7862 77.1763C70.3971 76.5655 70.7407 75.7372 70.7417 74.8734V40.4478C70.7407 39.584 70.3971 38.7557 69.7862 38.1449C69.1754 37.534 68.3472 37.1904 67.4833 37.1895ZM68.5526 61.9177C68.5394 65.4225 67.1531 68.7824 64.6911 71.2768C62.2291 73.7711 58.8875 75.2012 55.3833 75.2602C49.7727 75.3332 58.4875 75.3617 51.7208 75.3617C36.2476 75.3617 20.1132 75.2138 14.0933 75.118C13.3013 75.1016 12.547 74.7763 11.9915 74.2115C11.4361 73.6466 11.1234 72.887 11.1204 72.0948V40.4504C11.1207 40.1667 11.2333 39.8947 11.4337 39.6938C11.634 39.493 11.9058 39.3797 12.1895 39.3787H67.481C67.7647 39.379 68.0366 39.4916 68.2374 39.6919C68.4382 39.8922 68.5515 40.1639 68.5526 40.4475V61.9177Z" fill="#F2F2F2"/>
<path d="M60.6767 17.3662H18.5488C18.1761 17.3667 17.8126 17.4822 17.508 17.6971C17.2033 17.9119 16.9724 18.2154 16.8468 18.5664L10.3404 36.8204C10.2433 37.0928 10.213 37.3846 10.2521 37.6712C10.2912 37.9578 10.3985 38.2308 10.565 38.4673C10.7316 38.7038 10.9524 38.8969 11.2091 39.0303C11.4657 39.1637 11.7507 39.2336 12.0399 39.234L68.5403 39.3342H68.5428C68.8419 39.3342 69.1362 39.26 69.3994 39.1182C69.6627 38.9765 69.8867 38.7716 70.0513 38.522C70.2159 38.2724 70.316 37.9858 70.3426 37.688C70.3691 37.3901 70.3214 37.0904 70.2036 36.8155L70.1051 36.8577L70.2036 36.8155L62.3375 18.4613C62.1984 18.1361 61.9669 17.8589 61.6716 17.6642C61.3764 17.4695 61.0304 17.3659 60.6767 17.3662V17.3662Z" fill="#F2F2F2"/>
<path d="M70.3499 37.2119C70.3498 37.4567 70.3 37.6989 70.2036 37.9239L62.338 52.0525C62.1979 52.377 61.9661 52.6534 61.6709 52.8478C61.3757 53.0421 61.0302 53.1459 60.6768 53.1464H18.5495C18.1766 53.146 17.8129 53.0306 17.508 52.816C17.2032 52.6013 16.972 52.2978 16.846 51.9468L10.3408 37.919C10.2611 37.6955 10.2262 37.4585 10.2381 37.2215C10.25 36.9846 10.3085 36.7522 10.4103 36.5379C10.512 36.3235 10.655 36.1313 10.8311 35.9722C11.0072 35.8132 11.2129 35.6904 11.4364 35.6108C11.6298 35.541 11.8339 35.5053 12.0395 35.5052L18.9412 35.4922L21.7581 35.4873L58.8253 35.4223L61.6439 35.4174L68.5408 35.4044H68.5424C69.0218 35.4045 69.4815 35.595 69.8204 35.9339C70.1594 36.2729 70.3498 36.7326 70.3499 37.2119V37.2119Z" fill="#F2F2F2"/>
<path d="M16.3349 63.0126C17.1703 63.0126 28.642 63.7137 28.642 64.5491C28.642 65.3844 17.1703 66.0378 16.3349 66.0378C15.9338 66.0378 15.549 65.8784 15.2654 65.5947C14.9817 65.3111 14.8223 64.9263 14.8223 64.5252C14.8223 64.124 14.9817 63.7393 15.2654 63.4556C15.549 63.1719 15.9338 63.0126 16.3349 63.0126V63.0126Z" fill="#F2F2F2"/>
<path d="M58.0532 6.26138H22.5319C21.5799 6.26248 20.6672 6.64114 19.9941 7.31428C19.321 7.98742 18.9423 8.90008 18.9412 9.85204V53.1464H60.6767C61.0194 53.1475 61.3552 53.0499 61.6439 52.8652V9.85204C61.6428 8.90008 61.2641 7.98742 60.591 7.31428C59.9179 6.64114 59.0052 6.26249 58.0532 6.26138Z" fill="#E6E6E6"/>
<path d="M44.4952 9.17261H25.0286C24.1618 9.17345 23.3306 9.51806 22.7175 10.1309C22.1044 10.7437 21.7594 11.5746 21.7581 12.4414V53.1464H58.8253V23.5027C58.821 19.7035 57.3098 16.0611 54.6233 13.3746C51.9368 10.6882 48.2945 9.17699 44.4952 9.17261V9.17261Z" fill="#2F2E41"/>
<path d="M52.5104 49.5314H28.0731C27.8619 49.5314 27.6593 49.6153 27.5099 49.7647C27.3605 49.914 27.2766 50.1166 27.2766 50.3279C27.2766 50.5391 27.3605 50.7417 27.5099 50.891C27.6593 51.0404 27.8619 51.1243 28.0731 51.1243H52.5104C52.7216 51.1243 52.9242 51.0404 53.0736 50.891C53.223 50.7417 53.3069 50.5391 53.3069 50.3279C53.3069 50.1166 53.223 49.914 53.0736 49.7647C52.9242 49.6153 52.7216 49.5314 52.5104 49.5314V49.5314Z" fill="#E4E4E4"/>
<path d="M52.5104 46.3812H28.0731C27.8616 46.3812 27.6588 46.4652 27.5093 46.6147C27.3598 46.7643 27.2758 46.9671 27.2758 47.1785C27.2758 47.39 27.3598 47.5928 27.5093 47.7423C27.6588 47.8918 27.8616 47.9758 28.0731 47.9758H52.5104C52.7218 47.9758 52.9246 47.8918 53.0742 47.7423C53.2237 47.5928 53.3077 47.39 53.3077 47.1785C53.3077 46.9671 53.2237 46.7643 53.0742 46.6147C52.9246 46.4652 52.7218 46.3812 52.5104 46.3812V46.3812Z" fill="#E4E4E4"/>
<path d="M38.6663 43.2327H28.0731C27.8619 43.2327 27.6593 43.3166 27.5099 43.466C27.3605 43.6153 27.2766 43.8179 27.2766 44.0292C27.2766 44.2404 27.3605 44.443 27.5099 44.5924C27.6593 44.7417 27.8619 44.8257 28.0731 44.8257H38.6663C38.8775 44.8257 39.0801 44.7417 39.2295 44.5924C39.3788 44.443 39.4628 44.2404 39.4628 44.0292C39.4628 43.8179 39.3788 43.6153 39.2295 43.466C39.0801 43.3166 38.8775 43.2327 38.6663 43.2327V43.2327Z" fill="#E4E4E4"/>
<path d="M52.5104 36.6365H28.0731C27.8616 36.6365 27.6588 36.7205 27.5093 36.8701C27.3598 37.0196 27.2758 37.2224 27.2758 37.4338C27.2758 37.6453 27.3598 37.8481 27.5093 37.9976C27.6588 38.1471 27.8616 38.2311 28.0731 38.2311H52.5104C52.7218 38.2311 52.9246 38.1471 53.0742 37.9976C53.2237 37.8481 53.3077 37.6453 53.3077 37.4338C53.3077 37.2224 53.2237 37.0196 53.0742 36.8701C52.9246 36.7205 52.7218 36.6365 52.5104 36.6365Z" fill="#E4E4E4"/>
<path d="M52.5104 33.488H28.0731C27.8619 33.488 27.6593 33.5719 27.5099 33.7213C27.3605 33.8707 27.2766 34.0732 27.2766 34.2845C27.2766 34.4957 27.3605 34.6983 27.5099 34.8477C27.6593 34.997 27.8619 35.081 28.0731 35.081H52.5104C52.7216 35.081 52.9242 34.997 53.0736 34.8477C53.223 34.6983 53.3069 34.4957 53.3069 34.2845C53.3069 34.0732 53.223 33.8707 53.0736 33.7213C52.9242 33.5719 52.7216 33.488 52.5104 33.488V33.488Z" fill="#E4E4E4"/>
<path d="M38.6663 30.3378H28.0731C27.8616 30.3378 27.6588 30.4218 27.5093 30.5714C27.3598 30.7209 27.2758 30.9237 27.2758 31.1351C27.2758 31.3466 27.3598 31.5494 27.5093 31.6989C27.6588 31.8484 27.8616 31.9324 28.0731 31.9324H38.6663C38.8777 31.9324 39.0805 31.8484 39.23 31.6989C39.3796 31.5494 39.4636 31.3466 39.4636 31.1351C39.4636 30.9237 39.3796 30.7209 39.23 30.5714C39.0805 30.4218 38.8777 30.3378 38.6663 30.3378Z" fill="#E4E4E4"/>
<path d="M52.5104 23.7417H28.0731C27.8616 23.7417 27.6588 23.8257 27.5093 23.9752C27.3598 24.1247 27.2758 24.3275 27.2758 24.539C27.2758 24.7504 27.3598 24.9532 27.5093 25.1028C27.6588 25.2523 27.8616 25.3363 28.0731 25.3363H52.5104C52.7218 25.3363 52.9246 25.2523 53.0742 25.1028C53.2237 24.9532 53.3077 24.7504 53.3077 24.539C53.3077 24.3275 53.2237 24.1247 53.0742 23.9752C52.9246 23.8257 52.7218 23.7417 52.5104 23.7417Z" fill="#007FFE"/>
<path d="M52.5104 20.5931H28.0731C27.8616 20.5931 27.6588 20.6771 27.5093 20.8267C27.3598 20.9762 27.2758 21.179 27.2758 21.3904C27.2758 21.6019 27.3598 21.8047 27.5093 21.9542C27.6588 22.1037 27.8616 22.1877 28.0731 22.1877H52.5104C52.7218 22.1877 52.9246 22.1037 53.0742 21.9542C53.2237 21.8047 53.3077 21.6019 53.3077 21.3904C53.3077 21.179 53.2237 20.9762 53.0742 20.8267C52.9246 20.6771 52.7218 20.5931 52.5104 20.5931Z" fill="#007FFE"/>
<path d="M38.6663 17.443H28.0731C27.8616 17.443 27.6588 17.527 27.5093 17.6765C27.3598 17.826 27.2758 18.0288 27.2758 18.2403C27.2758 18.4517 27.3598 18.6545 27.5093 18.8041C27.6588 18.9536 27.8616 19.0376 28.0731 19.0376H38.6663C38.8777 19.0376 39.0805 18.9536 39.23 18.8041C39.3796 18.6545 39.4636 18.4517 39.4636 18.2403C39.4636 18.0288 39.3796 17.826 39.23 17.6765C39.0805 17.527 38.8777 17.443 38.6663 17.443Z" fill="#007FFE"/>
<path d="M60.3122 12.4065C63.7382 12.4065 66.5154 9.62921 66.5154 6.20325C66.5154 2.77729 63.7382 0 60.3122 0C56.8862 0 54.1089 2.77729 54.1089 6.20325C54.1089 9.62921 56.8862 12.4065 60.3122 12.4065Z" fill="#007FFE"/>
<path d="M59.4659 9.43176C59.3588 9.43176 59.2531 9.40681 59.1573 9.35889C59.0615 9.31098 58.9782 9.2414 58.914 9.15569L57.2216 6.8992C57.167 6.82673 57.1271 6.74419 57.1044 6.6563C57.0817 6.56841 57.0766 6.47691 57.0893 6.38703C57.102 6.29715 57.1323 6.21067 57.1785 6.13253C57.2247 6.05439 57.2859 5.98613 57.3585 5.93167C57.4311 5.87721 57.5138 5.83762 57.6017 5.81515C57.6897 5.79269 57.7812 5.78779 57.871 5.80076C57.9609 5.81372 58.0473 5.84428 58.1253 5.89069C58.2033 5.93711 58.2714 5.99845 58.3257 6.07122L59.4329 7.54736L62.2765 3.28191C62.378 3.12964 62.5359 3.02393 62.7153 2.98804C62.8948 2.95215 63.0812 2.98902 63.2334 3.09053C63.3857 3.19205 63.4914 3.3499 63.5273 3.52935C63.5632 3.70881 63.5263 3.89517 63.4248 4.04745L60.0401 9.12447C59.9789 9.21629 59.8965 9.2921 59.8 9.34552C59.7034 9.39895 59.5954 9.42845 59.4851 9.43154C59.4787 9.43165 59.4723 9.43176 59.4659 9.43176Z" fill="#2F2E41"/>
</g>
<defs>
<clipPath id="clip0_104_32">
<rect width="109.69" height="96" fill="white"/>
</clipPath>
</defs>
</svg>
