<svg width="138" height="96" viewBox="0 0 138 96" fill="none" xmlns="http://www.w3.org/2000/svg">
<g clip-path="url(#clip0_19_421)">
<path d="M115.926 66.6676C115.784 66.5105 115.678 66.3241 115.615 66.1216C115.553 65.9191 115.536 65.7053 115.565 65.4955C115.594 65.2856 115.669 65.0846 115.784 64.9068C115.899 64.729 116.052 64.5786 116.232 64.4662L115.083 59.4451L117.59 60.383L118.297 65.0073C118.466 65.3216 118.513 65.6869 118.431 66.034C118.348 66.381 118.141 66.6858 117.849 66.8904C117.557 67.0951 117.199 67.1854 116.845 67.1444C116.491 67.1033 116.164 66.9337 115.926 66.6676Z" fill="#FFB8B8"/>
<path d="M115.752 62.6826L113.549 58.4218L113.847 47.6928L113.988 47.9912C114.153 48.3388 118.02 56.525 117.744 59.2655L118.186 61.7699L115.752 62.6826Z" fill="#3F3D56"/>
<path d="M114.316 94.1713H116.083L116.923 87.355L114.315 87.3552L114.316 94.1713Z" fill="#FFB8B8"/>
<path d="M113.865 93.5944L117.345 93.5942H117.345C117.933 93.5942 118.497 93.8279 118.913 94.2438C119.329 94.6597 119.563 95.2238 119.563 95.812V95.8841L113.865 95.8843L113.865 93.5944Z" fill="#2F2E41"/>
<path d="M96.8549 92.8283L98.5575 93.3017L101.194 86.9599L98.6808 86.2612L96.8549 92.8283Z" fill="#FFB8B8"/>
<path d="M96.5751 92.1517L99.9281 93.084L99.9283 93.0841C100.495 93.2417 100.976 93.6179 101.265 94.13C101.554 94.6422 101.628 95.2482 101.471 95.8149L101.451 95.8844L95.9616 94.3579L96.5751 92.1517Z" fill="#2F2E41"/>
<path d="M112.554 91.514L108.987 65.9781L101.284 91.3696L95.2273 89.3014L103.908 55.3015L103.965 55.2974L113.059 54.6649L119.629 89.4502L112.554 91.514Z" fill="#2F2E41"/>
<path d="M111.61 43.2685C111.61 43.2685 108.295 41.5388 103.827 42.2595C103.827 42.2595 101.448 47.9974 103.827 50.2816L104.475 56.0251C104.475 56.0251 110.529 59.6287 112.547 55.4486L112.259 50.6918C112.259 50.6918 113.7 48.4105 112.547 46.7404C111.856 45.7202 111.526 44.4979 111.61 43.2685Z" fill="#007FFE"/>
<path d="M112.03 69.3932L112.612 57.3186L110.965 42.9546L111.041 42.9432C113.201 42.6175 113.894 46.3391 113.923 46.4977L117.683 67.7571L112.03 69.3932Z" fill="#3F3D56"/>
<path d="M104.699 69.5191L98.0521 68.7805L98.0538 68.7078C98.0774 67.7237 98.6495 44.5859 100.253 42.9472C101.865 41.2988 104.909 42.012 105.037 42.0434L105.101 42.0589L104.554 51.8494L104.699 69.5191Z" fill="#3F3D56"/>
<path d="M105.924 55.6901C105.722 55.7562 105.509 55.7773 105.299 55.752C105.088 55.7267 104.886 55.6555 104.706 55.5436C104.526 55.4316 104.373 55.2816 104.257 55.1041C104.142 54.9265 104.066 54.7257 104.037 54.5159L98.9818 53.5256L100.858 51.616L105.37 52.8492C105.726 52.8227 106.079 52.9277 106.363 53.1442C106.646 53.3606 106.841 53.6736 106.909 54.0238C106.977 54.374 106.914 54.737 106.733 55.0441C106.551 55.3512 106.263 55.5811 105.924 55.6901Z" fill="#FFB8B8"/>
<path d="M103.226 54.531L101.579 54.1769C99.1478 54.9082 94.9036 52.3338 93.1882 51.1903C92.8654 50.9751 92.7607 50.5488 92.877 49.9234C93.0487 49.0485 93.5309 48.2653 94.2348 47.7181L100.276 42.9279L101.801 42.6729L102.254 45.2395L98.4048 49.3738L104.071 52.4579L103.226 54.531Z" fill="#3F3D56"/>
<path d="M102.575 40.0866V36.7585C102.575 35.3504 103.134 34 104.13 33.0043C105.126 32.0086 106.476 31.4492 107.884 31.4492C109.292 31.4492 110.643 32.0086 111.638 33.0043C112.634 34 113.193 35.3504 113.193 36.7585V40.0866C113.193 40.2757 113.118 40.457 112.984 40.5907C112.851 40.7244 112.669 40.7996 112.48 40.7998H103.288C103.099 40.7996 102.918 40.7244 102.784 40.5907C102.65 40.457 102.575 40.2757 102.575 40.0866Z" fill="#2F2E41"/>
<path d="M107.671 40.767C109.821 40.767 111.563 39.0243 111.563 36.8745C111.563 34.7247 109.821 32.982 107.671 32.982C105.521 32.982 103.778 34.7247 103.778 36.8745C103.778 39.0243 105.521 40.767 107.671 40.767Z" fill="#FFB8B8"/>
<path d="M103.671 36.8595C103.634 36.8166 103.607 36.7662 103.591 36.7117C103.575 36.6572 103.571 36.5999 103.579 36.5436L104.04 33.3328C104.049 33.2675 104.074 33.2054 104.113 33.1523C104.152 33.0992 104.204 33.0567 104.264 33.0287C106.617 31.9272 109.004 31.9258 111.358 33.0245C111.42 33.0541 111.474 33.0994 111.513 33.1559C111.553 33.2125 111.577 33.2784 111.584 33.3472L111.892 36.5622C111.897 36.6172 111.891 36.6726 111.873 36.725C111.856 36.7774 111.828 36.8256 111.791 36.8665C111.754 36.9074 111.708 36.94 111.658 36.9623C111.607 36.9847 111.553 36.9962 111.497 36.9962H110.717C110.641 36.996 110.568 36.9744 110.504 36.934C110.441 36.8935 110.39 36.8358 110.358 36.7676L110.021 36.0457C109.999 35.999 109.963 35.9606 109.917 35.9364C109.872 35.9122 109.819 35.9034 109.769 35.9114C109.718 35.9194 109.671 35.9438 109.635 35.9808C109.599 36.0179 109.576 36.0656 109.57 36.1168L109.503 36.649C109.491 36.7448 109.444 36.8329 109.372 36.8968C109.3 36.9607 109.206 36.9961 109.11 36.9962H103.971C103.914 36.9962 103.858 36.984 103.806 36.9604C103.755 36.9368 103.709 36.9024 103.671 36.8595Z" fill="#2F2E41"/>
<path d="M87.3246 6.3974H0V60.7754H87.3246V6.3974Z" fill="#CCCCCC"/>
<path d="M21.8493 16.8732H5.85581V27.269H21.8493V16.8732Z" fill="white"/>
<path d="M41.7225 16.8732H25.729V27.269H41.7225V16.8732Z" fill="white"/>
<path d="M61.5956 16.8732H45.6021V27.269H61.5956V16.8732Z" fill="white"/>
<path d="M81.4688 16.8732H65.4753V27.269H81.4688V16.8732Z" fill="white"/>
<path d="M21.8493 31.5872H5.85581V41.983H21.8493V31.5872Z" fill="white"/>
<path d="M41.7225 31.5872H25.729V41.983H41.7225V31.5872Z" fill="white"/>
<path d="M61.5956 31.5872H45.6021V41.983H61.5956V31.5872Z" fill="white"/>
<path d="M81.4688 31.5872H65.4753V41.983H81.4688V31.5872Z" fill="white"/>
<path d="M21.8493 46.3012H5.85581V56.697H21.8493V46.3012Z" fill="white"/>
<path d="M41.7225 46.3012H25.729V56.697H41.7225V46.3012Z" fill="white"/>
<path d="M54.8221 21.7123H38.8285V32.1081H54.8221V21.7123Z" fill="white"/>
<path d="M81.4688 46.3012H65.4753V56.697H81.4688V46.3012Z" fill="white"/>
<path d="M22.8707 12.7948C24.1957 12.7948 25.2697 11.7207 25.2697 10.3958C25.2697 9.07085 24.1957 7.99677 22.8707 7.99677C21.5458 7.99677 20.4717 9.07085 20.4717 10.3958C20.4717 11.7207 21.5458 12.7948 22.8707 12.7948Z" fill="white"/>
<path d="M62.5346 12.7948C63.8596 12.7948 64.9337 11.7207 64.9337 10.3958C64.9337 9.07084 63.8596 7.99677 62.5346 7.99677C61.2097 7.99677 60.1356 9.07084 60.1356 10.3958C60.1356 11.7207 61.2097 12.7948 62.5346 12.7948Z" fill="white"/>
<path d="M23.8303 0H21.9111V11.0355H23.8303V0Z" fill="#CCCCCC"/>
<path d="M63.4943 0H61.575V11.0355H63.4943V0Z" fill="#CCCCCC"/>
<path d="M77.0888 22.071C77.0879 22.9396 76.7737 23.7786 76.2038 24.434C75.6339 25.0895 74.8467 25.5172 73.9867 25.6387C73.1267 25.7602 72.2517 25.5673 71.5226 25.0953C70.7935 24.6234 70.2591 23.9042 70.0177 23.0699C69.7764 22.2356 69.8442 21.3422 70.2087 20.5539C70.5732 19.7656 71.21 19.1353 72.002 18.7788C72.794 18.4223 73.6881 18.3637 74.5199 18.6136C75.3517 18.8635 76.0654 19.4051 76.5298 20.139C76.8955 20.717 77.0894 21.3871 77.0888 22.071Z" fill="#007FFE"/>
<path d="M76.5298 20.1391L72.9696 23.6986C72.7459 23.3522 71.4993 21.7423 71.4993 21.7423C71.659 21.5808 71.8295 21.4303 72.0096 21.2918L73.0433 22.6701L76.1129 19.6005C76.2686 19.7665 76.4082 19.9468 76.5298 20.1391Z" fill="white"/>
<path d="M37.3424 36.7851C37.3416 37.6536 37.0274 38.4927 36.4575 39.1481C35.8876 39.8035 35.1003 40.2313 34.2404 40.3527C33.3804 40.4742 32.5054 40.2813 31.7763 39.8094C31.0471 39.3375 30.5128 38.6183 30.2714 37.784C30.03 36.9497 30.0978 36.0563 30.4624 35.2679C30.8269 34.4796 31.4637 33.8493 32.2557 33.4929C33.0477 33.1364 33.9418 33.0777 34.7736 33.3276C35.6054 33.5775 36.3191 34.1192 36.7835 34.8531C37.1492 35.4311 37.3431 36.1011 37.3424 36.7851Z" fill="#007FFE"/>
<path d="M36.7835 34.8531L33.2233 38.4126C32.9996 38.0662 31.753 36.4563 31.753 36.4563C31.9127 36.2948 32.0832 36.1443 32.2633 36.0058L33.297 37.3841L36.3666 34.3145C36.5223 34.4805 36.6618 34.6608 36.7835 34.8531Z" fill="white"/>
<path d="M17.4693 36.7851C17.4685 37.6536 17.1542 38.4927 16.5844 39.1481C16.0145 39.8035 15.2272 40.2313 14.3672 40.3528C13.5072 40.4743 12.6323 40.2813 11.9031 39.8094C11.174 39.3375 10.6396 38.6183 10.3982 37.784C10.1569 36.9497 10.2247 36.0563 10.5892 35.2679C10.9537 34.4796 11.5905 33.8493 12.3825 33.4929C13.1745 33.1364 14.0686 33.0777 14.9004 33.3276C15.7322 33.5775 16.4459 34.1192 16.9103 34.8531C17.2761 35.4311 17.4699 36.1011 17.4693 36.7851Z" fill="#007FFE"/>
<path d="M16.9103 34.8531L13.3502 38.4126C13.1264 38.0662 11.8798 36.4563 11.8798 36.4563C12.0396 36.2948 12.2101 36.1443 12.3901 36.0058L13.4238 37.3841L16.4934 34.3145C16.6491 34.4805 16.7887 34.6608 16.9103 34.8531Z" fill="white"/>
<path d="M137.141 96H76.7586C76.7166 96 76.6763 95.9833 76.6465 95.9536C76.6168 95.9239 76.6001 95.8836 76.6001 95.8415C76.6001 95.7995 76.6168 95.7592 76.6465 95.7295C76.6763 95.6997 76.7166 95.683 76.7586 95.683H137.141C137.183 95.683 137.223 95.6997 137.253 95.7295C137.283 95.7592 137.299 95.7995 137.299 95.8415C137.299 95.8836 137.283 95.9239 137.253 95.9536C137.223 95.9833 137.183 96 137.141 96Z" fill="#3F3D56"/>
</g>
<defs>
<clipPath id="clip0_19_421">
<rect width="137.299" height="96" fill="white"/>
</clipPath>
</defs>
</svg>
