<svg width="167" height="96" viewBox="0 0 167 96" fill="none" xmlns="http://www.w3.org/2000/svg">
<g clip-path="url(#clip0_19_428)">
<path d="M76.7372 91.0631C76.4917 91.0629 76.2504 90.999 76.037 90.8777L35.5521 67.9891C35.223 67.8025 34.9814 67.493 34.8802 67.1285C34.779 66.764 34.8265 66.3742 35.0123 66.0447L66.8993 9.64385C66.9914 9.48071 67.1149 9.33733 67.2625 9.2219C67.4101 9.10647 67.579 9.02125 67.7595 8.97112C67.9401 8.92099 68.1288 8.90693 68.3148 8.92973C68.5007 8.95254 68.6804 9.01176 68.8435 9.10403L109.328 31.9927C109.657 32.1792 109.899 32.4887 110 32.8532C110.102 33.2176 110.054 33.6074 109.868 33.9369L77.9812 90.3377C77.8894 90.5012 77.7661 90.6448 77.6185 90.7603C77.4708 90.8758 77.3017 90.9609 77.1209 91.0106C76.996 91.0453 76.8669 91.063 76.7372 91.0631Z" fill="#CCCCCC"/>
<path d="M65.7701 11.8535L65.6074 12.1413L108.394 36.3314L108.557 36.0437L65.7701 11.8535Z" fill="white"/>
<path d="M62.8417 17.0332L62.679 17.3209L105.466 41.5111L105.629 41.2233L62.8417 17.0332Z" fill="white"/>
<path d="M59.9133 22.2129L59.7506 22.5006L102.538 46.6908L102.7 46.403L59.9133 22.2129Z" fill="white"/>
<path d="M56.9849 27.3925L56.8222 27.6803L99.6091 51.8704L99.7718 51.5827L56.9849 27.3925Z" fill="white"/>
<path d="M54.0565 32.5722L53.8939 32.8599L96.6808 57.0501L96.8434 56.7623L54.0565 32.5722Z" fill="white"/>
<path d="M51.1281 37.7519L50.9655 38.0396L93.7523 62.2298L93.915 61.942L51.1281 37.7519Z" fill="white"/>
<path d="M48.1997 42.9315L48.037 43.2193L90.8239 67.4094L90.9866 67.1217L48.1997 42.9315Z" fill="white"/>
<path d="M45.2714 48.1112L45.1087 48.3989L87.8956 72.5891L88.0583 72.3013L45.2714 48.1112Z" fill="white"/>
<path d="M42.343 53.2908L42.1803 53.5786L84.9672 77.7688L85.1299 77.481L42.343 53.2908Z" fill="white"/>
<path d="M39.4146 58.4705L39.2519 58.7583L82.0388 82.9484L82.2015 82.6607L39.4146 58.4705Z" fill="white"/>
<path d="M36.4862 63.6502L36.3235 63.9379L79.1104 88.1281L79.2731 87.8403L36.4862 63.6502Z" fill="white"/>
<path d="M72.9711 82.4847C72.7256 82.4845 72.4843 82.4206 72.2709 82.2994L31.786 59.4107C31.4569 59.2241 31.2153 58.9146 31.1141 58.5501C31.0129 58.1856 31.0604 57.7959 31.2461 57.4664L63.1332 1.06549C63.2253 0.902343 63.3488 0.75896 63.4964 0.64353C63.644 0.528101 63.8129 0.442885 63.9934 0.392754C64.174 0.342622 64.3627 0.328558 64.5486 0.351362C64.7346 0.374166 64.9143 0.433395 65.0774 0.52566L105.562 23.4143C105.891 23.6009 106.133 23.9103 106.234 24.2748C106.335 24.6393 106.288 25.029 106.102 25.3586L74.2151 81.7593C74.1233 81.9228 74 82.0664 73.8523 82.1819C73.7047 82.2974 73.5356 82.3825 73.3548 82.4322C73.2299 82.4669 73.1008 82.4846 72.9711 82.4847Z" fill="#F0F0F0"/>
<path d="M62.004 3.27516L61.8413 3.56291L104.628 27.7531L104.791 27.4653L62.004 3.27516Z" fill="white"/>
<path d="M59.0756 8.45482L58.9129 8.74258L101.7 32.9327L101.862 32.645L59.0756 8.45482Z" fill="white"/>
<path d="M56.1472 13.6345L55.9845 13.9222L98.7714 38.1124L98.9341 37.8246L56.1472 13.6345Z" fill="white"/>
<path d="M53.2188 18.8142L53.0561 19.1019L95.843 43.2921L96.0057 43.0043L53.2188 18.8142Z" fill="white"/>
<path d="M50.2904 23.9938L50.1277 24.2816L92.9146 48.4717L93.0773 48.184L50.2904 23.9938Z" fill="white"/>
<path d="M47.362 29.1735L47.1993 29.4612L89.9862 53.6514L90.1489 53.3636L47.362 29.1735Z" fill="white"/>
<path d="M44.4336 34.3532L44.2709 34.6409L87.0578 58.8311L87.2205 58.5433L44.4336 34.3532Z" fill="white"/>
<path d="M41.5052 39.5328L41.3426 39.8206L84.1295 64.0107L84.2921 63.723L41.5052 39.5328Z" fill="white"/>
<path d="M38.5768 44.7125L38.4142 45.0002L81.201 69.1904L81.3637 68.9026L38.5768 44.7125Z" fill="white"/>
<path d="M35.6485 49.8921L35.4858 50.1799L78.2727 74.37L78.4354 74.0823L35.6485 49.8921Z" fill="white"/>
<path d="M32.7201 55.0718L32.5574 55.3596L75.3443 79.5497L75.507 79.262L32.7201 55.0718Z" fill="white"/>
<path d="M68.9367 0H4.23553V89.9683H68.9367C69.1691 89.9683 69.392 89.8759 69.5564 89.7116C69.7207 89.5472 69.813 89.3244 69.813 89.0919V0.876314C69.813 0.643902 69.7207 0.421013 69.5564 0.256673C69.392 0.0923338 69.1691 4.99396e-06 68.9367 0ZM7.88684 87.4854C7.56909 87.4854 7.25847 87.3912 6.99427 87.2146C6.73007 87.0381 6.52415 86.7872 6.40255 86.4936C6.28096 86.2 6.24914 85.877 6.31113 85.5654C6.37312 85.2537 6.52613 84.9675 6.75082 84.7428C6.9755 84.5181 7.26177 84.3651 7.57341 84.3031C7.88506 84.2411 8.20809 84.2729 8.50165 84.3945C8.79521 84.5161 9.04613 84.722 9.22266 84.9862C9.39919 85.2504 9.49342 85.561 9.49342 85.8788C9.49342 86.0898 9.45186 86.2987 9.37112 86.4936C9.29039 86.6885 9.17205 86.8656 9.02286 87.0148C8.87368 87.164 8.69657 87.2823 8.50165 87.3631C8.30673 87.4438 8.09782 87.4854 7.88684 87.4854ZM7.88684 79.3064C7.56909 79.3064 7.25848 79.2122 6.99428 79.0357C6.73008 78.8592 6.52416 78.6082 6.40256 78.3147C6.28096 78.0211 6.24915 77.6981 6.31114 77.3864C6.37313 77.0748 6.52614 76.7885 6.75082 76.5638C6.9755 76.3392 7.26177 76.1862 7.57341 76.1242C7.88506 76.0622 8.20809 76.094 8.50165 76.2156C8.79521 76.3372 9.04613 76.5431 9.22266 76.8073C9.39919 77.0715 9.49342 77.3821 9.49342 77.6999C9.49342 77.9108 9.45186 78.1198 9.37113 78.3147C9.29039 78.5096 9.17205 78.6867 9.02287 78.8359C8.87368 78.9851 8.69657 79.1034 8.50165 79.1842C8.30673 79.2649 8.09782 79.3064 7.88684 79.3064ZM7.88684 71.1275C7.56909 71.1275 7.25848 71.0333 6.99428 70.8568C6.73008 70.6802 6.52416 70.4293 6.40256 70.1357C6.28096 69.8422 6.24915 69.5191 6.31114 69.2075C6.37313 68.8959 6.52614 68.6096 6.75082 68.3849C6.9755 68.1602 7.26177 68.0072 7.57341 67.9452C7.88506 67.8832 8.20809 67.915 8.50165 68.0366C8.79521 68.1582 9.04613 68.3642 9.22266 68.6284C9.39919 68.8926 9.49342 69.2032 9.49342 69.5209C9.49342 69.7319 9.45186 69.9408 9.37112 70.1357C9.29039 70.3307 9.17205 70.5078 9.02286 70.657C8.87368 70.8061 8.69657 70.9245 8.50165 71.0052C8.30673 71.086 8.09782 71.1275 7.88684 71.1275ZM7.88684 62.9486C7.56909 62.9486 7.25848 62.8544 6.99428 62.6778C6.73008 62.5013 6.52416 62.2504 6.40256 61.9568C6.28096 61.6632 6.24915 61.3402 6.31114 61.0286C6.37313 60.7169 6.52614 60.4307 6.75082 60.206C6.9755 59.9813 7.26177 59.8283 7.57341 59.7663C7.88506 59.7043 8.20809 59.7361 8.50165 59.8577C8.79521 59.9793 9.04613 60.1852 9.22266 60.4494C9.39919 60.7136 9.49342 61.0242 9.49342 61.342C9.49342 61.553 9.45186 61.7619 9.37112 61.9568C9.29039 62.1517 9.17205 62.3288 9.02286 62.478C8.87368 62.6272 8.69657 62.7455 8.50165 62.8263C8.30673 62.907 8.09782 62.9486 7.88684 62.9486ZM7.88684 54.7696C7.56909 54.7696 7.25848 54.6754 6.99428 54.4989C6.73008 54.3223 6.52416 54.0714 6.40256 53.7779C6.28096 53.4843 6.24915 53.1613 6.31114 52.8496C6.37313 52.538 6.52614 52.2517 6.75082 52.027C6.9755 51.8024 7.26177 51.6493 7.57341 51.5874C7.88506 51.5254 8.20809 51.5572 8.50165 51.6788C8.79521 51.8004 9.04613 52.0063 9.22266 52.2705C9.39919 52.5347 9.49342 52.8453 9.49342 53.1631C9.49342 53.374 9.45186 53.583 9.37112 53.7779C9.29039 53.9728 9.17205 54.1499 9.02286 54.2991C8.87368 54.4483 8.69657 54.5666 8.50165 54.6474C8.30673 54.7281 8.09782 54.7696 7.88684 54.7696ZM7.88684 46.5907C7.56909 46.5907 7.25848 46.4965 6.99428 46.32C6.73008 46.1434 6.52416 45.8925 6.40256 45.5989C6.28096 45.3054 6.24915 44.9823 6.31114 44.6707C6.37313 44.3591 6.52614 44.0728 6.75082 43.8481C6.9755 43.6234 7.26177 43.4704 7.57341 43.4084C7.88506 43.3464 8.20809 43.3783 8.50165 43.4999C8.79521 43.6214 9.04613 43.8274 9.22266 44.0916C9.39919 44.3558 9.49342 44.6664 9.49342 44.9841C9.49342 45.1951 9.45186 45.404 9.37112 45.5989C9.29039 45.7939 9.17205 45.971 9.02286 46.1202C8.87368 46.2693 8.69657 46.3877 8.50165 46.4684C8.30673 46.5492 8.09782 46.5907 7.88684 46.5907ZM7.88684 38.4118C7.56909 38.4118 7.25848 38.3175 6.99428 38.141C6.73008 37.9645 6.52416 37.7136 6.40256 37.42C6.28096 37.1264 6.24915 36.8034 6.31114 36.4918C6.37313 36.1801 6.52614 35.8939 6.75082 35.6692C6.9755 35.4445 7.26177 35.2915 7.57341 35.2295C7.88506 35.1675 8.20809 35.1993 8.50165 35.3209C8.79521 35.4425 9.04613 35.6484 9.22266 35.9126C9.39919 36.1768 9.49342 36.4874 9.49342 36.8052C9.49342 37.0162 9.45186 37.2251 9.37112 37.42C9.29039 37.6149 9.17205 37.792 9.02286 37.9412C8.87368 38.0904 8.69657 38.2087 8.50165 38.2895C8.30673 38.3702 8.09782 38.4118 7.88684 38.4118ZM7.88684 30.2328C7.56909 30.2328 7.25848 30.1386 6.99428 29.9621C6.73008 29.7856 6.52416 29.5346 6.40256 29.2411C6.28096 28.9475 6.24915 28.6245 6.31114 28.3128C6.37313 28.0012 6.52614 27.7149 6.75082 27.4902C6.9755 27.2656 7.26177 27.1126 7.57341 27.0506C7.88506 26.9886 8.20809 27.0204 8.50165 27.142C8.79521 27.2636 9.04613 27.4695 9.22266 27.7337C9.39919 27.9979 9.49342 28.3085 9.49342 28.6263C9.49342 28.8372 9.45186 29.0462 9.37112 29.2411C9.29039 29.436 9.17205 29.6131 9.02286 29.7623C8.87368 29.9115 8.69657 30.0298 8.50165 30.1105C8.30673 30.1913 8.09782 30.2328 7.88684 30.2328ZM7.88684 22.0539C7.56909 22.0539 7.25848 21.9597 6.99428 21.7832C6.73008 21.6066 6.52416 21.3557 6.40256 21.0621C6.28096 20.7686 6.24915 20.4455 6.31114 20.1339C6.37313 19.8223 6.52614 19.536 6.75082 19.3113C6.9755 19.0866 7.26177 18.9336 7.57341 18.8716C7.88506 18.8096 8.20809 18.8415 8.50165 18.9631C8.79521 19.0847 9.04613 19.2906 9.22266 19.5548C9.39919 19.819 9.49342 20.1296 9.49342 20.4473C9.49342 20.6583 9.45186 20.8672 9.37112 21.0621C9.29039 21.2571 9.17205 21.4342 9.02286 21.5834C8.87368 21.7325 8.69657 21.8509 8.50165 21.9316C8.30673 22.0124 8.09782 22.0539 7.88684 22.0539ZM7.88684 13.875C7.56909 13.875 7.25847 13.7808 6.99427 13.6042C6.73007 13.4277 6.52415 13.1768 6.40255 12.8832C6.28096 12.5896 6.24914 12.2666 6.31113 11.955C6.37312 11.6433 6.52613 11.3571 6.75082 11.1324C6.9755 10.9077 7.26177 10.7547 7.57341 10.6927C7.88506 10.6307 8.20809 10.6625 8.50165 10.7841C8.79521 10.9057 9.04613 11.1116 9.22266 11.3758C9.39919 11.64 9.49342 11.9506 9.49342 12.2684C9.49342 12.4794 9.45186 12.6883 9.37112 12.8832C9.29039 13.0781 9.17205 13.2552 9.02286 13.4044C8.87368 13.5536 8.69657 13.672 8.50165 13.7527C8.30673 13.8334 8.09782 13.875 7.88684 13.875ZM7.88684 5.69604C7.56909 5.69604 7.25847 5.60182 6.99427 5.42529C6.73007 5.24875 6.52415 4.99784 6.40255 4.70428C6.28096 4.41072 6.24914 4.08768 6.31113 3.77604C6.37312 3.46439 6.52613 3.17813 6.75082 2.95345C6.9755 2.72876 7.26177 2.57575 7.57341 2.51376C7.88506 2.45177 8.20809 2.48358 8.50165 2.60518C8.79521 2.72678 9.04613 2.9327 9.22266 3.1969C9.39919 3.4611 9.49342 3.77172 9.49342 4.08947C9.49342 4.30045 9.45186 4.50936 9.37112 4.70428C9.29039 4.8992 9.17205 5.07631 9.02286 5.22549C8.87368 5.37467 8.69657 5.49301 8.50165 5.57375C8.30673 5.65449 8.09782 5.69604 7.88684 5.69604Z" fill="#3F3D56"/>
<path d="M4.23552 4.96578C3.802 4.96578 0 4.94531 0 4.23552C0 3.52573 3.802 3.50526 4.23552 3.50526V3.79736C1.99618 3.79736 0.544165 4.04803 0.310325 4.23552C0.544165 4.42301 1.99618 4.67367 4.23552 4.67367C6.46986 4.67367 7.92038 4.42407 8.15911 4.23681C8.0455 4.15658 7.5814 3.98842 6.33659 3.88081L6.36173 3.58984C8.47104 3.77212 8.47104 4.1088 8.47104 4.23552C8.47104 4.94531 4.66904 4.96578 4.23552 4.96578Z" fill="#2F2E41"/>
<path d="M4.23552 12.9987C3.802 12.9987 0 12.9782 0 12.2684C0 11.5586 3.802 11.5381 4.23552 11.5381V11.8302C1.99618 11.8302 0.544165 12.0809 0.310325 12.2684C0.544165 12.4559 1.99618 12.7066 4.23552 12.7066C6.46986 12.7066 7.92038 12.457 8.15911 12.2697C8.0455 12.1895 7.5814 12.0213 6.33659 11.9137L6.36173 11.6227C8.47104 11.805 8.47104 12.1417 8.47104 12.2684C8.47104 12.9782 4.66904 12.9987 4.23552 12.9987Z" fill="#2F2E41"/>
<path d="M4.23552 21.1776C3.802 21.1776 0 21.1571 0 20.4473C0 19.7375 3.802 19.7171 4.23552 19.7171V20.0092C1.99618 20.0092 0.544165 20.2598 0.310325 20.4473C0.544165 20.6348 1.99618 20.8855 4.23552 20.8855C6.46986 20.8855 7.92038 20.6359 8.15911 20.4486C8.0455 20.3684 7.5814 20.2002 6.33659 20.0926L6.36173 19.8017C8.47104 19.9839 8.47104 20.3206 8.47104 20.4473C8.47104 21.1571 4.66904 21.1776 4.23552 21.1776Z" fill="#2F2E41"/>
<path d="M4.23552 29.3565C3.802 29.3565 0 29.3361 0 28.6263C0 27.9165 3.802 27.896 4.23552 27.896V28.1881C1.99618 28.1881 0.544165 28.4388 0.310325 28.6263C0.544165 28.8137 1.99618 29.0644 4.23552 29.0644C6.46986 29.0644 7.92038 28.8148 8.15911 28.6275C8.0455 28.5473 7.5814 28.3792 6.33659 28.2715L6.36173 27.9806C8.47104 28.1629 8.47104 28.4995 8.47104 28.6263C8.47104 29.3361 4.66904 29.3565 4.23552 29.3565Z" fill="#2F2E41"/>
<path d="M4.23552 37.5355C3.802 37.5355 0 37.515 0 36.8052C0 36.0954 3.802 36.0749 4.23552 36.0749V36.367C1.99618 36.367 0.544165 36.6177 0.310325 36.8052C0.544165 36.9927 1.99618 37.2434 4.23552 37.2434C6.46986 37.2434 7.92038 36.9937 8.15911 36.8065C8.0455 36.7263 7.5814 36.5581 6.33659 36.4505L6.36173 36.1595C8.47104 36.3418 8.47104 36.6785 8.47104 36.8052C8.47104 37.515 4.66904 37.5355 4.23552 37.5355Z" fill="#2F2E41"/>
<path d="M4.23552 45.7144C3.802 45.7144 0 45.6939 0 44.9841C0 44.2743 3.802 44.2539 4.23552 44.2539V44.546C1.99618 44.546 0.544165 44.7966 0.310325 44.9841C0.544165 45.1716 1.99618 45.4223 4.23552 45.4223C6.46986 45.4223 7.92038 45.1727 8.15911 44.9854C8.0455 44.9052 7.5814 44.737 6.33659 44.6294L6.36173 44.3384C8.47104 44.5207 8.47104 44.8574 8.47104 44.9841C8.47104 45.6939 4.66904 45.7144 4.23552 45.7144Z" fill="#2F2E41"/>
<path d="M4.23552 53.8933C3.802 53.8933 0 53.8729 0 53.1631C0 52.4533 3.802 52.4328 4.23552 52.4328V52.7249C1.99618 52.7249 0.544165 52.9756 0.310325 53.1631C0.544165 53.3505 1.99618 53.6012 4.23552 53.6012C6.46986 53.6012 7.92038 53.3516 8.15911 53.1644C8.0455 53.0841 7.5814 52.916 6.33659 52.8083L6.36173 52.5174C8.47104 52.6997 8.47104 53.0363 8.47104 53.1631C8.47104 53.8729 4.66904 53.8933 4.23552 53.8933Z" fill="#2F2E41"/>
<path d="M4.23552 62.0723C3.802 62.0723 0 62.0518 0 61.342C0 60.6322 3.802 60.6117 4.23552 60.6117V60.9038C1.99618 60.9038 0.544165 61.1545 0.310325 61.342C0.544165 61.5295 1.99618 61.7802 4.23552 61.7802C6.46986 61.7802 7.92038 61.5305 8.15911 61.3433C8.0455 61.2631 7.5814 61.0949 6.33659 60.9873L6.36173 60.6963C8.47104 60.8786 8.47104 61.2153 8.47104 61.342C8.47104 62.0518 4.66904 62.0723 4.23552 62.0723Z" fill="#2F2E41"/>
<path d="M4.23552 70.2512C3.802 70.2512 0 70.2307 0 69.5209C0 68.8111 3.802 68.7907 4.23552 68.7907V69.0828C1.99618 69.0828 0.544165 69.3334 0.310325 69.5209C0.544165 69.7084 1.99618 69.9591 4.23552 69.9591C6.46986 69.9591 7.92038 69.7095 8.15911 69.5222C8.0455 69.442 7.5814 69.2738 6.33659 69.1662L6.36173 68.8752C8.47104 69.0575 8.47104 69.3942 8.47104 69.5209C8.47104 70.2307 4.66904 70.2512 4.23552 70.2512Z" fill="#2F2E41"/>
<path d="M4.23552 78.4301C3.802 78.4301 0 78.4097 0 77.6999C0 76.9901 3.802 76.9696 4.23552 76.9696V77.2617C1.99618 77.2617 0.544165 77.5124 0.310325 77.6999C0.544165 77.8873 1.99618 78.138 4.23552 78.138C6.46986 78.138 7.92038 77.8884 8.15911 77.7012C8.0455 77.6209 7.5814 77.4528 6.33659 77.3451L6.36173 77.0542C8.47104 77.2365 8.47104 77.5731 8.47104 77.6999C8.47104 78.4097 4.66904 78.4301 4.23552 78.4301Z" fill="#2F2E41"/>
<path d="M4.23552 86.6091C3.802 86.6091 0 86.5886 0 85.8788C0 85.169 3.802 85.1485 4.23552 85.1485V85.4406C1.99618 85.4406 0.544165 85.6913 0.310325 85.8788C0.544165 86.0663 1.99618 86.3169 4.23552 86.3169C6.46986 86.3169 7.92038 86.0673 8.15911 85.8801C8.0455 85.7998 7.5814 85.6317 6.33659 85.5241L6.36173 85.2331C8.47104 85.4154 8.47104 85.7521 8.47104 85.8788C8.47104 86.5886 4.66904 86.6091 4.23552 86.6091Z" fill="#2F2E41"/>
<path d="M55.719 34.3953H23.5875C23.3358 34.395 23.0945 34.2949 22.9165 34.117C22.7385 33.939 22.6384 33.6977 22.6381 33.446V20.8855C22.6384 20.6338 22.7385 20.3925 22.9165 20.2145C23.0945 20.0365 23.3358 19.9364 23.5875 19.9361H55.719C55.9707 19.9364 56.212 20.0365 56.3899 20.2145C56.5679 20.3925 56.668 20.6338 56.6683 20.8855V33.446C56.668 33.6977 56.5679 33.939 56.3899 34.117C56.212 34.2949 55.9707 34.395 55.719 34.3953Z" fill="white"/>
<path d="M43.7427 24.2447H35.5638C35.3701 24.2447 35.1843 24.1678 35.0474 24.0308C34.9104 23.8939 34.8335 23.7081 34.8335 23.5144C34.8335 23.3208 34.9104 23.135 35.0474 22.9981C35.1843 22.8611 35.3701 22.7842 35.5638 22.7842H43.7427C43.9364 22.7842 44.1221 22.8611 44.2591 22.9981C44.396 23.135 44.473 23.3208 44.473 23.5144C44.473 23.7081 44.396 23.8939 44.2591 24.0308C44.1221 24.1678 43.9364 24.2447 43.7427 24.2447H43.7427Z" fill="#007FFE"/>
<path d="M48.2703 27.896H31.0361C30.8425 27.896 30.6567 27.8191 30.5198 27.6821C30.3828 27.5452 30.3059 27.3594 30.3059 27.1657C30.3059 26.9721 30.3828 26.7863 30.5198 26.6494C30.6567 26.5124 30.8425 26.4355 31.0361 26.4355H48.2703C48.464 26.4355 48.6497 26.5124 48.7867 26.6494C48.9236 26.7863 49.0006 26.9721 49.0006 27.1657C49.0006 27.3594 48.9236 27.5452 48.7867 27.6821C48.6497 27.8191 48.464 27.896 48.2703 27.896Z" fill="#007FFE"/>
<path d="M48.2703 31.5473H31.0361C30.8425 31.5473 30.6567 31.4704 30.5198 31.3334C30.3828 31.1965 30.3059 31.0107 30.3059 30.817C30.3059 30.6234 30.3828 30.4376 30.5198 30.3007C30.6567 30.1637 30.8425 30.0868 31.0361 30.0868H48.2703C48.464 30.0868 48.6497 30.1637 48.7867 30.3007C48.9236 30.4376 49.0006 30.6234 49.0006 30.817C49.0006 31.0107 48.9236 31.1965 48.7867 31.3334C48.6497 31.4704 48.464 31.5473 48.2703 31.5473Z" fill="#007FFE"/>
<path d="M131.736 30.3235C132.193 30.3235 132.64 30.1947 133.026 29.9518C133.412 29.7089 133.722 29.3618 133.92 28.9506C134.118 28.5393 134.195 28.0805 134.143 27.6271C134.092 27.1737 133.913 26.7441 133.628 26.3879C132.435 24.8968 129.823 25.1252 128.778 23.5268C127.892 22.1724 128.71 20.3123 129.889 19.2042C132.198 17.0348 135.894 16.5017 138.721 17.9302C141.549 19.3587 143.313 22.6499 142.937 25.7954C142.793 26.9935 142.461 28.4476 143.391 29.2167C144.216 29.8992 145.436 29.5118 146.472 29.243C148.01 28.8555 149.613 28.8051 151.171 29.0953C152.73 29.3855 154.207 30.0093 155.502 30.9241C157.704 32.5022 159.309 35.051 159.31 37.76C159.311 40.469 157.466 43.199 154.826 43.8055C152.238 44.4001 149.57 42.9546 147.739 41.031C145.909 39.1075 144.652 36.7151 142.983 34.6492C141.314 32.5834 139.006 30.7638 136.351 30.7159C134.812 30.6882 133.128 31.2296 131.823 30.4156" fill="#2F2E41"/>
<path d="M132.878 31.4022C135.716 31.4022 138.017 29.1014 138.017 26.2633C138.017 23.4252 135.716 21.1244 132.878 21.1244C130.04 21.1244 127.739 23.4252 127.739 26.2633C127.739 29.1014 130.04 31.4022 132.878 31.4022Z" fill="#FFB8B8"/>
<path d="M121.946 60.3536C121.856 60.0597 121.831 59.7495 121.873 59.4448C121.915 59.1401 122.024 58.8484 122.191 58.5902C122.358 58.3321 122.58 58.1137 122.84 57.9505C123.101 57.7873 123.394 57.6832 123.7 57.6456L125.269 50.3355L127.992 53.1077L126.084 59.6245C126.113 60.1416 125.951 60.6513 125.63 61.0572C125.308 61.4631 124.849 61.7369 124.339 61.8268C123.829 61.9167 123.304 61.8164 122.863 61.5448C122.422 61.2733 122.096 60.8495 121.946 60.3536Z" fill="#FFB8B8"/>
<path d="M148.342 92.1043L145.821 92.5771L138.221 67.6143L143.615 66.9161L148.342 92.1043Z" fill="#FFB8B8"/>
<path d="M143.884 92.1952L148.746 91.283L149.321 94.3443L141.397 95.8309C141.322 95.4289 141.326 95.0159 141.411 94.6157C141.495 94.2154 141.657 93.8356 141.888 93.498C142.119 93.1604 142.414 92.8716 142.756 92.648C143.099 92.4245 143.482 92.2706 143.884 92.1952Z" fill="#2F2E41"/>
<path d="M131.821 93.4486L129.256 93.4484L128.872 70.3313L134.332 70.3315L131.821 93.4486Z" fill="#FFB8B8"/>
<path d="M127.424 92.7155H132.371V95.8303H124.309C124.309 95.4213 124.389 95.0162 124.546 94.6383C124.702 94.2604 124.932 93.9171 125.221 93.6278C125.51 93.3386 125.854 93.1092 126.232 92.9526C126.61 92.7961 127.015 92.7155 127.424 92.7155Z" fill="#2F2E41"/>
<path d="M127.692 73.4774L127.928 62.1797C127.91 62.0208 126.057 44.9044 125.366 40.5308C124.664 36.0865 128.29 33.8077 128.327 33.7852C128.489 33.7187 128.636 33.6624 128.782 33.6084C130.498 32.9594 132.361 32.8088 134.158 33.174C135.955 33.5392 137.612 34.4053 138.938 35.6722C140.311 36.9388 141.303 38.5631 141.804 40.3626C142.305 42.1621 142.293 44.0655 141.772 45.8591L140.493 50.2872C147.046 62.1338 148.39 67.2316 148.403 67.2817L148.407 67.297L148.406 67.313C148.171 72.0112 128.638 73.4123 127.806 73.4697L127.692 73.4774Z" fill="#007FFE"/>
<path d="M126.168 38.4177L121.741 55.8914L129.663 56.8233L126.168 38.4177Z" fill="#007FFE"/>
<path d="M136.869 52.861C136.924 52.5582 137.044 52.271 137.221 52.0196C137.398 51.7682 137.628 51.5586 137.895 51.4058C138.162 51.2529 138.459 51.1604 138.766 51.1349C139.072 51.1093 139.381 51.1512 139.669 51.2577L144.414 45.4798L145.563 49.1913L140.881 54.1091C140.67 54.582 140.293 54.961 139.821 55.1744C139.349 55.3877 138.815 55.4206 138.321 55.2668C137.826 55.1129 137.406 54.7831 137.138 54.3397C136.871 53.8963 136.775 53.3702 136.869 52.861Z" fill="#FFB8B8"/>
<path d="M143.067 52.8752L138.936 50.203L142.868 46.0405L132.208 42.7964L134.951 34.8072L138.324 35.2891L146.9 41.6414C147.991 42.4553 148.718 43.6644 148.927 45.0089C149.135 46.3534 148.808 47.7261 148.015 48.832L147.997 48.8518L143.067 52.8752Z" fill="#007FFE"/>
<path d="M128.25 23.3425C130.462 24.6923 132.955 25.5138 135.535 25.7428L134.767 24.8227C135.326 25.0295 135.915 25.1463 136.51 25.1689C137.105 25.1596 137.729 24.9305 138.066 24.4405C138.217 24.197 138.307 23.9206 138.327 23.635C138.348 23.3494 138.299 23.063 138.185 22.8002C137.951 22.2762 137.587 21.8208 137.127 21.4773C136.312 20.8326 135.351 20.3996 134.328 20.2167C133.305 20.0339 132.252 20.107 131.265 20.4295C130.587 20.632 129.98 21.0213 129.514 21.5527C129.071 22.0987 128.106 22.5897 128.332 23.255L128.25 23.3425Z" fill="#2F2E41"/>
<path d="M165.928 96H102.261C102.194 96 102.131 95.9738 102.084 95.927C102.038 95.8803 102.011 95.8169 102.011 95.7509C102.011 95.6848 102.038 95.6214 102.084 95.5747C102.131 95.528 102.194 95.5018 102.261 95.5018H165.928C165.993 95.5019 166.057 95.5283 166.103 95.575C166.15 95.6217 166.176 95.6849 166.176 95.7509C166.176 95.8168 166.15 95.8801 166.103 95.9268C166.057 95.9735 165.993 95.9998 165.928 96Z" fill="#3F3D56"/>
</g>
<defs>
<clipPath id="clip0_19_428">
<rect width="166.177" height="96" fill="white"/>
</clipPath>
</defs>
</svg>
