<svg width="169" height="96" viewBox="0 0 169 96" fill="none" xmlns="http://www.w3.org/2000/svg">
<g clip-path="url(#clip0_19_424)">
<path d="M27.6201 43.6498V16.6706C27.6201 16.2853 27.7731 15.9158 28.0456 15.6433C28.318 15.3709 28.6875 15.2178 29.0728 15.2178C29.4581 15.2178 29.8276 15.3709 30.1 15.6433C30.3725 15.9158 30.5255 16.2853 30.5255 16.6706V43.6498C30.5255 44.0351 30.3725 44.4046 30.1 44.6771C29.8276 44.9495 29.4581 45.1026 29.0728 45.1026C28.6875 45.1026 28.318 44.9495 28.0456 44.6771C27.7731 44.4046 27.6201 44.0351 27.6201 43.6498Z" fill="#E6E6E6"/>
<path d="M24.1439 43.6498V16.6706C24.1439 16.2853 24.2969 15.9158 24.5694 15.6433C24.8418 15.3709 25.2113 15.2178 25.5966 15.2178C25.9819 15.2178 26.3514 15.3709 26.6239 15.6433C26.8963 15.9158 27.0493 16.2853 27.0493 16.6706V43.6498C27.0493 44.0351 26.8963 44.4046 26.6239 44.6771C26.3514 44.9495 25.9819 45.1026 25.5966 45.1026C25.2113 45.1026 24.8418 44.9495 24.5694 44.6771C24.2969 44.4046 24.1439 44.0351 24.1439 43.6498Z" fill="#E6E6E6"/>
<path d="M20.6677 43.6498V16.6706C20.6677 16.2853 20.8208 15.9158 21.0932 15.6433C21.3657 15.3709 21.7352 15.2178 22.1205 15.2178C22.5057 15.2178 22.8752 15.3709 23.1477 15.6433C23.4201 15.9158 23.5732 16.2853 23.5732 16.6706V43.6498C23.5732 44.0351 23.4201 44.4046 23.1477 44.6771C22.8752 44.9495 22.5057 45.1026 22.1205 45.1026C21.7352 45.1026 21.3657 44.9495 21.0932 44.6771C20.8208 44.4046 20.6677 44.0351 20.6677 43.6498Z" fill="#E6E6E6"/>
<path d="M151.912 86.7411C151.327 86.7416 150.747 86.6408 150.196 86.4432L150.111 86.4126L150.15 86.2247C149.164 84.2323 149.509 81.5028 151.033 79.2584C152.418 77.2181 154.525 75.7348 156.384 74.4262C156.62 74.2602 156.9 74.1685 157.189 74.163C157.477 74.1575 157.761 74.2383 158.003 74.3952C158.245 74.5521 158.434 74.7777 158.547 75.0432C158.66 75.3087 158.691 75.6019 158.635 75.885L157.971 79.2955C157.491 81.7559 156.92 84.0846 155.228 85.5367C154.298 86.3145 153.125 86.7409 151.912 86.7411Z" fill="#CCCCCC"/>
<path d="M156.266 92.6346C155.622 92.6308 154.989 92.4662 154.425 92.1557C153.861 91.8453 153.383 91.3989 153.036 90.8569L152.987 90.782L153.102 90.6806C153.4 89.0581 154.799 87.6124 156.677 86.9906C158.384 86.4256 160.268 86.518 161.93 86.5993C162.149 86.61 162.361 86.6856 162.537 86.8166C162.714 86.9476 162.847 87.128 162.921 87.335C162.995 87.5421 163.006 87.7664 162.952 87.9795C162.898 88.1927 162.783 88.3851 162.619 88.5323L160.75 90.2198C159.391 91.4457 158.037 92.5527 156.402 92.6319C156.357 92.6337 156.311 92.6346 156.266 92.6346Z" fill="#CCCCCC"/>
<path d="M150.464 94.4384C150.188 92.3827 149.904 90.3007 150.098 88.2229C150.27 86.3777 150.82 84.5754 151.942 83.0977C152.534 82.3173 153.258 81.6465 154.081 81.1155C154.295 80.9774 154.492 81.3241 154.279 81.4616C152.852 82.388 151.754 83.742 151.143 85.33C150.46 87.1054 150.351 89.0407 150.468 90.9267C150.539 92.0672 150.69 93.2003 150.842 94.3319C150.854 94.3826 150.847 94.4361 150.822 94.4818C150.796 94.5274 150.755 94.5619 150.705 94.5784C150.68 94.5851 150.654 94.5867 150.628 94.5833C150.603 94.5799 150.578 94.5715 150.556 94.5585C150.533 94.5455 150.514 94.5282 150.498 94.5076C150.482 94.4869 150.471 94.4634 150.464 94.4384V94.4384Z" fill="#F0F0F0"/>
<path d="M149.684 95.6201C151.013 93.2166 152.554 90.5454 155.308 89.6916C156.072 89.4551 156.876 89.3703 157.673 89.4419C157.924 89.464 157.862 89.8598 157.611 89.8377C156.272 89.7252 154.936 90.0866 153.836 90.8587C152.772 91.5993 151.943 92.629 151.241 93.721C150.812 94.3898 150.427 95.087 150.042 95.7833C149.919 96.0059 149.559 95.8452 149.684 95.6201H149.684Z" fill="#F0F0F0"/>
<path d="M149.086 95.5849L150.428 95.6156L142.338 52.3994L140.996 52.6522L143.109 63.8631H136.303L138.415 52.6522L137.074 52.3994L129.052 95.6156L130.326 95.5849L134.543 73.2021H144.868L149.086 95.5849ZM134.856 71.5418L135.99 65.5234H143.422L144.556 71.5418H134.856Z" fill="#CCCCCC"/>
<path d="M90.5025 44.3382V30.146C90.5025 29.7246 91.1542 29.3818 91.9552 29.3818C92.7562 29.3818 93.4079 29.7246 93.4079 30.146V44.3382C93.4079 44.7596 92.7563 45.1024 91.9552 45.1024C91.1542 45.1024 90.5025 44.7596 90.5025 44.3382Z" fill="#E6E6E6"/>
<path d="M87.0263 44.3382V30.146C87.0263 29.7246 87.678 29.3818 88.479 29.3818C89.2801 29.3818 89.9318 29.7246 89.9318 30.146V44.3382C89.9318 44.7596 89.2801 45.1024 88.479 45.1024C87.678 45.1024 87.0263 44.7596 87.0263 44.3382Z" fill="#E6E6E6"/>
<path d="M83.5501 44.3382V30.146C83.5501 29.7246 84.2018 29.3818 85.0028 29.3818C85.8039 29.3818 86.4556 29.7246 86.4556 30.146V44.3382C86.4556 44.7596 85.8039 45.1024 85.0028 45.1024C84.2018 45.1024 83.5501 44.7596 83.5501 44.3382Z" fill="#E6E6E6"/>
<path d="M112.794 33.9013C112.788 33.8582 112.772 33.8169 112.749 33.7801C112.726 33.7433 112.695 33.7119 112.658 33.6879L101.706 26.4577C101.871 26.3888 102.009 26.2679 102.099 26.1133H102.099C102.209 25.9225 102.238 25.6961 102.181 25.4837C102.124 25.2712 101.986 25.0899 101.795 24.9794L100.897 24.4605C100.706 24.3511 100.48 24.3216 100.267 24.3786C100.055 24.4355 99.8733 24.5742 99.7628 24.7644C99.7031 24.8689 99.6672 24.9853 99.6576 25.1053L91.7519 19.8862C91.4864 19.2432 91.0839 18.6658 90.5724 18.1943C90.0609 17.7227 89.4528 17.3684 88.7903 17.1559V14.8547H85.8849V17.1559C84.9209 17.4641 84.0798 18.0707 83.483 18.888C82.8862 19.7054 82.5645 20.6912 82.5644 21.7033V22.3259H85.4698C85.4698 22.8212 85.6666 23.2963 86.0169 23.6466C86.3672 23.9969 86.8422 24.1937 87.3376 24.1937C87.833 24.1937 88.3081 23.9969 88.6583 23.6466C89.0086 23.2963 89.2054 22.8212 89.2054 22.3259H92.1109V21.7033C92.1106 21.4048 92.0825 21.107 92.0269 20.8138L112.027 34.017L103.719 44.1177C103.654 44.1174 103.59 44.1168 103.525 44.1168C102.862 44.1168 102.22 44.1325 101.608 44.1595C101.645 44.0569 101.661 43.948 101.656 43.8391C101.643 43.6194 101.545 43.4135 101.382 43.2663C101.218 43.1191 101.003 43.0425 100.783 43.0533L99.7471 43.1073C99.5275 43.1194 99.3215 43.2179 99.1743 43.3813C99.0271 43.5447 98.9505 43.7598 98.9613 43.9795C98.9689 44.1093 99.0075 44.2353 99.0738 44.3472C97.2414 44.5419 96.054 44.8104 96.054 44.9469C96.054 45.1707 99.2424 44.9577 103.233 44.9474C103.251 44.9993 103.283 45.0454 103.325 45.081C103.367 45.1165 103.418 45.1403 103.472 45.1498C103.526 45.1593 103.582 45.1542 103.634 45.1351C103.685 45.1159 103.731 45.0834 103.766 45.0409L103.842 44.9475C107.821 44.9586 110.996 45.1702 110.996 44.9469C110.996 44.7364 108.173 44.2126 104.516 44.1286L112.727 34.1454C112.755 34.1117 112.775 34.0725 112.787 34.0305C112.798 33.9884 112.801 33.9444 112.794 33.9013Z" fill="#CCCCCC"/>
<path d="M113.094 95.6888H87.5227C87.0059 95.6881 86.5105 95.4826 86.1451 95.1171C85.7797 94.7517 85.5742 94.2563 85.5736 93.7395V51.7731C85.5731 51.3113 85.3894 50.8687 85.0629 50.5422C84.7364 50.2157 84.2937 50.032 83.832 50.0315H24.0177C23.556 50.032 23.1133 50.2157 22.7868 50.5422C22.4603 50.8687 22.2767 51.3113 22.2761 51.7731V93.7395C22.2755 94.2562 22.07 94.7517 21.7046 95.1171C21.3392 95.4826 20.8437 95.6881 20.327 95.6888H19.452C18.9353 95.6881 18.4398 95.4826 18.0744 95.1171C17.709 94.7517 17.5035 94.2563 17.5029 93.7395V49.5127C17.5043 48.2747 17.9967 47.0878 18.8721 46.2124C19.7475 45.337 20.9344 44.8446 22.1724 44.8432H110.374C111.612 44.8446 112.799 45.337 113.674 46.2124C114.549 47.0878 115.042 48.2747 115.043 49.5127V93.7395C115.043 94.2563 114.837 94.7517 114.472 95.1171C114.106 95.4826 113.611 95.6881 113.094 95.6888Z" fill="#F2F2F2"/>
<path d="M114.939 55.7386H85.6774V56.9838H114.939V55.7386Z" fill="white"/>
<path d="M114.939 72.5488H85.6774V73.794H114.939V72.5488Z" fill="white"/>
<path d="M61.4549 44.6383L60.6139 44.2841L60.0369 40.0681H52.354L51.7287 44.2669L50.9762 44.6431C50.9402 44.6611 50.9114 44.6907 50.8943 44.7272C50.8773 44.7637 50.873 44.8048 50.8823 44.844C50.8915 44.8831 50.9137 44.918 50.9453 44.943C50.9768 44.968 51.0159 44.9816 51.0562 44.9816H61.3856C61.4268 44.9816 61.4668 44.9673 61.4987 44.9412C61.5306 44.9151 61.5525 44.8787 61.5607 44.8383C61.5689 44.7978 61.5628 44.7558 61.5435 44.7194C61.5242 44.6829 61.4929 44.6543 61.4549 44.6383Z" fill="#CCCCCC"/>
<path d="M75.1079 40.629H37.3673C37.1693 40.6286 36.9796 40.5496 36.8397 40.4094C36.6999 40.2693 36.6213 40.0793 36.6213 39.8813V34.5594H75.854V39.8813C75.854 40.0793 75.7754 40.2692 75.6356 40.4094C75.4957 40.5496 75.306 40.6286 75.1079 40.629Z" fill="#CCCCCC"/>
<path d="M75.8934 37.0747H36.5869V14.3033C36.5871 14.0643 36.6822 13.8352 36.8512 13.6662C37.0201 13.4973 37.2493 13.4022 37.4882 13.4019H74.992C75.231 13.4022 75.4601 13.4973 75.6291 13.6662C75.7981 13.8352 75.8931 14.0643 75.8934 14.3033V37.0747Z" fill="#3F3D56"/>
<path d="M73.5458 35.4219H38.9345C38.7503 35.4217 38.5736 35.3484 38.4434 35.2182C38.3131 35.0879 38.2398 34.9113 38.2396 34.727V15.7496C38.2398 15.5653 38.3131 15.3887 38.4434 15.2584C38.5736 15.1282 38.7503 15.0549 38.9345 15.0547H73.5458C73.73 15.0549 73.9067 15.1282 74.0369 15.2584C74.1672 15.3887 74.2405 15.5653 74.2407 15.7496V34.727C74.2405 34.9113 74.1672 35.0879 74.0369 35.2182C73.9067 35.3484 73.73 35.4217 73.5458 35.4219Z" fill="white"/>
<path d="M112.346 17.2332C112.677 17.1855 113.014 17.211 113.334 17.3079C113.655 17.4047 113.95 17.5706 114.199 17.7938C114.448 18.017 114.645 18.2921 114.776 18.5998C114.908 18.9074 114.97 19.2402 114.959 19.5745L122.547 22.4954L119.109 24.9518L112.43 21.8014C111.87 21.7454 111.349 21.4858 110.968 21.0717C110.586 20.6577 110.369 20.118 110.359 19.5549C110.348 18.9918 110.545 18.4444 110.911 18.0165C111.277 17.5887 111.788 17.3099 112.346 17.2332V17.2332Z" fill="#9E616A"/>
<path d="M141.159 15.7994L142.443 18.1335C142.133 19.6139 141.331 20.9458 140.168 21.9128C138.202 23.5705 127.925 29.7444 127.925 29.7444L114.951 23.2309L117.22 20.2148L127.406 23.6285C131.185 20.0604 135.745 17.4243 140.723 15.9303L141.159 15.7994Z" fill="#F2F2F2"/>
<path d="M138.772 54.4222C144.364 54.4222 148.898 52.945 148.898 51.1228C148.898 49.3006 144.364 47.8235 138.772 47.8235C133.18 47.8235 128.646 49.3006 128.646 51.1228C128.646 52.945 133.18 54.4222 138.772 54.4222Z" fill="#CCCCCC"/>
<path d="M116.056 92.7889L113.367 92.0458L114.954 81.3209L118.923 82.4181L116.056 92.7889Z" fill="#9E616A"/>
<path d="M116.021 95.5849L107.351 93.1883L107.382 93.0787C107.629 92.1837 108.222 91.4237 109.03 90.9658C109.837 90.5079 110.794 90.3896 111.689 90.6369L111.689 90.6369L116.984 92.1007L116.021 95.5849Z" fill="#2F2E41"/>
<path d="M108.26 92.8238L105.708 91.6969L108.84 81.3178L112.606 82.9807L108.26 92.8238Z" fill="#9E616A"/>
<path d="M107.819 95.5849L99.5902 91.9515L99.6362 91.8474C100.011 90.998 100.708 90.3324 101.574 89.997C102.44 89.6616 103.404 89.6838 104.253 90.0588L104.253 90.0589L109.279 92.2781L107.819 95.5849Z" fill="#2F2E41"/>
<path d="M146.652 43.0562C146.652 43.0562 148.005 47.2469 139.706 52.5467L129.018 63.197L117.912 89.7625L111.319 86.8066L112.612 83.3549L113.48 81.0387L113.924 79.8538L114.4 78.5835L121.458 59.7423L127.387 49.3608L127.559 43.7277L129.018 39.7568L139.598 36.0024L146.652 43.0562Z" fill="#2F2E41"/>
<path d="M141.256 43.2637C141.256 43.2637 142.609 47.4544 134.31 52.7542L123.622 63.4046L112.516 89.97L105.923 87.0141L107.216 83.5624L108.084 81.2463L108.528 80.0613L109.004 78.7911L116.062 59.9499L118.047 56.4739C120.666 51.8882 123.849 47.6483 127.521 43.8527L129.467 41.8409L129.674 38.7279L134.203 36.2099L141.256 43.2637Z" fill="#2F2E41"/>
<path d="M134.863 22.7479L138.183 15.6918L143.978 14.9014C143.978 14.9014 148.503 20.666 147.315 28.7664C146.869 31.804 146.506 34.8282 146.484 37.4827C146.479 38.1891 147.097 38.5045 147.107 39.143C147.117 39.7703 145.936 40.7921 146.277 41.2183C146.765 41.8059 147.055 42.5319 147.107 43.2937C146.696 44.2724 134.249 38.9699 129.018 39.7568L134.863 22.7479Z" fill="#F2F2F2"/>
<path d="M143.093 11.349C144.572 8.86081 143.754 5.6447 141.266 4.16562C138.778 2.68653 135.562 3.50457 134.082 5.99276C132.603 8.48094 133.421 11.6971 135.91 13.1761C138.398 14.6552 141.614 13.8372 143.093 11.349Z" fill="#9E616A"/>
<path d="M141.939 6.78901C141.929 6.92693 141.915 7.10957 141.899 7.31621C141.882 7.88188 142.042 8.43871 142.355 8.91005C142.648 9.40593 142.298 12.4009 142.298 12.4009C150.884 6.41643 144.1 0.404078 141.446 0.938535C141.502 0.177485 139.338 0.478977 139.338 0.478977C138.513 -0.805199 136.706 0.899439 136.706 0.899439L137.054 0.312757C135.651 0.669655 134.264 5.00618 134.264 5.00618C134.74 6.87702 141.994 6.02796 141.939 6.78901Z" fill="#2F2E41"/>
<path d="M108.634 25.5236C111.584 21.5994 113.916 17.2468 115.549 12.617C115.644 12.34 115.637 12.0385 115.53 11.766C115.423 11.4936 115.223 11.2679 114.966 11.1292L104.87 5.71979C104.707 5.63161 104.526 5.58187 104.34 5.57434C104.155 5.56681 103.97 5.6017 103.8 5.67635C103.627 5.75156 103.473 5.86528 103.351 6.00884C103.228 6.1524 103.14 6.32201 103.093 6.50478C101.918 10.9662 99.7092 15.0884 96.6455 18.5379C96.5194 18.6783 96.4269 18.8456 96.3753 19.0272C96.3236 19.2087 96.314 19.3996 96.3473 19.5854C96.3792 19.7682 96.4525 19.9413 96.5615 20.0916C96.6705 20.2418 96.8123 20.3652 96.9762 20.4523L107.072 25.8618C107.33 25.9995 107.629 26.041 107.915 25.9791C108.201 25.9172 108.455 25.7558 108.634 25.5236Z" fill="#CCCCCC"/>
<path d="M107.945 25.006C107.89 25.0737 107.814 25.1204 107.729 25.138C107.644 25.1556 107.556 25.1429 107.479 25.1022L97.3833 19.6927C97.3342 19.6671 97.2918 19.6306 97.2593 19.5859C97.2267 19.5412 97.205 19.4895 97.1958 19.435C97.1853 19.3775 97.1882 19.3183 97.2044 19.2621C97.2206 19.2058 97.2496 19.1541 97.2892 19.111C100.443 15.5599 102.717 11.3163 103.927 6.72334C103.941 6.66659 103.968 6.61385 104.005 6.56925C104.043 6.52465 104.091 6.4894 104.144 6.46625C104.195 6.44364 104.25 6.43306 104.305 6.43535C104.361 6.43764 104.415 6.45273 104.463 6.47944L114.559 11.8888C114.635 11.9301 114.695 11.9969 114.727 12.0775C114.76 12.1581 114.763 12.2475 114.737 12.3303C113.133 16.8773 110.842 21.152 107.945 25.006Z" fill="white"/>
<path d="M104.413 11.6188L111.376 15.7002C112.069 16.1063 112.696 15.0305 112.004 14.625L105.041 10.5436C104.348 10.1376 103.721 11.2134 104.413 11.6188V11.6188Z" fill="#007FFE"/>
<path d="M103.168 13.9017L110.131 17.9831C110.824 18.3892 111.451 17.3133 110.759 16.9079L103.796 12.8265C103.103 12.4204 102.476 13.4963 103.168 13.9017V13.9017Z" fill="#007FFE"/>
<path d="M101.715 16.3921L108.678 20.4735C109.371 20.8795 109.998 19.8037 109.307 19.3983L102.343 15.3169C101.651 14.9108 101.023 15.9867 101.715 16.3921V16.3921Z" fill="#007FFE"/>
<path d="M100.262 18.4674L107.225 22.5488C107.918 22.9549 108.545 21.879 107.854 21.4736L100.891 17.3922C100.198 16.9862 99.5704 18.062 100.262 18.4674V18.4674Z" fill="#007FFE"/>
<path d="M132.005 42.4745L134.619 48.353C134.682 48.4937 134.709 48.6479 134.698 48.8017C134.686 48.9554 134.637 49.1039 134.553 49.2336C134.455 49.3887 134.313 49.5112 134.146 49.5858C133.978 49.6603 133.792 49.6836 133.611 49.6527C133.549 49.6432 133.489 49.6271 133.431 49.6046C133.2 49.5154 133.013 49.3382 132.913 49.1119L130.299 43.2334C130.249 43.1214 130.221 43.0006 130.218 42.878C130.215 42.7554 130.236 42.6334 130.28 42.5189C130.369 42.2877 130.546 42.1013 130.772 42.0006C130.999 41.9 131.256 41.8934 131.487 41.9823C131.718 42.0711 131.905 42.2482 132.005 42.4745Z" fill="#007FFE"/>
<path d="M134.409 47.8789L134.932 49.0653L135.2 50.7473C135.218 50.8581 135.198 50.9715 135.145 51.0701C135.091 51.1687 135.007 51.2468 134.904 51.2924C134.802 51.338 134.687 51.3484 134.578 51.3221C134.469 51.2957 134.372 51.2341 134.302 51.1468L133.218 49.7984L132.702 48.6378L134.409 47.8789Z" fill="#3F3D56"/>
<path d="M129.718 40.839L130.092 43.1924C130.105 43.2695 130.134 43.3427 130.179 43.4064C130.224 43.4701 130.284 43.5226 130.352 43.5598C130.421 43.597 130.497 43.618 130.575 43.621C130.653 43.6241 130.73 43.6092 130.802 43.5775L131.173 43.4124L131.89 45.0242C131.912 45.0744 131.954 45.1136 132.005 45.1333C132.056 45.153 132.113 45.1515 132.164 45.1292C132.214 45.1068 132.253 45.0655 132.273 45.0142C132.293 44.9629 132.291 44.9058 132.269 44.8555L131.552 43.2437L131.924 43.0785C132.047 43.0237 132.143 42.9223 132.192 42.7966C132.24 42.6709 132.237 42.5311 132.183 42.4077C132.165 42.3669 132.141 42.3286 132.113 42.2938L130.616 40.4393C130.546 40.3521 130.449 40.2905 130.34 40.2642C130.231 40.238 130.116 40.2484 130.013 40.294C129.911 40.3395 129.826 40.4177 129.773 40.5162C129.719 40.6148 129.7 40.7282 129.718 40.839Z" fill="#3F3D56"/>
<path d="M130.802 45.0868C130.861 44.7576 130.991 44.4452 131.184 44.1718C131.377 43.8983 131.627 43.6705 131.917 43.5042C132.208 43.338 132.531 43.2374 132.864 43.2096C133.198 43.1818 133.533 43.2274 133.847 43.3432L139.007 37.0595L140.257 41.0959L135.165 46.4442C134.935 46.9585 134.525 47.3707 134.012 47.6028C133.499 47.8348 132.918 47.8706 132.381 47.7033C131.843 47.536 131.385 47.1772 131.094 46.695C130.803 46.2128 130.699 45.6406 130.802 45.0868Z" fill="#9E616A"/>
<path d="M137.299 44.6785L135.026 41.3955L141.48 32.7901L138.155 25.6655L138.397 17.1908L141.145 16.6833L141.179 16.7004C142.515 17.4693 143.547 18.672 144.105 20.1087C144.79 21.8221 146.32 28.2544 147.171 31.936C147.339 32.6495 147.32 33.3938 147.118 34.0982C146.916 34.8026 146.537 35.4435 146.017 35.9599L137.299 44.6785Z" fill="#F2F2F2"/>
<path d="M73.3035 28.815C73.2846 28.9745 73.2783 29.1352 73.2846 29.2956L61.6477 37.7617L58.4507 36.3468L55.6849 40.8925L61.101 43.9472C61.5386 44.194 62.0444 44.2922 62.5425 44.2271C63.0406 44.1619 63.5041 43.9369 63.8635 43.5859L75.5757 32.146C76.1752 32.2984 76.8069 32.2646 77.3867 32.0491C77.9665 31.8337 78.467 31.4468 78.8216 30.94C79.1762 30.4332 79.3681 29.8304 79.3718 29.2119C79.3754 28.5933 79.1907 27.9884 78.8421 27.4774C78.4936 26.9664 77.9977 26.5736 77.4205 26.3513C76.8432 26.129 76.212 26.0878 75.6107 26.233C75.0095 26.3782 74.4667 26.703 74.0545 27.1642C73.6424 27.6255 73.3804 28.2013 73.3035 28.815V28.815Z" fill="#FFB6B6"/>
<path d="M61.2713 38.0712L57.8778 43.726C57.7812 43.8869 57.6511 44.0251 57.4963 44.1312C57.3416 44.2373 57.1657 44.3087 56.9808 44.3407C56.7959 44.3727 56.6063 44.3645 56.4249 44.3166C56.2435 44.2688 56.0745 44.1823 55.9295 44.0632L50.8484 39.8903C50.0282 39.3915 49.4392 38.5879 49.2106 37.6556C48.9819 36.7232 49.1323 35.7383 49.6286 34.9166C50.125 34.095 50.9269 33.5037 51.8586 33.2723C52.7902 33.0409 53.7756 33.1883 54.5987 33.6823L60.6523 36.1933C60.8256 36.2652 60.9814 36.3737 61.109 36.5112C61.2366 36.6488 61.3331 36.8123 61.3918 36.9905C61.4506 37.1687 61.4702 37.3575 61.4494 37.544C61.4286 37.7305 61.3679 37.9103 61.2713 38.0712L61.2713 38.0712Z" fill="#007FFE"/>
<path d="M46.731 87.2225H53.3829V76.1993H46.731V87.2225Z" fill="#CCCCCC"/>
<path d="M53.0496 82.0321L52.1958 83.2903L68.1605 94.1234L69.0142 92.8652L53.0496 82.0321Z" fill="#CCCCCC"/>
<path d="M47.0643 82.0321L31.0997 92.8652L31.9535 94.1234L47.9181 83.2903L47.0643 82.0321Z" fill="#CCCCCC"/>
<path d="M68.5874 95.5849C69.742 95.5849 70.678 94.6489 70.678 93.4943C70.678 92.3397 69.742 91.4037 68.5874 91.4037C67.4328 91.4037 66.4968 92.3397 66.4968 93.4943C66.4968 94.6489 67.4328 95.5849 68.5874 95.5849Z" fill="#CCCCCC"/>
<path d="M49.9619 95.5849C51.1166 95.5849 52.0526 94.6489 52.0526 93.4943C52.0526 92.3397 51.1166 91.4037 49.9619 91.4037C48.8073 91.4037 47.8713 92.3397 47.8713 93.4943C47.8713 94.6489 48.8073 95.5849 49.9619 95.5849Z" fill="#CCCCCC"/>
<path d="M31.5266 95.5849C32.6812 95.5849 33.6172 94.6489 33.6172 93.4943C33.6172 92.3397 32.6812 91.4037 31.5266 91.4037C30.372 91.4037 29.436 92.3397 29.436 93.4943C29.436 94.6489 30.372 95.5849 31.5266 95.5849Z" fill="#CCCCCC"/>
<path d="M50.7222 82.6612H49.2017V93.4943H50.7222V82.6612Z" fill="#CCCCCC"/>
<path d="M48.6316 81.1407H51.4824V66.5065H48.6316V81.1407Z" fill="#CCCCCC"/>
<path d="M41.8846 68.7871V65.3661C41.8853 64.7363 42.1358 64.1324 42.5812 63.6871C43.0266 63.2417 43.6304 62.9912 44.2603 62.9904H56.994C57.6238 62.9912 58.2277 63.2417 58.6731 63.6871C59.1184 64.1324 59.3689 64.7363 59.3697 65.3661V68.7871C59.3689 69.417 59.1184 70.0209 58.6731 70.4662C58.2277 70.9116 57.6238 71.1621 56.994 71.1628H44.2603C43.6304 71.1621 43.0266 70.9116 42.5812 70.4662C42.1358 70.0209 41.8853 69.417 41.8846 68.7871Z" fill="#3F3D56"/>
<path d="M64.8833 92.1713L68.4047 92.1711L70.0803 83.0374L64.8828 83.0376L64.8833 92.1713Z" fill="#FFB8B8"/>
<path d="M63.9852 95.5849L75.3403 95.5845V95.4409C75.3403 94.8605 75.226 94.2858 75.0039 93.7495C74.7818 93.2133 74.4563 92.7261 74.0459 92.3157C73.6355 91.9053 73.1482 91.5797 72.612 91.3576C72.0758 91.1355 71.5011 91.0212 70.9207 91.0212H70.9203L63.9849 91.0215L63.9852 95.5849Z" fill="#2F2E41"/>
<path d="M70.1505 86.5073L77.1711 70.7638C77.7573 69.4369 77.8221 67.9378 77.3527 66.5653C76.8832 65.1927 75.914 64.0473 74.638 63.3573L59.4099 55.1914L52.4609 54.6003L46.051 54.0177L46.0048 54.096C45.9457 54.1958 44.5675 56.5763 45.4991 59.1865C46.2058 61.1664 48.0438 62.7129 50.9623 63.7831C57.7742 66.2808 65.6434 68.4156 68.7104 69.2173C68.846 69.252 68.9727 69.315 69.0821 69.4021C69.1916 69.4892 69.2814 69.5985 69.3456 69.7228C69.41 69.8457 69.4482 69.9805 69.4579 70.1189C69.4676 70.2573 69.4486 70.3961 69.402 70.5268L62.8795 85.1808C62.8114 85.3666 62.7869 85.5656 62.8078 85.7625C62.8288 85.9593 62.8947 86.1487 63.0004 86.316C63.1061 86.4834 63.2489 86.6242 63.4176 86.7276C63.5864 86.8311 63.7767 86.8944 63.9738 86.9127L68.8474 87.2675C68.8888 87.2715 68.93 87.2734 68.971 87.2734C69.2206 87.2733 69.4648 87.2009 69.6741 87.065C69.8835 86.929 70.0489 86.7353 70.1505 86.5073Z" fill="#2F2E41"/>
<path d="M62.5853 92.1713L66.1067 92.1711L67.7823 83.0374L62.5848 83.0376L62.5853 92.1713Z" fill="#FFB8B8"/>
<path d="M61.6871 95.5849L73.0423 95.5845V95.4409C73.0423 94.8605 72.928 94.2858 72.7059 93.7495C72.4838 93.2133 72.1582 92.7261 71.7478 92.3157C71.3374 91.9053 70.8502 91.5797 70.314 91.3576C69.7778 91.1355 69.2031 91.0212 68.6227 91.0212H68.6222L61.6869 91.0215L61.6871 95.5849Z" fill="#2F2E41"/>
<path d="M67.5652 87.3691L74.5859 71.6255C75.172 70.2986 75.2368 68.7996 74.7674 67.427C74.298 66.0544 73.3287 64.9091 72.0527 64.219L56.8246 56.0531L49.8757 55.4621L44.8551 55.0266L44.8558 54.9577C44.7967 55.0576 43.4185 57.438 44.3501 60.0483C45.0567 62.0282 45.4586 63.5747 48.377 64.6448C55.189 67.1426 63.0581 69.2773 66.1252 70.0791C66.2607 70.1137 66.3874 70.1767 66.4969 70.2638C66.6063 70.3509 66.6961 70.4602 66.7603 70.5846C66.8247 70.7074 66.863 70.8423 66.8727 70.9806C66.8824 71.119 66.8633 71.2579 66.8167 71.3885L60.2943 86.0425C60.2261 86.2284 60.2016 86.4274 60.2226 86.6242C60.2435 86.821 60.3094 87.0104 60.4151 87.1778C60.5209 87.3451 60.6636 87.4859 60.8324 87.5894C61.0011 87.6928 61.1914 87.7561 61.3885 87.7744L66.2621 88.1293C66.3035 88.1332 66.3447 88.1352 66.3857 88.1352C66.6353 88.1351 66.8795 88.0627 67.0889 87.9267C67.2982 87.7908 67.4636 87.5971 67.5652 87.3691Z" fill="#2F2E41"/>
<path d="M63.1613 19.5576C64.0628 15.7669 61.7206 11.9631 57.9299 11.0616C54.1391 10.1601 50.3353 12.5023 49.4338 16.293C48.5323 20.0838 50.8745 23.8876 54.6653 24.7891C58.456 25.6906 62.2598 23.3484 63.1613 19.5576Z" fill="#FFB8B8"/>
<path d="M80.6167 45.0317C83.5669 41.1075 85.8991 36.7549 87.5324 32.125C87.627 31.8481 87.6203 31.5466 87.5134 31.2741C87.4065 31.0017 87.2064 30.776 86.9488 30.6373L76.8533 25.2279C76.6899 25.1397 76.5087 25.09 76.3232 25.0824C76.1377 25.0749 75.953 25.1098 75.7831 25.1844C75.61 25.2596 75.4563 25.3734 75.3338 25.5169C75.2113 25.6605 75.1232 25.8301 75.0761 26.0129C73.901 30.4743 71.6923 34.5965 68.6286 38.046C68.5024 38.1864 68.41 38.3537 68.3583 38.5352C68.3066 38.7168 68.2971 38.9077 68.3303 39.0935C68.3623 39.2763 68.4355 39.4494 68.5445 39.5997C68.6535 39.7499 68.7953 39.8733 68.9592 39.9604L79.0547 45.3698C79.313 45.5075 79.6117 45.5491 79.8977 45.4872C80.1838 45.4253 80.4386 45.2639 80.6167 45.0317Z" fill="#CCCCCC"/>
<path d="M79.9278 44.514C79.8735 44.5818 79.7972 44.6285 79.7122 44.6461C79.6271 44.6637 79.5386 44.651 79.4619 44.6103L69.3663 39.2008C69.3173 39.1752 69.2748 39.1387 69.2423 39.094C69.2098 39.0492 69.1881 38.9976 69.1788 38.9431C69.1683 38.8856 69.1713 38.8264 69.1875 38.7701C69.2037 38.7139 69.2327 38.6622 69.2722 38.6191C72.4262 35.068 74.7001 30.8244 75.9097 26.2314C75.9237 26.1747 75.9506 26.1219 75.9884 26.0773C76.0262 26.0327 76.0738 25.9975 76.1274 25.9743C76.178 25.9517 76.2331 25.9411 76.2885 25.9434C76.3438 25.9457 76.3979 25.9608 76.4464 25.9875L86.5417 31.3969C86.6182 31.4382 86.6778 31.5049 86.7103 31.5856C86.7428 31.6662 86.7461 31.7556 86.7197 31.8384C85.1157 36.3854 82.8252 40.6601 79.9278 44.514Z" fill="white"/>
<path d="M76.3959 31.1269L83.359 35.2083C84.0518 35.6144 84.6792 34.5385 83.9875 34.1331L77.0243 30.0517C76.3315 29.6457 75.7042 30.7215 76.3959 31.1269V31.1269Z" fill="#CCCCCC"/>
<path d="M75.1506 33.4098L82.1138 37.4912C82.8066 37.8972 83.434 36.8214 82.7423 36.416L75.7791 32.3346C75.0863 31.9285 74.4589 33.0043 75.1506 33.4098V33.4098Z" fill="#CCCCCC"/>
<path d="M74.1723 35.6838L80.505 39.4432C81.1351 39.8172 81.8089 39.0439 81.1799 38.6704L74.8472 34.9111C74.2171 34.537 73.5433 35.3103 74.1723 35.6838Z" fill="#CCCCCC"/>
<path d="M72.2452 37.9755L79.2084 42.0569C79.9012 42.463 80.5285 41.3871 79.8368 40.9817L72.8737 36.9003C72.1809 36.4942 71.5535 37.5701 72.2452 37.9755V37.9755Z" fill="#CCCCCC"/>
<path d="M60.3655 55.7629L46.4039 55.6794L46.4001 55.5801C46.1339 48.575 46.99 42.2295 49.0174 36.181C49.0461 35.9546 49.0771 35.7126 49.1075 35.4751C49.4538 32.7691 49.7288 30.6206 52.302 29.8205C52.0876 29.5354 51.9612 29.1939 51.9384 28.8379C51.9222 28.6014 51.9532 28.3639 52.0296 28.1395C52.106 27.915 52.2264 27.708 52.3836 27.5305C52.534 27.3591 52.717 27.2193 52.922 27.1193C53.1269 27.0193 53.3497 26.9611 53.5774 26.948L58.5469 26.7788C58.808 26.777 59.0622 26.8632 59.2684 27.0234C59.6467 27.3045 59.9126 27.711 60.0185 28.1703C60.1243 28.6296 60.0632 29.1115 59.8461 29.5298C59.7876 29.6464 59.7652 29.6995 59.7566 29.7226C59.9333 30.6482 60.4575 31.7476 61.0121 32.9112C61.8064 34.5771 62.7066 36.4652 62.938 38.4852C63.0631 39.5758 63.0111 40.6795 62.7842 41.7536C62.6806 42.3324 62.6568 42.9226 62.7133 43.5079C62.7587 44.3757 62.8015 45.1951 62.311 45.9875C62.186 46.2024 62.0429 46.4314 61.875 46.6851L61.185 48.3346L60.3655 55.7629Z" fill="#007FFE"/>
<path d="M39.4139 65.5659V37.0382C39.4149 36.1086 39.7847 35.2173 40.442 34.56C41.0993 33.9027 41.9906 33.5329 42.9202 33.5319H43.8899C44.8195 33.5329 45.7108 33.9027 46.3681 34.56C47.0254 35.2173 47.3952 36.1086 47.3962 37.0382V65.5659C47.3952 66.4955 47.0254 67.3868 46.3681 68.0441C45.7108 68.7014 44.8195 69.0712 43.8899 69.0722H42.9202C41.9906 69.0712 41.0993 68.7014 40.442 68.0441C39.7847 67.3868 39.4149 66.4955 39.4139 65.5659Z" fill="#3F3D56"/>
<path d="M76.8536 39.8855C76.7534 40.0109 76.6632 40.1441 76.584 40.2837L62.2314 41.3317L60.263 38.4425L55.5144 40.8433L58.5021 46.2967C58.7435 46.7373 59.1213 47.0877 59.5787 47.2953C60.0361 47.5029 60.5486 47.5565 61.0391 47.448L77.0253 43.914C77.454 44.3598 78.0084 44.6645 78.6145 44.7876C79.2207 44.9107 79.85 44.8463 80.4187 44.6031C80.9874 44.3598 81.4686 43.9491 81.7982 43.4257C82.1278 42.9023 82.2902 42.2909 82.2639 41.6729C82.2376 41.0549 82.0237 40.4596 81.6508 39.9661C81.2779 39.4726 80.7636 39.1044 80.1762 38.9103C79.5889 38.7163 78.9564 38.7056 78.3629 38.8798C77.7694 39.054 77.243 39.4048 76.8536 39.8855Z" fill="#FFB6B6"/>
<path d="M61.7485 41.3959L55.8812 44.4075C55.7143 44.4932 55.5309 44.5419 55.3434 44.5503C55.156 44.5587 54.9689 44.5265 54.795 44.4561C54.621 44.3857 54.4643 44.2786 54.3355 44.1422C54.2067 44.0058 54.1088 43.8432 54.0485 43.6655L51.9356 37.4392C51.5024 36.5844 51.4253 35.5929 51.7212 34.6815C52.0171 33.77 52.6619 33.0128 53.5145 32.5755C50.9137 33.9105 56.3305 30.1185 58.3978 34.1461L62.214 39.4742C62.3232 39.6268 62.3982 39.8011 62.434 39.9853C62.4698 40.1695 62.4654 40.3593 62.4212 40.5416C62.3771 40.724 62.2941 40.8947 62.178 41.0421C62.0619 41.1895 61.9154 41.3102 61.7485 41.3959H61.7485Z" fill="#007FFE"/>
<path d="M53.1104 24.7874C52.6858 24.7874 52.2172 24.5827 51.689 24.168C50.1345 22.9474 49.0234 21.2506 48.5261 19.3377C48.0288 17.4249 48.1728 15.4017 48.936 13.5786C49.3201 12.6611 50.0384 11.4141 51.2795 10.6833C52.1717 10.1581 53.2197 9.96845 54.132 9.83185C54.9218 9.71349 55.7215 9.61925 56.5089 9.55217C57.4497 9.47171 58.5365 9.41739 59.5277 9.79394C60.2539 10.07 60.872 10.5574 61.4698 11.0288C61.6782 11.193 61.8936 11.363 62.1094 11.5203C62.6323 11.9282 63.2353 12.2211 63.8792 12.3798C64.015 12.408 64.1433 12.465 64.2552 12.547C64.3672 12.6289 64.4602 12.734 64.528 12.855C64.5972 12.9781 64.6392 13.1145 64.6512 13.2552C64.6631 13.3958 64.6448 13.5374 64.5973 13.6704C64.5041 13.9318 64.4199 14.1675 64.5901 14.4229C64.6532 14.5129 64.7374 14.586 64.8353 14.6359C64.9332 14.6858 65.0419 14.7109 65.1517 14.7091C65.2097 14.7081 65.267 14.7217 65.3184 14.7485C65.3698 14.7753 65.4137 14.8146 65.4461 14.8627C65.479 14.9104 65.4997 14.9654 65.5064 15.0229C65.5131 15.0804 65.5056 15.1387 65.4846 15.1926L65.4573 15.263C65.5303 15.2698 65.6006 15.2942 65.6621 15.3342C65.7236 15.3742 65.7744 15.4286 65.8103 15.4926C65.8635 15.5837 65.8841 15.6903 65.8686 15.7948C65.8531 15.8992 65.8025 15.9952 65.725 16.0669C65.0954 16.6662 64.3105 17.077 63.4592 17.2528C62.8767 17.367 62.2774 17.3657 61.6954 17.2487L61.6017 17.2305L61.6132 17.1267C59.259 16.287 57.1339 17.712 55.9224 19.3411L55.7474 19.2306C55.7774 19.1699 55.7949 19.1037 55.7987 19.0361C55.8025 18.9684 55.7926 18.9007 55.7696 18.837C55.7452 18.7606 55.706 18.6897 55.6542 18.6284C55.6023 18.5671 55.5389 18.5167 55.4676 18.4799C55.3233 18.4204 55.1646 18.4049 55.0115 18.4355C54.8585 18.466 54.7179 18.5412 54.6075 18.6516C54.4951 18.7694 54.4084 18.9093 54.3531 19.0625C54.2977 19.2156 54.2748 19.3786 54.2859 19.5411C54.3177 19.8854 54.4055 20.2223 54.5456 20.5384C54.6026 20.6896 54.6615 20.8461 54.7094 21.0038C54.9775 21.8995 54.906 22.8626 54.5086 23.709C54.3252 24.0951 53.9936 24.5873 53.4552 24.7399C53.343 24.7716 53.227 24.7876 53.1104 24.7874Z" fill="#2F2E41"/>
<path d="M167.787 96H0.247093C0.181681 95.9998 0.119013 95.9737 0.0728266 95.9274C0.0266398 95.8811 0.000701904 95.8183 0.000701904 95.7529C0.000701904 95.6875 0.0266398 95.6247 0.0728266 95.5784C0.119013 95.5321 0.181681 95.506 0.247093 95.5058H167.787C167.853 95.5058 167.915 95.5318 167.962 95.5782C168.008 95.6245 168.034 95.6874 168.034 95.7529C168.034 95.8184 168.008 95.8813 167.962 95.9276C167.915 95.974 167.853 96 167.787 96Z" fill="#CCCCCC"/>
</g>
<defs>
<clipPath id="clip0_19_424">
<rect width="168.034" height="96" fill="white"/>
</clipPath>
</defs>
</svg>
