<svg width="125" height="96" viewBox="0 0 125 96" fill="none" xmlns="http://www.w3.org/2000/svg">
<g clip-path="url(#clip0_19_426)">
<path d="M90.143 62.4875L74.0397 54.185C73.7969 54.0595 73.6138 53.8428 73.5306 53.5825C73.4473 53.3221 73.4708 53.0394 73.5958 52.7963L74.5919 50.8642C74.7174 50.6214 74.9341 50.4383 75.1945 50.3551C75.4549 50.2719 75.7376 50.2953 75.9807 50.4203L92.084 58.7228C92.3269 58.8483 92.51 59.065 92.5932 59.3254C92.6764 59.5857 92.6529 59.8684 92.528 60.1115L91.5318 62.0436C91.47 62.1641 91.3849 62.2711 91.2815 62.3585C91.1781 62.4459 91.0583 62.5119 90.9292 62.5527C90.8272 62.5855 90.7206 62.6023 90.6135 62.6024C90.4497 62.6022 90.2884 62.5628 90.143 62.4875Z" fill="#007FFE"/>
<path d="M85.2335 54.7209C85.3606 54.6713 85.4964 54.6476 85.6328 54.6512C85.7692 54.6548 85.9035 54.6855 86.0279 54.7416L91.3052 57.6596C91.8827 57.9786 92.3156 58.5073 92.5144 59.1364C92.7132 59.7655 92.6628 60.4469 92.3734 61.0399L92.3073 61.0077L92.3735 61.04C92.0971 61.6066 91.6224 62.0522 91.0394 62.2922C90.4565 62.5322 89.8057 62.55 89.2104 62.3422L83.4872 60.3419C83.3633 60.2871 83.2514 60.2085 83.1578 60.1105C83.0643 60.0125 82.991 59.8971 82.9421 59.7707C82.8932 59.6444 82.8697 59.5096 82.873 59.3742C82.8762 59.2388 82.9061 59.1053 82.961 58.9814L84.6626 55.2654C84.6922 55.1982 84.7289 55.1343 84.772 55.0748C84.8884 54.9147 85.0487 54.7918 85.2335 54.7209Z" fill="#2F2E41"/>
<path d="M97.3758 53.8294C101.729 53.8294 105.258 50.3004 105.258 45.947C105.258 41.5937 101.729 38.0647 97.3758 38.0647C93.0225 38.0647 89.4934 41.5937 89.4934 45.947C89.4934 50.3004 93.0225 53.8294 97.3758 53.8294Z" fill="#007FFE"/>
<path d="M96.4086 94.969V76.8514C96.4089 76.5781 96.5176 76.316 96.7109 76.1227C96.9041 75.9295 97.1662 75.8207 97.4395 75.8204H99.6133C99.8866 75.8207 100.149 75.9295 100.342 76.1227C100.535 76.316 100.644 76.5781 100.644 76.8514V94.969C100.644 95.2424 100.535 95.5044 100.342 95.6977C100.149 95.891 99.8866 95.9997 99.6133 96H97.4395C97.1662 95.9997 96.9041 95.891 96.7109 95.6977C96.5176 95.5044 96.4089 95.2424 96.4086 94.969Z" fill="#007FFE"/>
<path d="M91.6956 94.969V76.8514C91.6959 76.5781 91.8046 76.316 91.9979 76.1227C92.1911 75.9295 92.4532 75.8207 92.7265 75.8204H94.9003C95.1736 75.8207 95.4357 75.9295 95.629 76.1227C95.8222 76.316 95.931 76.5781 95.9313 76.8514V94.969C95.931 95.2424 95.8222 95.5044 95.629 95.6977C95.4357 95.891 95.1736 95.9997 94.9003 96H92.7265C92.4532 95.9997 92.1911 95.891 91.9979 95.6977C91.8046 95.5044 91.6959 95.2424 91.6956 94.969Z" fill="#007FFE"/>
<path d="M97.5414 48.8685L97.5496 48.574C97.0016 48.5587 96.5185 48.5243 96.1555 48.2591C96.0526 48.1796 95.968 48.0789 95.9074 47.9639C95.8469 47.8488 95.8119 47.722 95.8047 47.5922C95.7984 47.5128 95.8104 47.4331 95.8398 47.3592C95.8693 47.2852 95.9154 47.2191 95.9745 47.1659C96.2155 46.9623 96.6033 47.0282 96.8859 47.1578L97.1296 47.2696L96.6623 43.854L96.3704 43.894L96.768 46.7994C96.3839 46.6865 96.0281 46.7351 95.7844 46.9409C95.6908 47.0226 95.6174 47.1248 95.5699 47.2396C95.5223 47.3544 95.502 47.4786 95.5104 47.6025C95.519 47.777 95.5656 47.9474 95.6471 48.1019C95.7285 48.2565 95.8427 48.3913 95.9817 48.497C96.4482 48.8379 97.0543 48.8549 97.5414 48.8685Z" fill="#2F2E41"/>
<path d="M94.9271 44.1446H93.3407V44.4391H94.9271V44.1446Z" fill="#2F2E41"/>
<path d="M99.9347 44.1446H98.3483V44.4391H99.9347V44.1446Z" fill="#2F2E41"/>
<path d="M104.919 79.8494L102.192 61.938C102.152 61.6678 102.22 61.3923 102.382 61.1722C102.544 60.952 102.786 60.8051 103.057 60.7637L105.206 60.4366C105.476 60.3958 105.751 60.4638 105.971 60.6258C106.192 60.7878 106.338 61.0305 106.38 61.3007L109.106 79.212C109.147 79.4823 109.079 79.7577 108.917 79.9779C108.755 80.198 108.512 80.3449 108.242 80.3864L106.093 80.7134C105.959 80.7339 105.823 80.7278 105.691 80.6955C105.56 80.6631 105.436 80.6052 105.327 80.5249C105.218 80.4447 105.125 80.3437 105.055 80.2278C104.985 80.1119 104.939 79.9833 104.919 79.8494V79.8494Z" fill="#007FFE"/>
<path d="M102.812 68.353C102.697 68.2792 102.598 68.1832 102.521 68.0708C102.443 67.9583 102.389 67.8315 102.362 67.6979L101.623 61.7131C101.541 61.0584 101.715 60.3975 102.107 59.867C102.499 59.3365 103.081 58.9769 103.73 58.8627L103.743 58.9351L103.73 58.8626C104.351 58.7533 104.991 58.8757 105.527 59.2064C106.064 59.5371 106.461 60.0533 106.643 60.6571L108.386 66.4636C108.415 66.596 108.417 66.7328 108.393 66.8661C108.368 66.9993 108.318 67.1265 108.244 67.2403C108.171 67.3541 108.076 67.4522 107.964 67.5292C107.853 67.6061 107.727 67.6604 107.595 67.6888L103.588 68.495C103.516 68.5105 103.443 68.5184 103.369 68.5184C103.171 68.5183 102.978 68.4608 102.812 68.353Z" fill="#2F2E41"/>
<path d="M103.023 81.2993H81.9588C81.7451 81.2993 81.535 81.2446 81.3485 81.1405C81.162 81.0363 81.0052 80.8862 80.8931 80.7043C80.781 80.5225 80.7173 80.315 80.708 80.1015C80.6988 79.8881 80.7443 79.6758 80.8403 79.485L91.0246 59.2321C91.7323 57.8248 92.8939 56.6975 94.3217 56.0323C95.7495 55.3672 97.36 55.2032 98.8926 55.5668C100.425 55.9305 101.79 56.8005 102.767 58.0362C103.744 59.2718 104.275 60.8009 104.275 62.376V80.0474C104.275 80.3793 104.143 80.6975 103.908 80.9322C103.673 81.1669 103.355 81.2989 103.023 81.2993Z" fill="#2F2E41"/>
<path d="M97.655 39.4439C96.0414 39.8042 94.6805 40.8559 93.058 41.1829C92.3187 41.3319 91.5045 41.3258 90.8255 40.9619C90.3227 40.6888 89.9381 40.24 89.7452 39.7013C89.5545 39.1502 89.5054 38.5601 89.6024 37.9852C89.6993 37.4102 89.9393 36.8688 90.3001 36.4108C91.2108 35.2959 92.6629 34.7822 94.056 34.6374C96.8441 34.3477 99.7079 35.2664 101.977 36.8668C104.32 38.5193 106.118 41.0006 106.721 43.8246C107.043 45.3342 107.011 46.94 106.461 48.3937C105.932 49.7847 104.89 50.9201 103.549 51.5668C103.23 51.7212 102.896 51.8454 102.553 51.9378C102.498 51.955 102.452 51.9927 102.425 52.043C102.398 52.0933 102.391 52.1523 102.406 52.2076C102.421 52.2629 102.457 52.31 102.507 52.3392C102.556 52.3684 102.615 52.3772 102.67 52.3639C104.178 51.9523 105.478 50.9948 106.318 49.6777C107.181 48.2969 107.471 46.6065 107.338 45.0001C107.081 41.8926 105.372 39.0364 102.983 37.0811C100.688 35.2026 97.7193 34.0597 94.7343 34.1505C93.2373 34.196 91.6833 34.576 90.5192 35.5625C90.0176 35.9868 89.6292 36.529 89.3891 37.1405C89.1489 37.752 89.0645 38.4137 89.1434 39.0659C89.2103 39.6761 89.4525 40.2538 89.8408 40.7293C90.3157 41.2658 90.9737 41.6056 91.686 41.6822C93.4511 41.912 94.9816 40.9115 96.5413 40.2684C96.9395 40.1006 97.3514 39.9673 97.7725 39.87C98.0499 39.8081 97.9325 39.382 97.655 39.4439Z" fill="#2F2E41"/>
<path d="M102.088 36.3213C101.455 33.949 103.109 31.4799 105.356 30.7391C106.645 30.3376 108.028 30.353 109.309 30.7832C110.557 31.2055 111.678 31.9372 112.566 32.91C114.536 35.0056 115.409 37.8339 115.817 40.6225C116.239 43.5017 116.001 46.6552 117.474 49.2716C118.085 50.3564 118.991 51.3062 120.163 51.7733C121.256 52.2091 122.565 52.2111 123.612 51.6447C123.864 51.5068 124.097 51.3366 124.305 51.1385C124.512 50.943 124.199 50.6309 123.993 50.8261C123.116 51.6534 121.809 51.8094 120.682 51.4848C119.453 51.1307 118.507 50.1861 117.884 49.0983C117.163 47.8404 116.863 46.4027 116.699 44.9761C116.52 43.4188 116.451 41.8531 116.213 40.3021C115.782 37.5048 114.852 34.6968 112.879 32.5976C111.976 31.6172 110.851 30.8685 109.598 30.4148C108.308 29.9529 106.91 29.8823 105.581 30.2119C104.372 30.525 103.306 31.2416 102.56 32.2429C101.835 33.1933 101.467 34.3679 101.519 35.562C101.538 35.8583 101.586 36.1519 101.662 36.4387C101.68 36.4934 101.717 36.5393 101.768 36.5668C101.818 36.5942 101.877 36.601 101.932 36.5858C101.987 36.5705 102.035 36.5345 102.064 36.4851C102.093 36.4358 102.102 36.377 102.088 36.3213L102.088 36.3213Z" fill="#2F2E41"/>
<path d="M15.3555 56.4088H2.50378C1.83997 56.408 1.20355 56.144 0.734166 55.6746C0.264778 55.2052 0.000747286 54.5688 0 53.905V2.50378C0.000747286 1.83997 0.264778 1.20356 0.734166 0.734167C1.20355 0.264779 1.83997 0.000747286 2.50378 0H37.3625L43.7426 5.69658V16.0537H43.448V5.82847L37.2501 0.294563H2.50378C1.91806 0.295225 1.35652 0.528195 0.942359 0.94236C0.528194 1.35653 0.295225 1.91807 0.294563 2.50378V53.905C0.295225 54.4907 0.528194 55.0522 0.942359 55.4664C1.35652 55.8806 1.91806 56.1135 2.50378 56.1142H15.3555V56.4088Z" fill="#CCCCCC"/>
<path d="M43.5953 5.89126H39.6187C38.9549 5.89051 38.3185 5.62648 37.8491 5.15709C37.3797 4.6877 37.1156 4.05129 37.1149 3.38747V0.147281C37.1149 0.10822 37.1304 0.0707582 37.158 0.0431376C37.1857 0.015517 37.2231 0 37.2622 0C37.3012 0 37.3387 0.015517 37.3663 0.0431376C37.3939 0.0707582 37.4095 0.10822 37.4095 0.147281V3.38747C37.4101 3.97319 37.6431 4.53473 38.0573 4.94889C38.4714 5.36306 39.033 5.59603 39.6187 5.59669H43.5953C43.6343 5.59669 43.6718 5.61221 43.6994 5.63983C43.727 5.66745 43.7426 5.70491 43.7426 5.74397C43.7426 5.78304 43.727 5.8205 43.6994 5.84812C43.6718 5.87574 43.6343 5.89126 43.5953 5.89126Z" fill="#CCCCCC"/>
<path d="M38.6672 13.329H5.08709C4.7746 13.329 4.47491 13.4531 4.25394 13.6741C4.03298 13.895 3.90884 14.1947 3.90884 14.5072C3.90884 14.8197 4.03298 15.1194 4.25394 15.3404C4.47491 15.5613 4.7746 15.6855 5.08709 15.6855H38.6672C38.9797 15.6855 39.2794 15.5613 39.5004 15.3404C39.7214 15.1194 39.8455 14.8197 39.8455 14.5072C39.8455 14.1947 39.7214 13.895 39.5004 13.6741C39.2794 13.4531 38.9797 13.329 38.6672 13.329Z" fill="#CCCCCC"/>
<path d="M21.7299 8.3214H5.08709C4.7746 8.3214 4.47491 8.44553 4.25394 8.6665C4.03298 8.88746 3.90884 9.18716 3.90884 9.49965C3.90884 9.81214 4.03298 10.1118 4.25394 10.3328C4.47491 10.5538 4.7746 10.6779 5.08709 10.6779H21.7299C22.0424 10.6779 22.3421 10.5538 22.563 10.3328C22.784 10.1118 22.9081 9.81214 22.9081 9.49965C22.9081 9.18716 22.784 8.88746 22.563 8.6665C22.3421 8.44553 22.0424 8.3214 21.7299 8.3214Z" fill="#CCCCCC"/>
<path d="M5.08709 23.1968C4.7746 23.1968 4.47491 23.3209 4.25394 23.5419C4.03298 23.7629 3.90884 24.0626 3.90884 24.3751C3.90884 24.6876 4.03298 24.9872 4.25394 25.2082C4.47491 25.4292 4.7746 25.5533 5.08709 25.5533H15.6118V23.1968H5.08709Z" fill="#CCCCCC"/>
<path d="M5.08709 18.1892C4.93236 18.1892 4.77915 18.2197 4.6362 18.2789C4.49325 18.3381 4.36336 18.4249 4.25394 18.5343C4.14453 18.6438 4.05775 18.7736 3.99853 18.9166C3.93932 19.0596 3.90884 19.2128 3.90884 19.3675C3.90884 19.5222 3.93932 19.6754 3.99853 19.8184C4.05775 19.9613 4.14453 20.0912 4.25394 20.2006C4.36336 20.3101 4.49325 20.3968 4.6362 20.4561C4.77915 20.5153 4.93236 20.5457 5.08709 20.5457H15.6118V18.1892H5.08709Z" fill="#CCCCCC"/>
<path d="M15.6855 48.161H6.25357C5.60928 48.1603 4.99158 47.904 4.536 47.4484C4.08042 46.9928 3.82415 46.3751 3.82343 45.7309V33.3592C3.82415 32.7149 4.08042 32.0972 4.536 31.6417C4.99159 31.1861 5.60928 30.9298 6.25357 30.9291H15.6855V48.161Z" fill="#CCCCCC"/>
<path d="M30.8937 72.2415H18.042C17.3781 72.2408 16.7417 71.9767 16.2723 71.5073C15.803 71.038 15.5389 70.4015 15.5382 69.7377V18.3365C15.5389 17.6727 15.803 17.0363 16.2723 16.5669C16.7417 16.0975 17.3781 15.8335 18.042 15.8327H52.9006L59.2807 21.5293V31.2973H58.9862V21.6612L52.7882 16.1273H18.042C17.4562 16.128 16.8947 16.3609 16.4805 16.7751C16.0664 17.1893 15.8334 17.7508 15.8327 18.3365V69.7377C15.8334 70.3234 16.0664 70.885 16.4805 71.2991C16.8947 71.7133 17.4562 71.9463 18.042 71.9469H30.8937V72.2415Z" fill="#CCCCCC"/>
<path d="M59.1335 21.724H55.1569C54.493 21.7233 53.8566 21.4592 53.3872 20.9898C52.9179 20.5204 52.6538 19.884 52.6531 19.2202V15.98C52.6531 15.941 52.6686 15.9035 52.6962 15.8759C52.7238 15.8483 52.7613 15.8327 52.8004 15.8327C52.8394 15.8327 52.8769 15.8483 52.9045 15.8759C52.9321 15.9035 52.9476 15.941 52.9476 15.98V19.2202C52.9483 19.8059 53.1813 20.3675 53.5954 20.7816C54.0096 21.1958 54.5711 21.4288 55.1569 21.4294H59.1335C59.1725 21.4294 59.21 21.445 59.2376 21.4726C59.2652 21.5002 59.2807 21.5377 59.2807 21.5767C59.2807 21.6158 59.2652 21.6532 59.2376 21.6809C59.21 21.7085 59.1725 21.724 59.1335 21.724Z" fill="#CCCCCC"/>
<path d="M54.2054 29.1617H20.6253C20.3128 29.1617 20.0131 29.2858 19.7921 29.5068C19.5712 29.7278 19.447 30.0275 19.447 30.34C19.447 30.6524 19.5712 30.9521 19.7921 31.1731C20.0131 31.3941 20.3128 31.5182 20.6253 31.5182H54.2054C54.5179 31.5182 54.8176 31.3941 55.0386 31.1731C55.2595 30.9521 55.3837 30.6524 55.3837 30.34C55.3837 30.0275 55.2595 29.7278 55.0386 29.5068C54.8176 29.2858 54.5179 29.1617 54.2054 29.1617Z" fill="#CCCCCC"/>
<path d="M37.2681 24.1541H20.6253C20.3128 24.1541 20.0131 24.2783 19.7921 24.4992C19.5712 24.7202 19.447 25.0199 19.447 25.3324C19.447 25.6449 19.5712 25.9446 19.7921 26.1655C20.0131 26.3865 20.3128 26.5106 20.6253 26.5106H37.2681C37.5806 26.5106 37.8802 26.3865 38.1012 26.1655C38.3222 25.9446 38.4463 25.6449 38.4463 25.3324C38.4463 25.0199 38.3222 24.7202 38.1012 24.4992C37.8802 24.2783 37.5806 24.1541 37.2681 24.1541Z" fill="#CCCCCC"/>
<path d="M54.2054 29.1617H20.6253C20.3128 29.1617 20.0131 29.2858 19.7921 29.5068C19.5712 29.7278 19.447 30.0275 19.447 30.34C19.447 30.6524 19.5712 30.9521 19.7921 31.1731C20.0131 31.3941 20.3128 31.5182 20.6253 31.5182H54.2054C54.5179 31.5182 54.8176 31.3941 55.0386 31.1731C55.2595 30.9521 55.3837 30.6524 55.3837 30.34C55.3837 30.0275 55.2595 29.7278 55.0386 29.5068C54.8176 29.2858 54.5179 29.1617 54.2054 29.1617Z" fill="#CCCCCC"/>
<path d="M37.2681 24.1541H20.6253C20.3128 24.1541 20.0131 24.2783 19.7921 24.4992C19.5712 24.7202 19.447 25.0199 19.447 25.3324C19.447 25.6449 19.5712 25.9446 19.7921 26.1655C20.0131 26.3865 20.3128 26.5106 20.6253 26.5106H37.2681C37.5806 26.5106 37.8802 26.3865 38.1012 26.1655C38.3222 25.9446 38.4463 25.6449 38.4463 25.3324C38.4463 25.0199 38.3222 24.7202 38.1012 24.4992C37.8802 24.2783 37.5806 24.1541 37.2681 24.1541Z" fill="#CCCCCC"/>
<path d="M20.6253 39.0296C20.3128 39.0296 20.0131 39.1537 19.7921 39.3747C19.5712 39.5956 19.447 39.8953 19.447 40.2078C19.447 40.5203 19.5712 40.82 19.7921 41.041C20.0131 41.2619 20.3128 41.3861 20.6253 41.3861H31.15V39.0296H20.6253Z" fill="#CCCCCC"/>
<path d="M20.6253 34.022C20.3128 34.022 20.0131 34.1461 19.7921 34.3671C19.5712 34.5881 19.447 34.8877 19.447 35.2002C19.447 35.5127 19.5712 35.8124 19.7921 36.0334C20.0131 36.2544 20.3128 36.3785 20.6253 36.3785H31.15V34.022H20.6253Z" fill="#CCCCCC"/>
<path d="M20.6253 39.0296C20.3128 39.0296 20.0131 39.1537 19.7921 39.3747C19.5712 39.5956 19.447 39.8953 19.447 40.2078C19.447 40.5203 19.5712 40.82 19.7921 41.041C20.0131 41.2619 20.3128 41.3861 20.6253 41.3861H31.15V39.0296H20.6253Z" fill="#CCCCCC"/>
<path d="M20.6253 34.022C20.3128 34.022 20.0131 34.1461 19.7921 34.3671C19.5712 34.5881 19.447 34.8877 19.447 35.2002C19.447 35.5127 19.5712 35.8124 19.7921 36.0334C20.0131 36.2544 20.3128 36.3785 20.6253 36.3785H31.15V34.022H20.6253Z" fill="#CCCCCC"/>
<path d="M31.2236 63.9938H21.7917C21.1475 63.993 20.5298 63.7368 20.0742 63.2812C19.6186 62.8256 19.3623 62.2079 19.3616 61.5636V49.192C19.3623 48.5477 19.6186 47.93 20.0742 47.4744C20.5298 47.0188 21.1475 46.7626 21.7917 46.7618H31.2236V63.9938Z" fill="#CCCCCC"/>
<path d="M32.0543 31.8128C31.6883 32.0362 31.3858 32.3499 31.1758 32.7239C30.9659 33.0979 30.8556 33.5195 30.8554 33.9483V34.3166H31.15V33.9483C31.1506 33.4613 31.3118 32.988 31.6087 32.6019C31.9056 32.2158 32.3216 31.9384 32.7922 31.8128H32.0543ZM68.2178 31.4446H33.3592C32.6954 31.4453 32.059 31.7094 31.5896 32.1788C31.1203 32.6481 30.8562 33.2845 30.8554 33.9483V85.3495C30.8564 86.0133 31.1205 86.6496 31.5898 87.1189C32.0592 87.5883 32.6955 87.8524 33.3592 87.8533H72.0942C72.758 87.8524 73.3943 87.5883 73.8636 87.1189C74.333 86.6496 74.5971 86.0133 74.598 85.3495V37.1414L68.2178 31.4446ZM74.3034 85.3495C74.3027 85.9353 74.0697 86.4968 73.6556 86.9109C73.2414 87.3251 72.6799 87.5581 72.0942 87.5588H33.3592C32.7735 87.5581 32.212 87.3251 31.7979 86.9109C31.3837 86.4968 31.1507 85.9353 31.15 85.3495V33.9483C31.1506 33.4613 31.3118 32.988 31.6087 32.6019C31.9056 32.2158 32.3216 31.9384 32.7922 31.8128C32.9771 31.7635 33.1678 31.7387 33.3592 31.7391H68.1058L74.3034 37.2725V85.3495ZM32.0543 31.8128C31.6883 32.0362 31.3858 32.3499 31.1758 32.7239C30.9659 33.0979 30.8556 33.5195 30.8554 33.9483V34.3166H31.15V33.9483C31.1506 33.4613 31.3118 32.988 31.6087 32.6019C31.9056 32.2158 32.3216 31.9384 32.7922 31.8128H32.0543Z" fill="#3F3D56"/>
<path d="M74.4507 37.3358H70.4741C69.8103 37.3351 69.1739 37.071 68.7045 36.6017C68.2351 36.1323 67.9711 35.4959 67.9703 34.832V31.5918C67.9703 31.5528 67.9859 31.5153 68.0135 31.4877C68.0411 31.4601 68.0786 31.4446 68.1176 31.4446C68.1567 31.4446 68.1941 31.4601 68.2218 31.4877C68.2494 31.5153 68.2649 31.5528 68.2649 31.5918V34.832C68.2656 35.4178 68.4985 35.9793 68.9127 36.3935C69.3269 36.8076 69.8884 37.0406 70.4741 37.0413H74.4507C74.4898 37.0413 74.5272 37.0568 74.5549 37.0844C74.5825 37.112 74.598 37.1495 74.598 37.1885C74.598 37.2276 74.5825 37.2651 74.5549 37.2927C74.5272 37.3203 74.4898 37.3358 74.4507 37.3358Z" fill="#3F3D56"/>
<path d="M69.5229 47.13H35.9427C35.6303 47.13 35.3306 47.0059 35.1096 46.7849C34.8886 46.564 34.7645 46.2643 34.7645 45.9518C34.7645 45.6393 34.8886 45.3396 35.1096 45.1186C35.3306 44.8977 35.6303 44.7735 35.9427 44.7735H69.5229C69.8354 44.7735 70.1351 44.8977 70.356 45.1186C70.577 45.3396 70.7011 45.6393 70.7011 45.9518C70.7011 46.2643 70.577 46.564 70.356 46.7849C70.1351 47.0059 69.8354 47.13 69.5229 47.13Z" fill="#CCCCCC"/>
<path d="M52.5855 42.1225H35.9427C35.6303 42.1225 35.3306 41.9983 35.1096 41.7774C34.8886 41.5564 34.7645 41.2567 34.7645 40.9442C34.7645 40.6317 34.8886 40.332 35.1096 40.1111C35.3306 39.8901 35.6303 39.766 35.9427 39.766H52.5855C52.898 39.766 53.1977 39.8901 53.4187 40.1111C53.6397 40.332 53.7638 40.6317 53.7638 40.9442C53.7638 41.2567 53.6397 41.5564 53.4187 41.7774C53.1977 41.9983 52.898 42.1225 52.5855 42.1225Z" fill="#CCCCCC"/>
<path d="M69.5229 56.9979H35.9427C35.6303 56.9979 35.3306 56.8737 35.1096 56.6528C34.8886 56.4318 34.7645 56.1321 34.7645 55.8196C34.7645 55.5071 34.8886 55.2075 35.1096 54.9865C35.3306 54.7655 35.6303 54.6414 35.9427 54.6414H69.5229C69.8354 54.6414 70.1351 54.7655 70.356 54.9865C70.577 55.2075 70.7011 55.5071 70.7011 55.8196C70.7011 56.1321 70.577 56.4318 70.356 56.6528C70.1351 56.8737 69.8354 56.9979 69.5229 56.9979Z" fill="#CCCCCC"/>
<path d="M52.5855 51.9903H35.9427C35.6303 51.9903 35.3306 51.8662 35.1096 51.6452C34.8886 51.4243 34.7645 51.1246 34.7645 50.8121C34.7645 50.4996 34.8886 50.1999 35.1096 49.9789C35.3306 49.758 35.6303 49.6338 35.9427 49.6338H52.5855C52.898 49.6338 53.1977 49.758 53.4187 49.9789C53.6397 50.1999 53.7638 50.4996 53.7638 50.8121C53.7638 51.1246 53.6397 51.4243 53.4187 51.6452C53.1977 51.8662 52.898 51.9903 52.5855 51.9903Z" fill="#CCCCCC"/>
<path d="M68.3325 79.6056H37.1088C36.4645 79.6049 35.8468 79.3486 35.3913 78.893C34.9357 78.4374 34.6794 77.8197 34.6787 77.1754V64.8038C34.6794 64.1595 34.9357 63.5418 35.3913 63.0862C35.8468 62.6307 36.4645 62.3744 37.1088 62.3737H68.3325C68.9768 62.3744 69.5944 62.6307 70.05 63.0862C70.5056 63.5418 70.7619 64.1595 70.7626 64.8038V77.1754C70.7619 77.8197 70.5056 78.4374 70.05 78.893C69.5945 79.3486 68.9768 79.6049 68.3325 79.6056Z" fill="#007FFE"/>
</g>
<defs>
<clipPath id="clip0_19_426">
<rect width="124.373" height="96" fill="white"/>
</clipPath>
</defs>
</svg>
