<svg width="103" height="96" viewBox="0 0 103 96" fill="none" xmlns="http://www.w3.org/2000/svg">
<g clip-path="url(#clip0_19_425)">
<path d="M94.8826 73.4428L99.4872 74.1624C101.046 72.2753 102.12 70.0362 102.617 67.6395C99.2503 70.3956 94.1301 68.931 90.0474 70.4357C88.7776 70.9147 87.632 71.6734 86.6953 72.6554C85.7586 73.6374 85.0548 74.8176 84.6363 76.1086L82.386 78.5297C84.423 79.3361 86.6106 79.6913 88.7981 79.5709C90.9856 79.4505 93.121 78.8572 95.0571 77.8321C96.1376 77.2462 97.14 76.5266 98.0406 75.6902C96.4295 74.6757 94.8826 73.4428 94.8826 73.4428Z" fill="#F0F0F0"/>
<path d="M93.248 66.0785L97.6903 64.6691C98.2437 62.2848 98.2068 59.8016 97.5827 57.4349C95.7983 61.4033 90.5623 62.3759 87.5792 65.5435C86.6563 66.5385 85.9692 67.7285 85.5688 69.0252C85.1684 70.3219 85.0649 71.6921 85.266 73.0342L84.3316 76.2048C86.5145 76.0181 88.6309 75.3604 90.5351 74.2771C92.4393 73.1937 94.086 71.7104 95.3617 69.9293C96.0675 68.9231 96.6438 67.8319 97.0769 66.6817C95.1824 66.4922 93.248 66.0785 93.248 66.0785Z" fill="#F0F0F0"/>
<path d="M102.642 79.9963C102.642 80.0201 102.637 80.0436 102.628 80.0656C102.619 80.0875 102.606 80.1075 102.589 80.1243C102.572 80.1411 102.552 80.1544 102.531 80.1635C102.509 80.1725 102.485 80.1772 102.461 80.1771H0.180775C0.132831 80.1771 0.0868492 80.158 0.0529474 80.1241C0.0190456 80.0902 0 80.0443 0 79.9963C0 79.9484 0.0190456 79.9024 0.0529474 79.8685C0.0868492 79.8346 0.132831 79.8155 0.180775 79.8155H102.461C102.485 79.8155 102.509 79.8201 102.531 79.8292C102.552 79.8382 102.572 79.8515 102.589 79.8683C102.606 79.8851 102.619 79.9051 102.628 79.9271C102.637 79.949 102.642 79.9726 102.642 79.9963Z" fill="#CCCCCC"/>
<path d="M42.383 72.2895C60.4211 72.2895 75.0439 57.6667 75.0439 39.6285C75.0439 21.5904 60.4211 6.96756 42.383 6.96756C24.3448 6.96756 9.72198 21.5904 9.72198 39.6285C9.72198 57.6667 24.3448 72.2895 42.383 72.2895Z" fill="#CCCCCC"/>
<path d="M70.4866 39.6285C70.4899 44.0137 69.4655 48.3387 67.4956 52.2565C65.5258 56.1744 62.6652 59.5761 59.1434 62.1889C58.9079 62.3651 58.6679 62.5368 58.4263 62.7039C53.7168 65.9776 48.1185 67.7322 42.383 67.7322C36.6474 67.7322 31.0491 65.9776 26.3396 62.7039C26.0981 62.5368 25.858 62.3651 25.6226 62.1889C22.1032 59.5738 19.2444 56.1716 17.2748 52.2543C15.3052 48.337 14.2793 44.0131 14.2793 39.6285C14.2793 35.2439 15.3052 30.9201 17.2748 27.0028C19.2444 23.0854 22.1032 19.6832 25.6226 17.0682C25.858 16.8919 26.0981 16.7203 26.3396 16.5532C31.0491 13.2795 36.6474 11.5249 42.383 11.5249C48.1185 11.5249 53.7168 13.2795 58.4263 16.5532C58.6679 16.7203 58.9079 16.8919 59.1434 17.0682C62.6652 19.6809 65.5258 23.0827 67.4956 27.0005C69.4655 30.9184 70.4899 35.2433 70.4866 39.6285Z" fill="white"/>
<path d="M42.383 65.3016C56.5618 65.3016 68.056 53.8074 68.056 39.6285C68.056 25.4497 56.5618 13.9555 42.383 13.9555C28.2041 13.9555 16.7099 25.4497 16.7099 39.6285C16.7099 53.8074 28.2041 65.3016 42.383 65.3016Z" fill="#007FFE"/>
<path opacity="0.2" d="M42.45 14.0273C42.0608 14.0273 41.674 14.0374 41.289 14.0546C47.7777 14.6248 53.8071 17.6401 58.1556 22.4898C62.504 27.3395 64.8464 33.6608 64.7082 40.173C64.57 46.6853 61.9615 52.9015 57.4111 57.5623C52.8608 62.2231 46.7089 64.9799 40.2019 65.2743C40.9429 65.3386 41.6923 65.3733 42.45 65.3733C49.2589 65.3733 55.7889 62.6685 60.6035 57.8539C65.4182 53.0392 68.123 46.5092 68.123 39.7003C68.123 32.8914 65.4182 26.3613 60.6035 21.5467C55.7889 16.7321 49.2589 14.0273 42.45 14.0273V14.0273Z" fill="black"/>
<path d="M42.4589 12.1325C42.2375 12.1329 42.0252 12.2211 41.8686 12.3777C41.7119 12.5343 41.6238 12.7466 41.6234 12.9681V16.6139C41.6234 16.8355 41.7114 17.048 41.8681 17.2047C42.0248 17.3614 42.2373 17.4494 42.4589 17.4494C42.6805 17.4494 42.893 17.3614 43.0497 17.2047C43.2064 17.048 43.2944 16.8355 43.2944 16.6139V12.9681C43.2941 12.7466 43.2059 12.5343 43.0493 12.3777C42.8927 12.2211 42.6804 12.1329 42.4589 12.1325Z" fill="white"/>
<path d="M59.1434 17.0682C58.9079 16.8919 58.6679 16.7203 58.4263 16.5532C58.2814 16.5437 58.1365 16.5722 58.006 16.6359C57.8754 16.6996 57.7638 16.7962 57.682 16.9162L55.6297 19.9286C55.505 20.1118 55.4581 20.3369 55.4994 20.5546C55.5407 20.7722 55.6668 20.9646 55.8499 21.0893C56.033 21.2139 56.2582 21.2608 56.4759 21.2195C56.6935 21.1782 56.8858 21.0521 57.0105 20.869L59.0629 17.8566C59.1409 17.7423 59.1892 17.6103 59.2033 17.4726C59.2173 17.3349 59.1967 17.1959 59.1434 17.0682Z" fill="white"/>
<path d="M68.4677 30.804C68.4264 30.7024 68.3656 30.61 68.2885 30.5319C68.2115 30.4539 68.1199 30.3918 68.0189 30.3492C67.9179 30.3066 67.8095 30.2843 67.6999 30.2836C67.5902 30.283 67.4815 30.3039 67.38 30.3452L64.0015 31.717C63.7964 31.8005 63.6329 31.9621 63.5469 32.1661C63.4608 32.3701 63.4593 32.6 63.5427 32.8051C63.626 33.0103 63.7874 33.174 63.9914 33.2602C64.1953 33.3464 64.4252 33.3481 64.6304 33.265L68.0089 31.8932C68.2139 31.8092 68.3773 31.6475 68.4632 31.4433C68.5492 31.2392 68.5508 31.0093 68.4677 30.804Z" fill="white"/>
<path d="M29.1363 19.9287L27.084 16.9162C27.0022 16.7962 26.8905 16.6996 26.76 16.6359C26.6294 16.5722 26.4845 16.5437 26.3396 16.5532C26.0981 16.7203 25.858 16.8919 25.6226 17.0682C25.5692 17.1959 25.5486 17.3349 25.5627 17.4726C25.5767 17.6103 25.625 17.7423 25.7031 17.8566L27.7554 20.869C27.8801 21.0521 28.0724 21.1782 28.2901 21.2195C28.5077 21.2608 28.7329 21.2139 28.916 21.0893C29.0991 20.9646 29.2252 20.7722 29.2665 20.5546C29.3078 20.3369 29.261 20.1118 29.1363 19.9287Z" fill="white"/>
<path d="M20.7644 31.717L17.3859 30.3452C17.1807 30.2619 16.9507 30.2635 16.7466 30.3496C16.5425 30.4358 16.381 30.5996 16.2976 30.8048C16.2142 31.0101 16.2158 31.24 16.3019 31.4441C16.3881 31.6482 16.5518 31.8098 16.757 31.8932L20.1355 33.2649C20.3408 33.3481 20.5706 33.3464 20.7746 33.2602C20.9785 33.1739 21.1399 33.0103 21.2233 32.8051C21.3066 32.6 21.3051 32.3701 21.2191 32.1661C21.133 31.962 20.9695 31.8005 20.7644 31.717V31.717Z" fill="white"/>
<path d="M42.4589 61.8076C42.2375 61.808 42.0252 61.8961 41.8686 62.0528C41.7119 62.2094 41.6238 62.4217 41.6234 62.6431V66.289C41.6234 66.5106 41.7114 66.7231 41.8681 66.8798C42.0248 67.0365 42.2373 67.1245 42.4589 67.1245C42.6805 67.1245 42.893 67.0365 43.0497 66.8798C43.2064 66.7231 43.2944 66.5106 43.2944 66.289V62.6431C43.2941 62.4217 43.2059 62.2094 43.0493 62.0528C42.8927 61.8961 42.6804 61.808 42.4589 61.8076Z" fill="white"/>
<path d="M59.0628 61.4005L57.0105 58.3881C56.9488 58.2974 56.8698 58.2198 56.778 58.1596C56.6863 58.0995 56.5836 58.058 56.4758 58.0376C56.3681 58.0171 56.2573 58.0181 56.1499 58.0404C56.0425 58.0628 55.9406 58.1061 55.8499 58.1678C55.7592 58.2295 55.6816 58.3085 55.6215 58.4003C55.5613 58.492 55.5199 58.5947 55.4994 58.7025C55.479 58.8103 55.4799 58.921 55.5023 59.0284C55.5246 59.1358 55.5679 59.2377 55.6296 59.3284L57.682 62.3408C57.7637 62.4608 57.8754 62.5575 58.006 62.6211C58.1365 62.6848 58.2814 62.7133 58.4263 62.7039C58.6679 62.5368 58.9079 62.3651 59.1434 62.1889C59.1967 62.0612 59.2173 61.9222 59.2033 61.7845C59.1892 61.6468 59.1409 61.5148 59.0628 61.4005Z" fill="white"/>
<path d="M68.0089 47.3639L64.6304 45.9921C64.4251 45.9087 64.1952 45.9103 63.9911 45.9965C63.787 46.0827 63.6255 46.2464 63.5421 46.4517C63.4587 46.6569 63.4603 46.8869 63.5464 47.091C63.6326 47.2951 63.7963 47.4566 64.0015 47.5401L67.38 48.9118C67.5852 48.995 67.8151 48.9933 68.019 48.9071C68.223 48.8208 68.3844 48.6572 68.4677 48.452C68.5511 48.2469 68.5496 48.017 68.4636 47.813C68.3775 47.6089 68.214 47.4474 68.0089 47.3639V47.3639Z" fill="white"/>
<path d="M28.916 58.1678C28.7329 58.0432 28.5077 57.9963 28.2901 58.0377C28.0725 58.079 27.8801 58.205 27.7554 58.3881L25.7031 61.4005C25.625 61.5148 25.5767 61.6468 25.5627 61.7845C25.5486 61.9222 25.5692 62.0612 25.6226 62.1889C25.858 62.3651 26.0981 62.5368 26.3396 62.7039C26.4845 62.7133 26.6294 62.6848 26.76 62.6211C26.8905 62.5575 27.0022 62.4608 27.084 62.3408L29.1363 59.3284C29.198 59.2377 29.2413 59.1358 29.2637 59.0284C29.286 58.921 29.287 58.8103 29.2665 58.7025C29.2461 58.5947 29.2046 58.492 29.1445 58.4003C29.0843 58.3085 29.0067 58.2295 28.916 58.1678Z" fill="white"/>
<path d="M21.2232 46.4509C21.182 46.3493 21.1211 46.2569 21.0441 46.1788C20.9671 46.1008 20.8754 46.0387 20.7744 45.9961C20.6734 45.9535 20.565 45.9312 20.4554 45.9305C20.3458 45.9298 20.2371 45.9508 20.1355 45.9921L16.757 47.3639C16.5519 47.4474 16.3884 47.6089 16.3024 47.813C16.2164 48.017 16.2148 48.2469 16.2982 48.452C16.3815 48.6572 16.5429 48.8208 16.7469 48.9071C16.9509 48.9933 17.1807 48.995 17.3859 48.9118L20.7644 47.5401C20.9694 47.4561 21.1328 47.2944 21.2188 47.0902C21.3048 46.8861 21.3064 46.6562 21.2232 46.4509Z" fill="white"/>
<path d="M43.543 39.214C43.6201 39.6707 43.513 40.1393 43.245 40.5171C42.9771 40.8949 42.5702 41.151 42.1137 41.2292L27.2874 43.7511C27.0612 43.7896 26.8297 43.7831 26.606 43.7321C26.3824 43.6811 26.1709 43.5865 25.9838 43.4538C25.7967 43.3211 25.6375 43.1528 25.5154 42.9586C25.3933 42.7643 25.3107 42.548 25.2722 42.3218C25.2337 42.0956 25.2402 41.8641 25.2912 41.6404C25.3422 41.4167 25.4368 41.2053 25.5695 41.0182C25.7022 40.831 25.8705 40.6719 26.0647 40.5498C26.259 40.4277 26.4753 40.3451 26.7015 40.3066L41.5278 37.7847C41.9845 37.7075 42.4531 37.8147 42.8309 38.0826C43.2087 38.3506 43.4648 38.7574 43.543 39.214Z" fill="#3F3D56"/>
<path d="M59.1473 55.6403C58.9343 55.8545 58.645 55.9755 58.343 55.9766C58.0409 55.9778 57.7507 55.8591 57.536 55.6466L41.5757 39.8115C41.3616 39.5986 41.2407 39.3094 41.2396 39.0074C41.2386 38.7055 41.3574 38.4154 41.5701 38.201C41.7828 37.9866 42.0719 37.8655 42.3739 37.8641C42.6759 37.8628 42.9661 37.9814 43.1806 38.1939L59.1409 54.029C59.3551 54.242 59.4761 54.5313 59.4773 54.8333C59.4785 55.1354 59.3598 55.4256 59.1473 55.6403Z" fill="#3F3D56"/>
<path d="M42.383 41.6034C43.4736 41.6034 44.3578 40.7192 44.3578 39.6285C44.3578 38.5378 43.4736 37.6537 42.383 37.6537C41.2923 37.6537 40.4081 38.5378 40.4081 39.6285C40.4081 40.7192 41.2923 41.6034 42.383 41.6034Z" fill="#CCCCCC"/>
<path d="M28.7802 5.38446C25.7489 10.1503 21.1237 13.3131 15.4196 15.3909C15.3069 15.4754 15.1787 15.5367 15.0423 15.5716C14.9058 15.6065 14.7639 15.6141 14.6245 15.5941C14.4851 15.5741 14.351 15.5268 14.2299 15.455C14.1087 15.3832 14.0029 15.2882 13.9185 15.1755C10.8201 11.0385 11.5198 5.12605 15.609 1.96496C16.5976 1.20204 17.7279 0.643105 18.9343 0.320601C20.1407 -0.00190385 21.3992 -0.0815552 22.6366 0.0862733C23.8741 0.254102 25.0658 0.666066 26.1428 1.29825C27.2197 1.93043 28.1603 2.77024 28.91 3.76892L28.9957 3.88334C29.0801 3.99606 29.1415 4.12429 29.1764 4.26073C29.2112 4.39717 29.2189 4.53914 29.1989 4.67853C29.1788 4.81792 29.1316 4.95201 29.0597 5.07313C28.9879 5.19425 28.8929 5.30004 28.7802 5.38446Z" fill="#CCCCCC"/>
<path d="M55.8559 3.76892C56.6056 2.77024 57.5463 1.93043 58.6232 1.29825C59.7001 0.666064 60.8919 0.254102 62.1293 0.086274C63.3668 -0.0815545 64.6252 -0.00190552 65.8316 0.320599C67.038 0.643104 68.1684 1.20204 69.157 1.96495C73.2462 5.12605 73.9458 11.0385 70.8474 15.1755C70.763 15.2882 70.6572 15.3832 70.5361 15.455C70.415 15.5268 70.2809 15.5741 70.1415 15.5941C70.0021 15.6141 69.8601 15.6065 69.7237 15.5716C69.5872 15.5367 69.459 15.4754 69.3463 15.3909C64.0511 13.3636 59.7087 9.85536 55.9857 5.38446C55.7581 5.21397 55.6075 4.96004 55.5671 4.67852C55.5267 4.39701 55.5997 4.11097 55.7702 3.88334L55.8559 3.76892Z" fill="#CCCCCC"/>
<path d="M54.5273 67.9248C54.3342 68.0333 54.192 68.2139 54.1318 68.427C54.0716 68.6402 54.0984 68.8685 54.2062 69.0619L59.0281 77.6788C59.1364 77.8721 59.317 78.0145 59.5302 78.0747C59.7434 78.1349 59.9718 78.1079 60.1652 77.9997C60.3585 77.8915 60.5009 77.7109 60.5612 77.4977C60.6214 77.2845 60.5945 77.0561 60.4863 76.8627L55.6644 68.2459C55.5559 68.0528 55.3753 67.9106 55.1622 67.8504C54.949 67.7903 54.7207 67.817 54.5273 67.9248Z" fill="#CCCCCC"/>
<path d="M29.1015 68.2459L24.2796 76.8627C24.1714 77.0561 24.1445 77.2845 24.2048 77.4977C24.265 77.7109 24.4074 77.8915 24.6008 77.9997C24.7941 78.1079 25.0225 78.1349 25.2358 78.0747C25.449 78.0145 25.6296 77.8721 25.7378 77.6788L30.5598 69.0619C30.6134 68.9662 30.6476 68.8608 30.6605 68.7518C30.6734 68.6429 30.6647 68.5324 30.6348 68.4268C30.605 68.3212 30.5547 68.2225 30.4868 68.1363C30.4188 68.0502 30.3345 67.9782 30.2388 67.9246C30.143 67.8711 30.0376 67.8369 29.9286 67.824C29.8197 67.8111 29.7092 67.8199 29.6036 67.8497C29.498 67.8796 29.3993 67.9299 29.3132 67.9979C29.227 68.0659 29.1551 68.1501 29.1015 68.2459H29.1015Z" fill="#CCCCCC"/>
<path d="M60.0047 79.8851C61.431 79.8851 62.5872 78.7289 62.5872 77.3026C62.5872 75.8763 61.431 74.7201 60.0047 74.7201C58.5784 74.7201 57.4222 75.8763 57.4222 77.3026C57.4222 78.7289 58.5784 79.8851 60.0047 79.8851Z" fill="#CCCCCC"/>
<path d="M61.8276 13.8036C63.2539 13.8036 64.4101 12.6473 64.4101 11.2211C64.4101 9.7948 63.2539 8.63858 61.8276 8.63858C60.4014 8.63858 59.2451 9.7948 59.2451 11.2211C59.2451 12.6473 60.4014 13.8036 61.8276 13.8036Z" fill="#CCCCCC"/>
<path d="M42.2311 7.72712C43.6573 7.72712 44.8136 6.57089 44.8136 5.14462C44.8136 3.71835 43.6573 2.56213 42.2311 2.56213C40.8048 2.56213 39.6486 3.71835 39.6486 5.14462C39.6486 6.57089 40.8048 7.72712 42.2311 7.72712Z" fill="#CCCCCC"/>
<path d="M23.5459 13.4998C24.9722 13.4998 26.1284 12.3435 26.1284 10.9173C26.1284 9.49099 24.9722 8.33476 23.5459 8.33476C22.1197 8.33476 20.9634 9.49099 20.9634 10.9173C20.9634 12.3435 22.1197 13.4998 23.5459 13.4998Z" fill="#CCCCCC"/>
<path d="M25.217 79.8851C26.6432 79.8851 27.7995 78.7289 27.7995 77.3026C27.7995 75.8763 26.6432 74.7201 25.217 74.7201C23.7907 74.7201 22.6345 75.8763 22.6345 77.3026C22.6345 78.7289 23.7907 79.8851 25.217 79.8851Z" fill="#CCCCCC"/>
<path d="M57.979 54.1879C58.0808 54.3472 58.2163 54.4824 58.376 54.5837C58.5357 54.6851 58.7156 54.7502 58.9032 54.7745C59.0907 54.7988 59.2813 54.7817 59.4616 54.7243C59.6418 54.667 59.8073 54.5708 59.9463 54.4426L63.9986 56.6139L63.7813 54.2348L59.9665 52.5376C59.7356 52.3183 59.4323 52.1913 59.1141 52.1807C58.7958 52.17 58.4847 52.2765 58.2397 52.48C57.9948 52.6834 57.8329 52.9696 57.7848 53.2844C57.7368 53.5991 57.8059 53.9206 57.979 54.1879H57.979Z" fill="#FFB7B7"/>
<path d="M60.9316 55.0182L62.5196 52.8261L70.1698 56.4426L79.6897 54.6564C80.1602 54.5681 80.6445 54.5845 81.108 54.7044C81.5715 54.8243 82.0029 55.0448 82.3716 55.3502C82.7404 55.6556 83.0373 56.0384 83.2415 56.4715C83.4456 56.9046 83.5519 57.3773 83.5528 57.856C83.5535 58.7208 83.2111 59.5505 82.6007 60.1631C81.9904 60.7757 81.1619 61.1212 80.2972 61.1237L69.3875 61.144L60.9316 55.0182Z" fill="#3F3D56"/>
<path d="M58.4858 92.8785L56.879 92.1102L59.0861 85.3945L61.4573 86.5286L58.4858 92.8785Z" fill="#FFB7B7"/>
<path d="M69.2572 91.7959C69.1404 91.8691 69.0235 91.941 68.9055 92.013C68.6707 92.157 68.4335 92.2986 68.1963 92.4379C68.0771 92.5075 67.9567 92.5772 67.8375 92.6456V92.6491L67.8304 92.6503L67.828 92.6515L67.6463 92.6964L67.3855 92.0071L67.2651 91.6897L67.0952 91.24L66.7836 90.4175L65.1432 86.0863L67.6935 85.4573L67.7891 85.8479H67.7903L67.8375 86.0414L68.7285 89.6551L68.9102 90.3939L68.9161 90.4163L69.0259 90.8577L69.1203 91.2401L69.2253 91.6673L69.2572 91.7959Z" fill="#FFB7B7"/>
<path d="M84.4709 76.5858C84.3092 76.8454 84.144 77.1039 83.9776 77.3599C83.6684 77.8367 83.3509 78.3064 83.0252 78.7691C83.0252 78.7702 83.024 78.7702 83.0228 78.7714C82.8328 78.9474 82.6229 79.1007 82.3974 79.2281C82.3879 79.2352 82.3773 79.2399 82.3679 79.2458C82.2018 79.3376 82.025 79.4086 81.8415 79.4571C81.7754 79.4736 81.7081 79.4901 81.6421 79.5067C81.4037 79.5633 81.1676 79.6117 80.9328 79.6542C80.515 79.7285 80.102 79.7816 79.6913 79.8147C79.6582 79.8182 79.6252 79.8206 79.5921 79.8229C77.9033 79.9468 76.2594 79.7474 74.5434 79.4205C73.696 79.26 72.831 79.0676 71.9352 78.8682C71.6426 78.8021 71.3487 78.7372 71.0513 78.6723C71.0289 78.6676 71.0053 78.6617 70.9817 78.6569C70.5568 78.5637 70.1249 78.4716 69.6823 78.3808C69.1253 78.2663 68.5506 78.1554 67.9534 78.0503L67.9959 78.8918C68.0312 79.5391 68.1658 80.1771 68.3948 80.7836C68.6497 81.5295 68.8515 82.1195 68.4255 83.3481L68.2201 83.9429C68.3266 84.2382 68.3631 84.5542 68.3268 84.8661C68.2906 85.178 68.1826 85.4772 68.0112 85.7403L67.9699 85.8028L69.6823 90.1352L69.7933 90.4161H68.9164L67.8377 90.4172H66.0097L63.372 85.1254L63.2457 84.8728V84.8599L63.5183 74.6904C63.5219 74.6007 63.529 74.5099 63.5408 74.4202C63.5888 74.0124 63.7177 73.6183 63.9197 73.2609C64.1217 72.9035 64.3929 72.5899 64.7174 72.3384C65.0284 72.0953 65.3845 71.9165 65.7652 71.8124C66.1459 71.7083 66.5435 71.6809 66.9349 71.7318L67.8377 71.8486L69.6823 72.087L70.9817 72.2558L71.0076 72.2593L74.8396 72.755L75.1146 71.6338L75.1653 71.6149L76.7786 71.0237L82.3584 68.9785L82.3726 68.9737L82.7396 68.8392L82.7833 68.91C82.7963 68.9312 82.8092 68.9525 82.821 68.9737C83.1838 69.6241 83.4792 70.3098 83.7026 71.0201C84.0783 72.1806 84.3876 73.3615 84.629 74.5571C84.6397 74.609 84.6491 74.6562 84.6574 74.6987L84.6609 74.7117C84.6644 74.7317 84.6668 74.7447 84.668 74.7483C84.7966 75.284 84.7069 75.9378 84.4709 76.5858Z" fill="#2F2E41"/>
<path d="M84.7064 72.838C84.6887 72.7625 84.6663 72.6858 84.6427 72.6114C84.4553 72.0483 84.2371 71.4959 83.9889 70.9568C83.7104 70.3432 83.3764 69.6858 82.9787 68.9742C82.7863 68.6296 82.5794 68.2712 82.3579 67.8991C82.247 67.7126 82.1317 67.5226 82.0121 67.329C82.0075 67.3201 82.0023 67.3115 81.9968 67.3031L81.9626 67.2464L76.4418 67.9852L74.3859 68.2602L74.2632 69.2846L74.2337 69.5383C74.2325 69.5383 74.2325 69.5383 74.2337 69.5395L74.1511 70.2311V70.2322L74.0413 71.1457L74.0319 71.1445L70.9812 70.7491L67.8372 70.342L66.1484 70.1237C65.757 70.0727 65.3594 70.1 64.9787 70.2042C64.598 70.3083 64.2418 70.4871 63.9309 70.7303C63.6064 70.9818 63.3353 71.2955 63.1333 71.6529C62.9313 72.0103 62.8024 72.4044 62.7543 72.8121C62.7437 72.8947 62.7366 72.9796 62.733 73.0634L61.1398 76.8388C60.1865 79.0966 59.5793 81.4854 59.3389 83.9244L58.1705 87.6597L58.3369 87.675L60.8129 87.9051L61.4667 87.9665L62.9065 85.8646C63.0706 85.6251 63.2263 85.3784 63.3715 85.1259C63.6105 84.7134 63.823 84.2861 64.0076 83.8466L67.122 76.4352C67.3628 76.4765 67.6012 76.5158 67.8372 76.5532C68.9289 76.7302 69.9769 76.8746 70.9812 76.9863C74.2467 77.351 77.0743 77.3793 79.5916 77.0701C80.2985 76.9839 80.9818 76.8706 81.6416 76.7302C81.8835 76.6794 82.1223 76.6248 82.3579 76.5662C82.4134 76.5532 82.4677 76.5402 82.522 76.526C83.0097 76.4002 83.4581 76.1541 83.8261 75.8102C84.1941 75.4663 84.47 75.0356 84.6285 74.5575C84.8178 74.0035 84.8448 73.4069 84.7064 72.838Z" fill="#2F2E41"/>
<path d="M58.999 91.7819L57.2606 90.9488L56.988 90.8178L56.5525 91.887L53.5124 92.5561C53.3621 92.5891 53.2263 92.6692 53.1248 92.7849C53.0232 92.9006 52.9614 93.0456 52.9482 93.199C52.935 93.3523 52.9712 93.5058 53.0515 93.6371C53.1318 93.7684 53.2519 93.8705 53.3944 93.9287L56.3649 95.1407L57.3078 94.2921L57.0765 95.431L58.1953 95.8877L59.4215 91.9849L58.999 91.7819Z" fill="#2F2E41"/>
<path d="M69.6823 90.1352L69.7933 90.4161H69.6823V90.1352Z" fill="#2F2E41"/>
<path d="M69.0769 90.4761L67.2554 91.1072L66.9695 91.2059L67.4124 92.2721L65.723 94.8866C65.6394 95.0158 65.5993 95.1684 65.6085 95.322C65.6177 95.4756 65.6759 95.6222 65.7744 95.7404C65.8729 95.8587 66.0066 95.9423 66.156 95.9791C66.3055 96.0159 66.4627 96.0039 66.6049 95.945L69.5684 94.7161L69.6414 93.4497L70.2784 94.4217L71.3947 93.959L69.5199 90.323L69.0769 90.4761Z" fill="#2F2E41"/>
<path d="M84.2522 74.5479C84.144 74.5476 84.0375 74.5212 83.9418 74.4709L74.3297 69.4483L74.2187 68.9936L74.0093 67.5547L74.0122 67.5412L74.9264 63.3267C74.9096 63.2905 74.8746 63.2312 74.835 63.1641C74.4269 62.4727 73.1849 60.3682 75.5553 57.4704L79.717 52.6184L83.2888 52.4648L83.3295 52.5161C84.2846 53.7148 84.9287 55.131 85.2046 56.6387C85.4805 58.1463 85.3796 59.6988 84.9109 61.1581L84.539 67.8752L84.9379 69.2317C85.1711 70.0289 85.1326 70.881 84.8283 71.6538L84.9197 73.8503C84.9233 73.9403 84.9087 74.0302 84.8768 74.1144C84.8449 74.1987 84.7963 74.2757 84.734 74.3408C84.6717 74.4059 84.5969 74.4578 84.5142 74.4933C84.4314 74.5289 84.3423 74.5474 84.2522 74.5478L84.2522 74.5479Z" fill="#3F3D56"/>
<path d="M75.9143 80.0874C76.0772 79.9912 76.2169 79.8605 76.3238 79.7044C76.4306 79.5484 76.502 79.3708 76.5328 79.1842C76.5636 78.9976 76.5531 78.8065 76.502 78.6244C76.451 78.4423 76.3606 78.2736 76.2373 78.1302L78.5483 74.1558L76.1631 74.2903L74.3342 78.0437C74.107 78.2668 73.9695 78.5655 73.9478 78.8832C73.9262 79.2009 74.0217 79.5155 74.2165 79.7674C74.4113 80.0193 74.6917 80.1911 75.0046 80.25C75.3175 80.309 75.6412 80.2512 75.9143 80.0874L75.9143 80.0874Z" fill="#FFB7B7"/>
<path d="M76.8468 77.1655L74.7114 75.5022L78.5918 67.9824L77.1378 58.4062C77.0659 57.9328 77.0991 57.4494 77.2351 56.9904C77.3711 56.5313 77.6064 56.1078 77.9245 55.7499C78.2425 55.3921 78.6354 55.1086 79.0753 54.9196C79.5152 54.7307 79.9913 54.6409 80.4699 54.6566C81.3341 54.6861 82.1514 55.0571 82.7424 55.6884C83.3334 56.3197 83.6499 57.1597 83.6223 58.024L83.2631 68.9278L76.8468 77.1655Z" fill="#3F3D56"/>
<path d="M77.4259 50.6024V47.0679C77.4251 45.8118 77.9233 44.6068 78.8109 43.718C79.6985 42.8292 80.9029 42.3295 82.159 42.3287C83.4151 42.3279 84.6201 42.8261 85.5088 43.7137C86.3976 44.6013 86.8974 45.8057 86.8982 47.0618V47.0679C87.7329 48.8073 87.2107 49.6343 86.8982 50.6024C86.8979 50.7709 86.8308 50.9325 86.7116 51.0517C86.5924 51.1709 86.4308 51.238 86.2622 51.2383H78.0621C77.8935 51.2381 77.7318 51.171 77.6125 51.0518C77.4933 50.9326 77.4261 50.771 77.4259 50.6024Z" fill="#2F2E41"/>
<path d="M80.6091 51.0086C82.5671 51.0086 84.1543 49.4214 84.1543 47.4634C84.1543 45.5055 82.5671 43.9182 80.6091 43.9182C78.6512 43.9182 77.0639 45.5055 77.0639 47.4634C77.0639 49.4214 78.6512 51.0086 80.6091 51.0086Z" fill="#FFB7B7"/>
<path d="M84.3193 48.3928C84.2872 48.3877 84.2551 48.381 84.2229 48.3759C83.6699 48.2778 83.1169 48.1814 82.5656 48.0816L82.5149 46.8319L81.8469 47.9514C80.3232 48.4571 78.8976 48.1713 77.5566 47.5405C77.1142 47.3305 76.685 47.0939 76.2713 46.8319C76.384 46.1407 76.6497 45.4835 77.0491 44.9082C77.4485 44.333 77.9714 43.8543 78.5797 43.5072C78.6304 43.4784 78.6794 43.4531 78.7302 43.4277C78.7304 43.4277 78.7306 43.4276 78.7308 43.4276C78.731 43.4275 78.7312 43.4274 78.7314 43.4272C78.7315 43.427 78.7317 43.4269 78.7317 43.4266C78.7318 43.4264 78.7319 43.4262 78.7319 43.426C78.8181 43.3854 78.9061 43.3465 78.994 43.311C79.6825 43.042 80.4331 42.9738 81.1588 43.1145C81.8844 43.2552 82.5552 43.599 83.0933 44.1058C84.1756 45.1391 84.6626 46.8454 84.3193 48.3928Z" fill="#2F2E41"/>
</g>
<defs>
<clipPath id="clip0_19_425">
<rect width="102.642" height="96" fill="white"/>
</clipPath>
</defs>
</svg>
