  

<svg width="274" height="32" viewBox="0 0 274 32" fill="none" xmlns="http://www.w3.org/2000/svg">
<g filter="url(#filter0_i_37_34)">
<path d="M223.085 14.7991C223.085 15.9286 222.809 16.9876 222.258 17.9759C221.726 18.9642 220.879 19.7609 219.714 20.366C218.57 20.9711 217.12 21.2736 215.363 21.2736H211.777V29.3818H207.487V8.26415H215.363C217.017 8.26415 218.427 8.54654 219.592 9.11128C220.756 9.67602 221.624 10.4526 222.196 11.4409C222.789 12.4292 223.085 13.5486 223.085 14.7991ZM215.179 17.8548C216.364 17.8548 217.242 17.5926 217.814 17.0682C218.386 16.5236 218.672 15.7673 218.672 14.7991C218.672 12.7418 217.508 11.7132 215.179 11.7132H211.777V17.8548H215.179ZM228.889 26.0236H235.937V29.3818H224.599V8.26415H228.889V26.0236ZM241.36 8.26415V21.3341C241.36 22.7662 241.738 23.8654 242.494 24.6319C243.25 25.3781 244.312 25.7513 245.681 25.7513C247.07 25.7513 248.143 25.3781 248.899 24.6319C249.655 23.8654 250.033 22.7662 250.033 21.3341V8.26415H254.353V21.3039C254.353 23.099 253.955 24.6218 253.158 25.8723C252.382 27.1026 251.33 28.0305 250.002 28.6557C248.694 29.2809 247.234 29.5936 245.62 29.5936C244.026 29.5936 242.576 29.2809 241.269 28.6557C239.981 28.0305 238.96 27.1026 238.204 25.8723C237.448 24.6218 237.07 23.099 237.07 21.3039V8.26415H241.36ZM264.351 29.5936C262.86 29.5936 261.512 29.3414 260.306 28.8372C259.122 28.333 258.182 27.6069 257.487 26.6589C256.793 25.7109 256.435 24.5915 256.415 23.3007H261.011C261.072 24.1679 261.379 24.8537 261.93 25.358C262.503 25.8622 263.279 26.1143 264.259 26.1143C265.261 26.1143 266.047 25.8824 266.619 25.4185C267.191 24.9344 267.477 24.3092 267.477 23.5427C267.477 22.9174 267.283 22.4031 266.895 21.9997C266.507 21.5963 266.016 21.2837 265.424 21.0618C264.852 20.8198 264.055 20.5576 263.034 20.2752C261.645 19.8718 260.511 19.4785 259.632 19.0953C258.774 18.6919 258.029 18.0969 257.395 17.3103C256.782 16.5035 256.476 15.4345 256.476 14.1033C256.476 12.8527 256.793 11.7636 257.426 10.8358C258.059 9.90799 258.948 9.20205 260.092 8.71797C261.236 8.21374 262.543 7.96161 264.014 7.96161C266.221 7.96161 268.008 8.4961 269.377 9.5651C270.766 10.6139 271.532 12.0863 271.675 13.9823H266.956C266.915 13.2562 266.599 12.6612 266.006 12.1972C265.434 11.7132 264.668 11.4711 263.708 11.4711C262.87 11.4711 262.196 11.6829 261.685 12.1065C261.195 12.53 260.95 13.1452 260.95 13.952C260.95 14.5167 261.134 14.9908 261.501 15.374C261.89 15.737 262.359 16.0396 262.911 16.2816C263.483 16.5035 264.28 16.7657 265.301 17.0682C266.691 17.4716 267.824 17.875 268.703 18.2784C269.581 18.6818 270.337 19.2869 270.97 20.0937C271.604 20.9005 271.92 21.9594 271.92 23.2704C271.92 24.3999 271.624 25.4487 271.032 26.4169C270.439 27.385 269.571 28.1615 268.427 28.7465C267.283 29.3111 265.924 29.5936 264.351 29.5936Z" fill="url(#paint0_linear_37_34)"/>
</g>
<path d="M17.8607 24.4294H7.37574L5.64083 29.3818H0.0966492L9.56324 3.35363H15.7109L25.1775 29.3818H19.5956L17.8607 24.4294ZM16.4275 20.2589L12.6182 9.38592L8.80893 20.2589H16.4275ZM27.3582 19.0674C27.3582 16.9325 27.7982 15.0707 28.6782 13.4819C29.5584 11.8683 30.7776 10.6271 32.3366 9.75828C33.8956 8.86461 35.6806 8.41778 37.6922 8.41778C40.2819 8.41778 42.4194 9.06322 44.1039 10.3541C45.8138 11.6201 46.9576 13.4074 47.536 15.7161H41.841C41.5392 14.8224 41.0239 14.1274 40.2946 13.6309C39.5907 13.1096 38.7106 12.8489 37.6545 12.8489C36.1459 12.8489 34.9517 13.395 34.0716 14.4873C33.1914 15.5547 32.7515 17.0814 32.7515 19.0674C32.7515 21.0285 33.1914 22.5552 34.0716 23.6474C34.9517 24.7149 36.1459 25.2486 37.6545 25.2486C39.7916 25.2486 41.1871 24.3053 41.841 22.4186H47.536C46.9576 24.6528 45.8138 26.4278 44.1039 27.7434C42.394 29.0591 40.2569 29.717 37.6922 29.717C35.6806 29.717 33.8956 29.2826 32.3366 28.4137C30.7776 27.52 29.5584 26.2788 28.6782 24.6901C27.7982 23.0765 27.3582 21.2023 27.3582 19.0674ZM50.0464 18.9929C50.0464 16.9077 50.4613 15.0583 51.291 13.4447C52.1458 11.8311 53.29 10.5899 54.7232 9.72105C56.1814 8.85219 57.8032 8.41778 59.5885 8.41778C61.1475 8.41778 62.5052 8.72809 63.6617 9.34869C64.8436 9.96928 65.7865 10.7512 66.4904 11.6946V8.7529H71.8083V29.3818H66.4904V26.3657C65.8115 27.3339 64.8686 28.1406 63.6617 28.7861C62.4799 29.4066 61.1097 29.717 59.5507 29.717C57.7908 29.717 56.1814 29.2701 54.7232 28.3765C53.29 27.4828 52.1458 26.2292 51.291 24.6156C50.4613 22.9772 50.0464 21.103 50.0464 18.9929ZM66.4904 19.0674C66.4904 17.8013 66.2391 16.7215 65.7361 15.8278C65.2331 14.9093 64.5542 14.2142 63.6995 13.7426C62.8447 13.2461 61.9268 12.9978 60.9462 12.9978C59.9656 12.9978 59.0604 13.2337 58.2307 13.7053C57.401 14.177 56.7221 14.8721 56.1941 15.7906C55.6911 16.6842 55.4398 17.7517 55.4398 18.9929C55.4398 20.2341 55.6911 21.3264 56.1941 22.2697C56.7221 23.1882 57.401 23.8957 58.2307 24.3922C59.0855 24.8887 59.9907 25.1369 60.9462 25.1369C61.9268 25.1369 62.8447 24.9011 63.6995 24.4294C64.5542 23.9329 65.2331 23.2379 65.7361 22.3442C66.2391 21.4257 66.4904 20.3334 66.4904 19.0674ZM75.6075 18.9929C75.6075 16.9077 76.0224 15.0583 76.8521 13.4447C77.7069 11.8311 78.8637 10.5899 80.322 9.72105C81.7802 8.85219 83.402 8.41778 85.1873 8.41778C86.545 8.41778 87.84 8.71567 89.072 9.31145C90.3039 9.88242 91.2845 10.652 92.0138 11.6201V1.82694H97.3694V29.3818H92.0138V26.3285C91.36 27.3463 90.4424 28.1655 89.2606 28.7861C88.0787 29.4066 86.7086 29.717 85.1496 29.717C83.3896 29.717 81.7802 29.2701 80.322 28.3765C78.8637 27.4828 77.7069 26.2292 76.8521 24.6156C76.0224 22.9772 75.6075 21.103 75.6075 18.9929ZM92.0515 19.0674C92.0515 17.8013 91.8002 16.7215 91.2972 15.8278C90.7942 14.9093 90.1153 14.2142 89.2606 13.7426C88.4058 13.2461 87.4879 12.9978 86.5073 12.9978C85.5267 12.9978 84.6215 13.2337 83.7918 13.7053C82.9621 14.177 82.2832 14.8721 81.7552 15.7906C81.2522 16.6842 81.0009 17.7517 81.0009 18.9929C81.0009 20.2341 81.2522 21.3264 81.7552 22.2697C82.2832 23.1882 82.9621 23.8957 83.7918 24.3922C84.6466 24.8887 85.5518 25.1369 86.5073 25.1369C87.4879 25.1369 88.4058 24.9011 89.2606 24.4294C90.1153 23.9329 90.7942 23.2379 91.2972 22.3442C91.8002 21.4257 92.0515 20.3334 92.0515 19.0674ZM121.95 18.6205C121.95 19.3653 121.9 20.0355 121.799 20.6313H106.524C106.65 22.1208 107.178 23.2875 108.108 24.1315C109.039 24.9755 110.183 25.3976 111.54 25.3976C113.502 25.3976 114.897 24.5659 115.727 22.9027H121.422C120.818 24.8887 119.662 26.5271 117.952 27.8179C116.242 29.084 114.143 29.717 111.654 29.717C109.642 29.717 107.832 29.2826 106.223 28.4137C104.638 27.52 103.394 26.2664 102.489 24.6528C101.609 23.0392 101.169 21.1774 101.169 19.0674C101.169 16.9325 101.609 15.0583 102.489 13.4447C103.369 11.8311 104.601 10.5899 106.185 9.72105C107.769 8.85219 109.592 8.41778 111.654 8.41778C113.64 8.41778 115.412 8.8398 116.971 9.68381C118.555 10.5278 119.775 11.7318 120.63 13.2957C121.51 14.8349 121.95 16.6098 121.95 18.6205ZM116.481 17.1311C116.456 15.7906 115.966 14.7231 115.01 13.9288C114.055 13.1096 112.885 12.7 111.503 12.7C110.195 12.7 109.089 13.0971 108.184 13.8915C107.304 14.6611 106.763 15.7409 106.562 17.1311H116.481ZM151.752 8.45501C154.317 8.45501 156.379 9.23698 157.938 10.8009C159.522 12.34 160.314 14.4997 160.314 17.28V29.3818H155.033V17.9875C155.033 16.3739 154.619 15.1451 153.789 14.3011C152.959 13.4323 151.828 12.9978 150.394 12.9978C148.961 12.9978 147.817 13.4323 146.962 14.3011C146.133 15.1451 145.718 16.3739 145.718 17.9875V29.3818H140.438V17.9875C140.438 16.3739 140.023 15.1451 139.193 14.3011C138.363 13.4323 137.232 12.9978 135.799 12.9978C134.34 12.9978 133.184 13.4323 132.329 14.3011C131.499 15.1451 131.084 16.3739 131.084 17.9875V29.3818H125.804V8.7529H131.084V11.2477C131.763 10.3789 132.63 9.69623 133.686 9.19974C134.768 8.70325 135.949 8.45501 137.232 8.45501C138.866 8.45501 140.324 8.80256 141.607 9.49763C142.889 10.1679 143.882 11.136 144.586 12.4021C145.265 11.2105 146.246 10.2548 147.528 9.53487C148.835 8.81495 150.244 8.45501 151.752 8.45501ZM168.002 6.2953C167.072 6.2953 166.292 6.00983 165.664 5.43887C165.06 4.84308 164.758 4.11078 164.758 3.24192C164.758 2.37307 165.06 1.65317 165.664 1.08221C166.292 0.486427 167.072 0.188538 168.002 0.188538C168.932 0.188538 169.699 0.486427 170.303 1.08221C170.931 1.65317 171.246 2.37307 171.246 3.24192C171.246 4.11078 170.931 4.84308 170.303 5.43887C169.699 6.00983 168.932 6.2953 168.002 6.2953ZM170.604 8.7529V29.3818H165.324V8.7529H170.604ZM174.463 19.0674C174.463 16.9325 174.903 15.0707 175.783 13.4819C176.664 11.8683 177.883 10.6271 179.442 9.75828C181.001 8.86461 182.786 8.41778 184.798 8.41778C187.387 8.41778 189.525 9.06322 191.209 10.3541C192.919 11.6201 194.063 13.4074 194.641 15.7161H188.946C188.644 14.8224 188.129 14.1274 187.4 13.6309C186.696 13.1096 185.816 12.8489 184.76 12.8489C183.251 12.8489 182.057 13.395 181.177 14.4873C180.297 15.5547 179.857 17.0814 179.857 19.0674C179.857 21.0285 180.297 22.5552 181.177 23.6474C182.057 24.7149 183.251 25.2486 184.76 25.2486C186.897 25.2486 188.292 24.3053 188.946 22.4186H194.641C194.063 24.6528 192.919 26.4278 191.209 27.7434C189.499 29.0591 187.362 29.717 184.798 29.717C182.786 29.717 181.001 29.2826 179.442 28.4137C177.883 27.52 176.664 26.2788 175.783 24.6901C174.903 23.0765 174.463 21.2023 174.463 19.0674Z" fill="#007FFE"/>
<g filter="url(#filter1_i_37_34)">
<path d="M211.855 17.7455H197.712V21.2364H211.855V17.7455Z" fill="#06B7E4"/>
</g>
<defs>
<filter id="filter0_i_37_34" x="207.487" y="7.96161" width="64.4331" height="25.632" filterUnits="userSpaceOnUse" color-interpolation-filters="sRGB">
<feFlood flood-opacity="0" result="BackgroundImageFix"/>
<feBlend mode="normal" in="SourceGraphic" in2="BackgroundImageFix" result="shape"/>
<feColorMatrix in="SourceAlpha" type="matrix" values="0 0 0 0 0 0 0 0 0 0 0 0 0 0 0 0 0 0 127 0" result="hardAlpha"/>
<feOffset dy="4"/>
<feGaussianBlur stdDeviation="2"/>
<feComposite in2="hardAlpha" operator="arithmetic" k2="-1" k3="1"/>
<feColorMatrix type="matrix" values="0 0 0 0 0 0 0 0 0 0 0 0 0 0 0 0 0 0 0.1 0"/>
<feBlend mode="normal" in2="shape" result="effect1_innerShadow_37_34"/>
</filter>
<filter id="filter1_i_37_34" x="197.712" y="17.7455" width="14.1433" height="7.49091" filterUnits="userSpaceOnUse" color-interpolation-filters="sRGB">
<feFlood flood-opacity="0" result="BackgroundImageFix"/>
<feBlend mode="normal" in="SourceGraphic" in2="BackgroundImageFix" result="shape"/>
<feColorMatrix in="SourceAlpha" type="matrix" values="0 0 0 0 0 0 0 0 0 0 0 0 0 0 0 0 0 0 127 0" result="hardAlpha"/>
<feOffset dy="4"/>
<feGaussianBlur stdDeviation="2"/>
<feComposite in2="hardAlpha" operator="arithmetic" k2="-1" k3="1"/>
<feColorMatrix type="matrix" values="0 0 0 0 0 0 0 0 0 0 0 0 0 0 0 0 0 0 0.1 0"/>
<feBlend mode="normal" in2="shape" result="effect1_innerShadow_37_34"/>
</filter>
<linearGradient id="paint0_linear_37_34" x1="205.373" y1="18.9091" x2="273.732" y2="18.9091" gradientUnits="userSpaceOnUse">
<stop stop-color="#06B7E4"/>
<stop offset="1" stop-color="#45DAFF"/>
</linearGradient>
</defs>
</svg>
