<svg width="107" height="96" viewBox="0 0 107 96" fill="none" xmlns="http://www.w3.org/2000/svg">
<g clip-path="url(#clip0_20_701)">
<path d="M54.78 0.209281L51.2995 1.10681L8.41984 12.1646L4.9394 13.0622C3.25004 13.4998 1.80327 14.5898 0.916511 16.0928C0.0297492 17.5959 -0.22459 19.3893 0.209292 21.0797L15.3012 79.6028C15.7389 81.2922 16.8288 82.7389 18.3319 83.6257C19.8349 84.5125 21.6284 84.7668 23.3187 84.3329L23.3277 84.3306L73.1503 71.4824L73.1593 71.4801C74.8486 71.0424 76.2954 69.9524 77.1822 68.4494C78.0689 66.9463 78.3233 65.1529 77.8894 63.4626L62.7975 4.93942C62.3598 3.25005 61.2698 1.80328 59.7668 0.916514C58.2637 0.0297466 56.4703 -0.224598 54.78 0.209281Z" fill="#F0F0F0"/>
<path d="M55.2532 2.04415L51.1309 3.10722L9.53486 13.834L5.41258 14.8971C4.20955 15.2087 3.17927 15.9849 2.54778 17.0552C1.91629 18.1256 1.73517 19.4028 2.04414 20.6065L17.1361 79.1296C17.4478 80.3327 18.2239 81.3629 19.2943 81.9944C20.3647 82.6259 21.6418 82.807 22.8455 82.4981L22.8545 82.4957L72.6771 69.6475L72.6861 69.6452C73.8892 69.3335 74.9194 68.5573 75.5509 67.487C76.1824 66.4166 76.3635 65.1395 76.0545 63.9357L60.9626 5.4126C60.6509 4.20957 59.8748 3.1793 58.8044 2.54781C57.7341 1.91633 56.4569 1.73519 55.2532 2.04415Z" fill="white"/>
<path d="M52.1405 20.9955L26.9365 27.4951C26.655 27.5677 26.3561 27.5255 26.1058 27.3778C25.8554 27.23 25.6739 26.9889 25.6013 26.7074C25.5287 26.4259 25.5709 26.1271 25.7187 25.8767C25.8664 25.6263 26.1075 25.4449 26.389 25.3723L51.5931 18.8727C51.8745 18.8004 52.1731 18.8427 52.4232 18.9905C52.6734 19.1382 52.8547 19.3793 52.9272 19.6606C52.9998 19.9419 52.9577 20.2406 52.8102 20.4909C52.6626 20.7412 52.4218 20.9227 52.1405 20.9955Z" fill="#F0F0F0"/>
<path d="M57.4426 23.4487L27.8602 31.0774C27.5787 31.15 27.2799 31.1078 27.0295 30.96C26.7792 30.8123 26.5977 30.5712 26.5251 30.2897C26.4525 30.0082 26.4947 29.7094 26.6424 29.459C26.7902 29.2086 27.0313 29.0271 27.3128 28.9545L56.8952 21.3259C57.1767 21.2533 57.4755 21.2955 57.7259 21.4432C57.9763 21.5909 58.1577 21.832 58.2303 22.1135C58.3029 22.395 58.2607 22.6939 58.113 22.9442C57.9652 23.1946 57.7241 23.3761 57.4426 23.4487Z" fill="#F0F0F0"/>
<path d="M56.2805 37.0493L31.0764 43.5489C30.937 43.5849 30.7919 43.593 30.6494 43.5729C30.5069 43.5528 30.3697 43.5047 30.2457 43.4316C30.1217 43.3585 30.0134 43.2616 29.9268 43.1466C29.8403 43.0316 29.7772 42.9006 29.7413 42.7612C29.7053 42.6219 29.6972 42.4768 29.7173 42.3342C29.7375 42.1917 29.7855 42.0545 29.8586 41.9305C29.9318 41.8066 30.0286 41.6982 30.1436 41.6117C30.2587 41.5251 30.3896 41.4621 30.529 41.4261L55.733 34.9265C55.8724 34.8905 56.0175 34.8824 56.16 34.9025C56.3026 34.9227 56.4397 34.9707 56.5637 35.0438C56.6877 35.117 56.7961 35.2138 56.8826 35.3288C56.9692 35.4439 57.0322 35.5748 57.0681 35.7142C57.1041 35.8536 57.1122 35.9987 57.0921 36.1412C57.072 36.2837 57.024 36.4209 56.9508 36.5449C56.8777 36.6689 56.7808 36.7772 56.6658 36.8638C56.5508 36.9503 56.4198 37.0134 56.2805 37.0493Z" fill="#F0F0F0"/>
<path d="M61.5826 39.5025L32.0002 47.1312C31.8608 47.1671 31.7157 47.1753 31.5732 47.1551C31.4307 47.135 31.2935 47.087 31.1695 47.0139C31.0455 46.9407 30.9372 46.8439 30.8506 46.7288C30.7641 46.6138 30.701 46.4829 30.6651 46.3435C30.6291 46.2041 30.621 46.059 30.6411 45.9165C30.6613 45.7739 30.7093 45.6368 30.7824 45.5128C30.8556 45.3888 30.9524 45.2805 31.0674 45.1939C31.1824 45.1074 31.3134 45.0443 31.4528 45.0084L61.0351 37.3797C61.3166 37.3071 61.6154 37.3493 61.8658 37.497C62.1162 37.6447 62.2977 37.8859 62.3703 38.1674C62.4428 38.4489 62.4006 38.7477 62.2529 38.9981C62.1052 39.2484 61.8641 39.4299 61.5826 39.5025Z" fill="#F0F0F0"/>
<path d="M60.4204 53.1031L35.2164 59.6027C34.935 59.6751 34.6363 59.6328 34.3861 59.485C34.1359 59.3373 33.9545 59.0962 33.882 58.8149C33.8094 58.5335 33.8516 58.2348 33.9991 57.9845C34.1467 57.7342 34.3876 57.5527 34.6689 57.4799L59.873 50.9803C60.1545 50.9077 60.4533 50.9499 60.7037 51.0976C60.9541 51.2454 61.1355 51.4865 61.2081 51.768C61.2807 52.0495 61.2385 52.3483 61.0908 52.5987C60.9431 52.8491 60.7019 53.0305 60.4204 53.1031Z" fill="#F0F0F0"/>
<path d="M65.7225 55.5563L36.1402 63.185C36.0007 63.2211 35.8555 63.2293 35.7129 63.2093C35.5703 63.1892 35.433 63.1413 35.3089 63.0681C35.1849 62.995 35.0764 62.8981 34.9898 62.7831C34.9032 62.668 34.8401 62.537 34.8041 62.3975C34.7681 62.2581 34.76 62.1129 34.7802 61.9703C34.8003 61.8277 34.8484 61.6904 34.9217 61.5664C34.9949 61.4424 35.0919 61.334 35.207 61.2475C35.3222 61.161 35.4532 61.098 35.5927 61.0622L65.1751 53.4335C65.4566 53.3609 65.7554 53.4031 66.0058 53.5508C66.2562 53.6985 66.4376 53.9397 66.5102 54.2212C66.5828 54.5027 66.5406 54.8015 66.3929 55.0519C66.2452 55.3022 66.004 55.4837 65.7225 55.5563Z" fill="#F0F0F0"/>
<path d="M22.6338 34.1595L13.7143 36.4597C13.5793 36.4943 13.4361 36.474 13.3161 36.4032C13.1961 36.3324 13.109 36.2169 13.0741 36.082L11.0266 28.1424C10.992 28.0074 11.0123 27.8642 11.0831 27.7442C11.1539 27.6242 11.2694 27.5371 11.4043 27.5022L20.3238 25.202C20.4588 25.1674 20.602 25.1877 20.722 25.2585C20.842 25.3293 20.9291 25.4448 20.964 25.5797L23.0115 33.5193C23.0461 33.6543 23.0258 33.7975 22.955 33.9175C22.8842 34.0375 22.7687 34.1246 22.6338 34.1595Z" fill="#CCCCCC"/>
<path d="M26.7737 50.2133L17.8542 52.5135C17.7193 52.5481 17.5761 52.5278 17.456 52.457C17.336 52.3862 17.249 52.2707 17.214 52.1358L15.1666 44.1962C15.1319 44.0612 15.1523 43.918 15.2231 43.798C15.2939 43.678 15.4094 43.591 15.5443 43.556L24.4638 41.2559C24.5987 41.2212 24.7419 41.2415 24.862 41.3123C24.982 41.3832 25.069 41.4987 25.104 41.6336L27.1514 49.5731C27.1861 49.7081 27.1657 49.8513 27.0949 49.9713C27.0241 50.0914 26.9086 50.1784 26.7737 50.2133Z" fill="#CCCCCC"/>
<path d="M30.9137 66.2671L21.9942 68.5673C21.8592 68.6019 21.716 68.5816 21.596 68.5108C21.476 68.44 21.389 68.3245 21.354 68.1896L19.3066 60.25C19.2719 60.1151 19.2922 59.9718 19.363 59.8518C19.4338 59.7318 19.5494 59.6448 19.6843 59.6098L28.6037 57.3097C28.7387 57.275 28.8819 57.2953 29.0019 57.3661C29.1219 57.437 29.209 57.5525 29.2439 57.6874L31.2914 65.6269C31.326 65.7619 31.3057 65.9051 31.2349 66.0252C31.1641 66.1452 31.0486 66.2322 30.9137 66.2671Z" fill="#CCCCCC"/>
<path d="M89.5413 15.0442H38.0701C36.325 15.0461 34.6519 15.7403 33.4179 16.9743C32.1839 18.2083 31.4898 19.8814 31.4878 21.6265V82.0643C31.4898 83.8094 32.1839 85.4825 33.4179 86.7165C34.6519 87.9505 36.325 88.6447 38.0701 88.6466H89.5413C91.2864 88.6447 92.9595 87.9505 94.1935 86.7165C95.4275 85.4825 96.1216 83.8094 96.1236 82.0643V21.6265C96.1216 19.8814 95.4275 18.2083 94.1935 16.9743C92.9595 15.7403 91.2864 15.0461 89.5413 15.0442Z" fill="#CCCCCC"/>
<path d="M89.5413 16.9391H38.0701C36.8274 16.9405 35.6359 17.4348 34.7572 18.3135C33.8784 19.1923 33.3841 20.3838 33.3827 21.6265V82.0643C33.3841 83.3071 33.8784 84.4985 34.7572 85.3773C35.6359 86.256 36.8274 86.7503 38.0701 86.7517H89.5413C90.7841 86.7503 91.9755 86.256 92.8543 85.3773C93.733 84.4985 94.2273 83.307 94.2287 82.0643V21.6265C94.2273 20.3838 93.733 19.1923 92.8543 18.3136C91.9755 17.4348 90.7841 16.9405 89.5413 16.9391Z" fill="white"/>
<path d="M94.9487 96C101.585 96 106.965 90.6204 106.965 83.9842C106.965 77.3481 101.585 71.9684 94.9487 71.9684C88.3126 71.9684 82.933 77.3481 82.933 83.9842C82.933 90.6204 88.3126 96 94.9487 96Z" fill="#007FFE"/>
<path d="M100.695 82.4169H96.516V78.2375C96.516 77.8219 96.3509 77.4232 96.057 77.1293C95.7631 76.8354 95.3644 76.6703 94.9488 76.6703C94.5331 76.6703 94.1344 76.8354 93.8405 77.1293C93.5466 77.4232 93.3815 77.8219 93.3815 78.2375V82.4169H89.2021C88.7864 82.4169 88.3878 82.5821 88.0938 82.876C87.7999 83.1699 87.6348 83.5685 87.6348 83.9842C87.6348 84.3999 87.7999 84.7985 88.0938 85.0924C88.3878 85.3864 88.7864 85.5515 89.2021 85.5515H93.3815V89.7309C93.3815 90.1466 93.5466 90.5452 93.8405 90.8391C94.1344 91.133 94.5331 91.2982 94.9488 91.2982C95.3644 91.2982 95.7631 91.133 96.057 90.8391C96.3509 90.5452 96.516 90.1466 96.516 89.7309V85.5515H100.695C101.111 85.5515 101.51 85.3864 101.804 85.0924C102.098 84.7985 102.263 84.3999 102.263 83.9842C102.263 83.5685 102.098 83.1699 101.804 82.876C101.51 82.5821 101.111 82.4169 100.695 82.4169Z" fill="white"/>
<path d="M81.7949 50.1495H55.7663C55.6222 50.1497 55.4796 50.1214 55.3464 50.0664C55.2133 50.0114 55.0923 49.9307 54.9904 49.8289C54.8885 49.7271 54.8076 49.6062 54.7525 49.4731C54.6973 49.34 54.6689 49.1974 54.6689 49.0534C54.6689 48.9093 54.6973 48.7667 54.7525 48.6336C54.8076 48.5005 54.8885 48.3796 54.9904 48.2778C55.0923 48.176 55.2133 48.0953 55.3464 48.0403C55.4796 47.9853 55.6222 47.9571 55.7663 47.9572H81.7949C82.0854 47.9576 82.3639 48.0732 82.5692 48.2787C82.7745 48.4842 82.8898 48.7629 82.8898 49.0534C82.8898 49.3439 82.7745 49.6225 82.5692 49.828C82.3639 50.0335 82.0854 50.1492 81.7949 50.1495Z" fill="#CCCCCC"/>
<path d="M86.3164 53.8489H55.7663C55.6222 53.8491 55.4796 53.8209 55.3464 53.7659C55.2133 53.7108 55.0923 53.6301 54.9904 53.5283C54.8885 53.4265 54.8076 53.3056 54.7525 53.1726C54.6973 53.0395 54.6689 52.8969 54.6689 52.7528C54.6689 52.6088 54.6973 52.4661 54.7525 52.3331C54.8076 52.2 54.8885 52.0791 54.9904 51.9773C55.0923 51.8755 55.2133 51.7948 55.3464 51.7398C55.4796 51.6847 55.6222 51.6565 55.7663 51.6567H86.3164C86.6072 51.6567 86.886 51.7722 87.0915 51.9777C87.2971 52.1833 87.4126 52.4621 87.4126 52.7528C87.4126 53.0435 87.2971 53.3223 87.0915 53.5279C86.886 53.7335 86.6072 53.8489 86.3164 53.8489Z" fill="#CCCCCC"/>
<path d="M81.7949 66.7285H55.7663C55.6222 66.7287 55.4796 66.7005 55.3464 66.6454C55.2133 66.5904 55.0923 66.5097 54.9904 66.4079C54.8885 66.3061 54.8076 66.1852 54.7525 66.0521C54.6973 65.9191 54.6689 65.7764 54.6689 65.6324C54.6689 65.4883 54.6973 65.3457 54.7525 65.2126C54.8076 65.0796 54.8885 64.9587 54.9904 64.8569C55.0923 64.7551 55.2133 64.6744 55.3464 64.6193C55.4796 64.5643 55.6222 64.5361 55.7663 64.5363H81.7949C82.0856 64.5363 82.3644 64.6517 82.57 64.8573C82.7755 65.0629 82.891 65.3417 82.891 65.6324C82.891 65.9231 82.7755 66.2019 82.57 66.4075C82.3644 66.613 82.0856 66.7285 81.7949 66.7285Z" fill="#CCCCCC"/>
<path d="M86.3164 70.428H55.7663C55.6222 70.4282 55.4796 70.3999 55.3464 70.3449C55.2133 70.2899 55.0923 70.2092 54.9904 70.1074C54.8885 70.0056 54.8076 69.8847 54.7525 69.7516C54.6973 69.6185 54.6689 69.4759 54.6689 69.3319C54.6689 69.1878 54.6973 69.0452 54.7525 68.9121C54.8076 68.779 54.8885 68.6581 54.9904 68.5563C55.0923 68.4545 55.2133 68.3738 55.3464 68.3188C55.4796 68.2638 55.6222 68.2356 55.7663 68.2357H86.3164C86.4605 68.2356 86.6032 68.2638 86.7363 68.3188C86.8694 68.3738 86.9904 68.4545 87.0923 68.5563C87.1942 68.6581 87.2751 68.779 87.3302 68.9121C87.3854 69.0452 87.4138 69.1878 87.4138 69.3319C87.4138 69.4759 87.3854 69.6185 87.3302 69.7516C87.2751 69.8847 87.1942 70.0056 87.0923 70.1074C86.9904 70.2092 86.8694 70.2899 86.7363 70.3449C86.6032 70.3999 86.4605 70.4282 86.3164 70.428Z" fill="#CCCCCC"/>
<path d="M49.9357 55.5283H40.7244C40.5851 55.5282 40.4515 55.4728 40.353 55.3742C40.2544 55.2757 40.199 55.1421 40.1988 55.0027V46.8034C40.199 46.6641 40.2544 46.5305 40.353 46.4319C40.4515 46.3334 40.5851 46.278 40.7244 46.2778H49.9357C50.0751 46.278 50.2087 46.3334 50.3072 46.4319C50.4057 46.5305 50.4612 46.6641 50.4613 46.8034V55.0027C50.4612 55.1421 50.4057 55.2757 50.3072 55.3742C50.2087 55.4728 50.0751 55.5282 49.9357 55.5283Z" fill="#CCCCCC"/>
<path d="M49.9357 72.1074H40.7244C40.5851 72.1072 40.4515 72.0518 40.353 71.9533C40.2544 71.8547 40.199 71.7211 40.1988 71.5818V63.3825C40.199 63.2431 40.2544 63.1095 40.353 63.011C40.4515 62.9125 40.5851 62.857 40.7244 62.8569H49.9357C50.0751 62.857 50.2087 62.9125 50.3072 63.011C50.4057 63.1095 50.4612 63.2431 50.4613 63.3825V71.5818C50.4612 71.7211 50.4057 71.8547 50.3072 71.9533C50.2087 72.0518 50.0751 72.1072 49.9357 72.1074Z" fill="#CCCCCC"/>
<path d="M81.8238 31.6938H62.6339C62.3432 31.6938 62.0644 31.5783 61.8588 31.3727C61.6533 31.1671 61.5378 30.8883 61.5378 30.5976C61.5378 30.3069 61.6533 30.0281 61.8588 29.8225C62.0644 29.617 62.3432 29.5015 62.6339 29.5015H81.8238C82.1145 29.5015 82.3933 29.617 82.5988 29.8225C82.8044 30.0281 82.9199 30.3069 82.9199 30.5976C82.9199 30.8883 82.8044 31.1671 82.5988 31.3727C82.3933 31.5783 82.1145 31.6938 81.8238 31.6938Z" fill="#CCCCCC"/>
<path d="M86.3453 35.3932H62.6339C62.49 35.3932 62.3474 35.3649 62.2145 35.3098C62.0815 35.2547 61.9606 35.1739 61.8588 35.0722C61.7571 34.9704 61.6763 34.8495 61.6212 34.7165C61.5661 34.5836 61.5378 34.441 61.5378 34.2971C61.5378 34.1531 61.5661 34.0106 61.6212 33.8776C61.6763 33.7446 61.7571 33.6238 61.8588 33.522C61.9606 33.4202 62.0815 33.3395 62.2145 33.2844C62.3474 33.2293 62.49 33.2009 62.6339 33.2009H86.3453C86.636 33.2009 86.9148 33.3164 87.1204 33.522C87.326 33.7276 87.4415 34.0064 87.4415 34.2971C87.4415 34.5878 87.326 34.8666 87.1204 35.0722C86.9148 35.2777 86.636 35.3932 86.3453 35.3932Z" fill="#CCCCCC"/>
<path d="M58.3869 39.8765H40.6955C40.5562 39.8764 40.4226 39.8209 40.3241 39.7224C40.2255 39.6239 40.1701 39.4903 40.17 39.3509V25.5438C40.1701 25.4044 40.2255 25.2708 40.3241 25.1723C40.4226 25.0738 40.5562 25.0184 40.6955 25.0182H58.3869C58.5263 25.0184 58.6599 25.0738 58.7584 25.1723C58.8569 25.2708 58.9124 25.4044 58.9125 25.5438V39.3509C58.9124 39.4903 58.8569 39.6239 58.7584 39.7224C58.6599 39.8209 58.5263 39.8764 58.3869 39.8765Z" fill="#007FFE"/>
</g>
<defs>
<clipPath id="clip0_20_701">
<rect width="106.965" height="96" fill="white"/>
</clipPath>
</defs>
</svg>
