<svg width="107" height="96" viewBox="0 0 107 96" fill="none" xmlns="http://www.w3.org/2000/svg">
<g clip-path="url(#clip0_20_700)">
<path d="M46.3767 79.3968H2.10241C1.54501 79.3962 1.01062 79.1745 0.616474 78.7804C0.222332 78.3862 0.000627315 77.8518 0 77.2944V17.1903C0.000627316 16.6329 0.222332 16.0985 0.616474 15.7044C1.01062 15.3102 1.54501 15.0885 2.10241 15.0879H46.3767C46.9341 15.0885 47.4684 15.3102 47.8626 15.7044C48.2567 16.0985 48.4784 16.6329 48.4791 17.1903V77.2944C48.4784 77.8518 48.2567 78.3862 47.8626 78.7804C47.4684 79.1745 46.9341 79.3962 46.3767 79.3968Z" fill="white"/>
<path d="M22.2437 30.7301C22.2437 32.466 21.6945 34.1574 20.6748 35.5622C19.6551 36.967 18.2172 38.0132 16.5667 38.5511C16.5174 38.5668 16.4681 38.5825 16.4179 38.5974C16.2041 38.6632 15.9874 38.7193 15.7668 38.7671C15.3677 38.8537 14.9626 38.91 14.555 38.9353C14.3779 38.9473 14.1997 38.9533 14.0205 38.9533C13.0948 38.9542 12.1755 38.7985 11.3017 38.4928C11.2763 38.4838 11.2509 38.4748 11.2262 38.4659C9.81036 37.9545 8.56205 37.0644 7.61728 35.8925C6.6725 34.7206 6.0675 33.3118 5.86821 31.8198C5.66891 30.3277 5.88296 28.8095 6.48703 27.4307C7.09111 26.0519 8.06203 24.8654 9.29401 24.0004C10.526 23.1354 11.9717 22.6251 13.4737 22.5252C14.9757 22.4252 16.4763 22.7395 17.8121 23.4336C19.1478 24.1278 20.2674 25.1752 21.0488 26.4618C21.8302 27.7484 22.2435 29.2248 22.2437 30.7302V30.7301Z" fill="white"/>
<path d="M13.8235 36.1783C16.0331 36.1783 17.8244 34.3871 17.8244 32.1774C17.8244 29.9678 16.0331 28.1766 13.8235 28.1766C11.6139 28.1766 9.82265 29.9678 9.82265 32.1774C9.82265 34.3871 11.6139 36.1783 13.8235 36.1783Z" fill="#007FFE"/>
<path d="M14.0571 34.3331L14.0612 34.1836C13.7831 34.1759 13.5379 34.1584 13.3536 34.0238C13.3014 33.9835 13.2584 33.9323 13.2277 33.8739C13.197 33.8155 13.1792 33.7512 13.1756 33.6853C13.1724 33.645 13.1784 33.6045 13.1934 33.567C13.2083 33.5295 13.2317 33.4959 13.2618 33.4689C13.3314 33.4267 13.4111 33.404 13.4925 33.4033C13.5739 33.4026 13.654 33.4238 13.7244 33.4648L13.8481 33.5215L13.6108 31.7879L13.4627 31.8082L13.6645 33.2829C13.5819 33.2522 13.493 33.2427 13.4057 33.2553C13.3185 33.2678 13.2359 33.302 13.1653 33.3547C13.1178 33.3962 13.0805 33.4481 13.0564 33.5063C13.0322 33.5646 13.0219 33.6276 13.0262 33.6905C13.0306 33.7791 13.0542 33.8656 13.0956 33.944C13.1369 34.0224 13.1949 34.0909 13.2654 34.1445C13.5022 34.3176 13.8099 34.3262 14.0571 34.3331Z" fill="#2F2E41"/>
<path d="M12.7302 31.9354H11.9249V32.0849H12.7302V31.9354Z" fill="#2F2E41"/>
<path d="M15.2719 31.9354H14.4666V32.0849H15.2719V31.9354Z" fill="#2F2E41"/>
<path d="M14.9602 37.7706C14.9708 37.7215 14.9763 37.6714 14.9767 37.6211C14.9764 37.4329 14.9014 37.2524 14.7683 37.1193C14.6352 36.9862 14.4547 36.9112 14.2665 36.9109H13.2199C13.0316 36.9111 12.8511 36.986 12.7179 37.1191C12.5848 37.2523 12.5099 37.4328 12.5097 37.6211C12.5097 37.6717 12.5152 37.7221 12.5261 37.7714C12.1311 37.8959 11.7576 38.0807 11.419 38.3194C11.3532 38.3649 11.2882 38.4143 11.2262 38.4659C11.2508 38.4748 11.2763 38.4838 11.3017 38.4928C12.1755 38.7985 13.0948 38.9542 14.0205 38.9533C14.1999 38.9533 14.3781 38.9473 14.555 38.9353C14.9626 38.91 15.3677 38.8537 15.7668 38.7671C15.9874 38.7193 16.2041 38.6632 16.4179 38.5974C15.995 38.2233 15.4984 37.9416 14.9602 37.7706Z" fill="#2F2E41"/>
<path d="M14.8256 38.8404C14.7286 38.8476 14.6352 38.8803 14.555 38.9353C14.9626 38.91 15.3677 38.8537 15.7668 38.7671L14.8256 38.8404Z" fill="#2F2E41"/>
<path d="M17.4521 31.227L10.5017 28.6844C10.4272 28.6571 10.3666 28.6014 10.3332 28.5295C10.2998 28.4576 10.2964 28.3753 10.3236 28.3008L10.3471 28.1897C10.89 26.7059 12.6891 25.7721 14.1729 26.3149L16.3116 27.0973C17.7954 27.6401 18.4403 29.3971 17.8975 30.8809L17.8356 31.0489C17.8084 31.1234 17.7526 31.184 17.6807 31.2174C17.6088 31.2508 17.5265 31.2543 17.4521 31.227Z" fill="#2F2E41"/>
<path d="M17.8264 31.3681C8.13904 31.7256 7.29256 30.5084 10.2442 28.5943L10.8704 27.4421L18.047 30.0586L17.8264 31.3681Z" fill="#2F2E41"/>
<path d="M15.9269 26.9148C15.9804 26.7369 15.7513 26.5108 15.4152 26.4098C15.0792 26.3087 14.7634 26.3711 14.7099 26.549C14.6564 26.7269 14.8855 26.9531 15.2216 27.0541C15.5576 27.1551 15.8734 27.0928 15.9269 26.9148Z" fill="#2F2E41"/>
<path d="M14.0205 39.1776C13.0695 39.1786 12.1251 39.0186 11.2275 38.7045L11.1495 38.6766C9.26922 37.9971 7.69091 36.6728 6.69524 34.9391C5.69956 33.2054 5.35106 31.1747 5.71172 29.2082C6.07238 27.2418 7.11881 25.4669 8.66493 24.1994C10.211 22.9319 12.1566 22.2538 14.1556 22.2858C16.1546 22.3178 18.0775 23.0577 19.5823 24.374C21.0871 25.6903 22.0762 27.4977 22.3738 29.4747C22.6714 31.4517 22.2582 33.4702 21.2075 35.1712C20.1569 36.8721 18.5371 38.1454 16.6361 38.7644C16.5829 38.7813 16.5329 38.7972 16.4821 38.8123C16.2698 38.8777 16.0445 38.9364 15.8143 38.9863C15.4041 39.0752 14.9878 39.133 14.5688 39.1591C14.3888 39.1713 14.2039 39.1776 14.0205 39.1776ZM14.0205 22.7313C12.1383 22.7316 10.3164 23.3955 8.87529 24.6064C7.4342 25.8172 6.46621 27.4974 6.14157 29.3515C5.81692 31.2055 6.15641 33.1147 7.10034 34.7432C8.04426 36.3716 9.53215 37.6151 11.3023 38.2549L11.3764 38.2813C12.2262 38.5787 13.1202 38.7301 14.0205 38.729C14.1939 38.729 14.3686 38.7231 14.5399 38.7116C14.9366 38.6868 15.3309 38.6321 15.7194 38.5479C15.9371 38.5007 16.15 38.4453 16.352 38.3831C16.402 38.3682 16.4495 38.3531 16.497 38.3379C18.3076 37.7482 19.8485 36.532 20.8426 34.9078C21.8368 33.2837 22.219 31.3582 21.9206 29.4775C21.6221 27.5968 20.6626 25.8842 19.2145 24.6477C17.7665 23.4111 15.9248 22.7316 14.0205 22.7313Z" fill="#CCCCCC"/>
<path d="M46.3767 79.3968H2.10241C1.54501 79.3962 1.01062 79.1745 0.616474 78.7804C0.222332 78.3862 0.000627315 77.8518 0 77.2944V17.1903C0.000627316 16.6329 0.222332 16.0985 0.616474 15.7044C1.01062 15.3102 1.54501 15.0885 2.10241 15.0879H46.3767C46.9341 15.0885 47.4684 15.3102 47.8626 15.7044C48.2567 16.0985 48.4784 16.6329 48.4791 17.1903V77.2944C48.4784 77.8518 48.2567 78.3862 47.8626 78.7804C47.4684 79.1745 46.9341 79.3962 46.3767 79.3968ZM2.10241 15.3352C1.61058 15.3358 1.13907 15.5314 0.791296 15.8792C0.443525 16.227 0.2479 16.6985 0.247342 17.1903V77.2944C0.2479 77.7863 0.44352 78.2578 0.791291 78.6055C1.13906 78.9533 1.61058 79.1489 2.10241 79.1495H46.3767C46.8685 79.1489 47.34 78.9533 47.6878 78.6055C48.0355 78.2578 48.2312 77.7863 48.2317 77.2944V17.1903C48.2312 16.6985 48.0355 16.227 47.6878 15.8792C47.34 15.5314 46.8685 15.3358 46.3767 15.3352H2.10241Z" fill="#CCCCCC"/>
<path d="M37.8057 30.6981H25.2776C25.0149 30.6978 24.7632 30.5933 24.5776 30.4074C24.392 30.2216 24.2877 29.9697 24.2877 29.707C24.2877 29.4444 24.392 29.1925 24.5776 29.0066C24.7632 28.8208 25.0149 28.7162 25.2776 28.7159H37.8057C37.9359 28.7158 38.0649 28.7413 38.1853 28.791C38.3057 28.8407 38.4151 28.9137 38.5073 29.0058C38.5995 29.0978 38.6726 29.2071 38.7225 29.3275C38.7723 29.4478 38.798 29.5768 38.798 29.707C38.798 29.8373 38.7723 29.9663 38.7225 30.0866C38.6726 30.2069 38.5995 30.3162 38.5073 30.4083C38.4151 30.5003 38.3057 30.5733 38.1853 30.623C38.0649 30.6728 37.9359 30.6983 37.8057 30.6981Z" fill="#CCCCCC"/>
<path d="M41.894 34.0431H25.2776C25.0149 34.0428 24.7632 33.9383 24.5776 33.7524C24.392 33.5666 24.2877 33.3147 24.2877 33.052C24.2877 32.7894 24.392 32.5375 24.5776 32.3516C24.7632 32.1658 25.0149 32.0612 25.2776 32.0609H41.894C42.1567 32.0612 42.4084 32.1658 42.5941 32.3516C42.7797 32.5375 42.8839 32.7894 42.8839 33.052C42.8839 33.3147 42.7797 33.5666 42.5941 33.7524C42.4084 33.9383 42.1567 34.0428 41.894 34.0431Z" fill="#CCCCCC"/>
<path d="M37.7874 46.8727H6.58502C6.45477 46.8728 6.32575 46.8473 6.20536 46.7976C6.08497 46.7478 5.97557 46.6748 5.8834 46.5828C5.79124 46.4908 5.71813 46.3814 5.66824 46.2611C5.61836 46.1408 5.59268 46.0118 5.59268 45.8815C5.59268 45.7513 5.61836 45.6223 5.66824 45.502C5.71813 45.3816 5.79124 45.2723 5.8834 45.1803C5.97557 45.0882 6.08497 45.0153 6.20536 44.9655C6.32575 44.9158 6.45477 44.8903 6.58502 44.8904H37.7874C38.0501 44.8908 38.3019 44.9953 38.4875 45.1811C38.6731 45.367 38.7773 45.6189 38.7773 45.8815C38.7773 46.1442 38.6731 46.3961 38.4875 46.5819C38.3019 46.7678 38.0501 46.8723 37.7874 46.8727Z" fill="#CCCCCC"/>
<path d="M41.8758 50.2177H6.58502C6.45477 50.2178 6.32575 50.1923 6.20536 50.1426C6.08497 50.0928 5.97557 50.0199 5.8834 49.9278C5.79124 49.8358 5.71813 49.7264 5.66824 49.6061C5.61836 49.4858 5.59268 49.3568 5.59268 49.2265C5.59268 49.0963 5.61836 48.9673 5.66824 48.847C5.71813 48.7267 5.79124 48.6173 5.8834 48.5253C5.97557 48.4332 6.08497 48.3603 6.20536 48.3105C6.32575 48.2608 6.45477 48.2353 6.58502 48.2354H41.8758C42.006 48.2353 42.135 48.2608 42.2554 48.3105C42.3758 48.3603 42.4852 48.4332 42.5774 48.5253C42.6696 48.6173 42.7427 48.7267 42.7926 48.847C42.8424 48.9673 42.8681 49.0963 42.8681 49.2265C42.8681 49.3568 42.8424 49.4858 42.7926 49.6061C42.7427 49.7264 42.6696 49.8358 42.5774 49.9278C42.4852 50.0199 42.3758 50.0928 42.2554 50.1426C42.135 50.1923 42.006 50.2178 41.8758 50.2177Z" fill="#CCCCCC"/>
<path d="M37.7874 57.9058H6.58503C6.32217 57.9058 6.07008 57.8014 5.88421 57.6155C5.69834 57.4296 5.59392 57.1775 5.59392 56.9147C5.59392 56.6518 5.69834 56.3997 5.88421 56.2138C6.07008 56.028 6.32217 55.9236 6.58503 55.9236H37.7874C38.0503 55.9236 38.3024 56.028 38.4883 56.2138C38.6741 56.3997 38.7786 56.6518 38.7786 56.9147C38.7786 57.1775 38.6741 57.4296 38.4883 57.6155C38.3024 57.8014 38.0503 57.9058 37.7874 57.9058Z" fill="#CCCCCC"/>
<path d="M41.8758 61.2508H6.58503C6.32217 61.2508 6.07008 61.1464 5.88421 60.9605C5.69834 60.7746 5.59392 60.5225 5.59392 60.2597C5.59392 59.9968 5.69834 59.7447 5.88421 59.5588C6.07008 59.373 6.32217 59.2686 6.58503 59.2686H41.8758C42.1386 59.2686 42.3907 59.373 42.5766 59.5588C42.7625 59.7447 42.8669 59.9968 42.8669 60.2597C42.8669 60.5225 42.7625 60.7746 42.5766 60.9605C42.3907 61.1464 42.1386 61.2508 41.8758 61.2508Z" fill="#CCCCCC"/>
<path d="M37.7874 68.9389H6.58503C6.32217 68.9389 6.07008 68.8345 5.88421 68.6486C5.69834 68.4627 5.59392 68.2106 5.59392 67.9478C5.59392 67.6849 5.69834 67.4328 5.88421 67.247C6.07008 67.0611 6.32217 66.9567 6.58503 66.9567H37.7874C38.0503 66.9567 38.3024 67.0611 38.4883 67.247C38.6741 67.4328 38.7786 67.6849 38.7786 67.9478C38.7786 68.2106 38.6741 68.4627 38.4883 68.6486C38.3024 68.8345 38.0503 68.9389 37.7874 68.9389Z" fill="#CCCCCC"/>
<path d="M41.8758 72.2839H6.58503C6.32217 72.2839 6.07008 72.1795 5.88421 71.9936C5.69834 71.8078 5.59392 71.5557 5.59392 71.2928C5.59392 71.0299 5.69834 70.7778 5.88421 70.592C6.07008 70.4061 6.32217 70.3017 6.58503 70.3017H41.8758C42.1386 70.3017 42.3907 70.4061 42.5766 70.592C42.7625 70.7778 42.8669 71.0299 42.8669 71.2928C42.8669 71.5557 42.7625 71.8078 42.5766 71.9936C42.3907 72.1795 42.1386 72.2839 41.8758 72.2839Z" fill="#CCCCCC"/>
<path d="M104.007 64.3089L59.7331 64.309C59.1757 64.3084 58.6413 64.0867 58.2472 63.6925C57.8531 63.2984 57.6314 62.764 57.6307 62.2066L57.6307 2.10245C57.6313 1.54504 57.853 1.01065 58.2471 0.616511C58.6413 0.222369 59.1757 0.000662516 59.7331 3.47964e-05L104.007 0C104.565 0.000626913 105.099 0.22233 105.493 0.616472C105.887 1.01061 106.109 1.54501 106.11 2.10241L106.11 62.2065C106.109 62.7639 105.887 63.2983 105.493 63.6925C105.099 64.0866 104.565 64.3083 104.007 64.3089Z" fill="white"/>
<path d="M104.007 64.3089L59.7331 64.309C59.1757 64.3084 58.6413 64.0867 58.2472 63.6925C57.8531 63.2984 57.6314 62.764 57.6307 62.2066L57.6307 2.10245C57.6313 1.54504 57.853 1.01065 58.2471 0.616511C58.6413 0.222369 59.1757 0.000662516 59.7331 3.47964e-05L104.007 0C104.565 0.000626913 105.099 0.22233 105.493 0.616472C105.887 1.01061 106.109 1.54501 106.11 2.10241L106.11 62.2065C106.109 62.7639 105.887 63.2983 105.493 63.6925C105.099 64.0866 104.565 64.3083 104.007 64.3089ZM59.7331 0.247377C59.2413 0.247935 58.7697 0.443559 58.422 0.791331C58.0742 1.1391 57.8786 1.61062 57.878 2.10245L57.8781 62.2066C57.8786 62.6984 58.0742 63.1699 58.422 63.5177C58.7698 63.8655 59.2413 64.0611 59.7331 64.0616L104.007 64.0616C104.499 64.0611 104.971 63.8654 105.318 63.5177C105.666 63.1699 105.862 62.6984 105.862 62.2065L105.862 2.10241C105.862 1.61059 105.666 1.13907 105.318 0.791294C104.971 0.443522 104.499 0.247899 104.007 0.247342L59.7331 0.247377Z" fill="#CCCCCC"/>
<path d="M79.8951 15.5603C79.8951 17.1867 79.4129 18.7766 78.5093 20.1289C77.6057 21.4812 76.3214 22.5351 74.8189 23.1575C73.3163 23.7799 71.6629 23.9428 70.0678 23.6255C68.4726 23.3082 67.0074 22.525 65.8574 21.375C64.7074 20.225 63.9242 18.7597 63.6069 17.1646C63.2896 15.5695 63.4524 13.9161 64.0748 12.4135C64.6972 10.9109 65.7512 9.62664 67.1035 8.72307C68.4558 7.8195 70.0456 7.33722 71.672 7.33722C73.8527 7.33791 75.9439 8.20449 77.4859 9.74647C79.0279 11.2885 79.8944 13.3796 79.8951 15.5603Z" fill="white"/>
<path d="M75.4726 16.9674C75.3828 22.2265 67.5599 22.2257 67.4709 16.9672C67.5607 11.7083 75.3835 11.7091 75.4726 16.9674Z" fill="#007FFE"/>
<path d="M71.3129 18.5998L71.3088 18.4503C72.3392 18.5879 72.5611 17.3107 71.5219 17.7882L71.7591 16.0546L71.9073 16.0749L71.7055 17.5495C72.7997 17.3867 72.395 18.7492 71.3129 18.5998Z" fill="#2F2E41"/>
<path d="M73.4451 16.202H72.6398V16.3516H73.4451V16.202Z" fill="#2F2E41"/>
<path d="M70.9034 16.202H70.0981V16.3516H70.9034V16.202Z" fill="#2F2E41"/>
<path d="M72.7687 22.5612C72.9257 21.5019 71.6855 21.7113 71.0291 21.7008C70.9233 21.7011 70.8189 21.725 70.7234 21.7708C70.628 21.8166 70.544 21.8831 70.4776 21.9655C70.4111 22.0478 70.3639 22.144 70.3393 22.2469C70.3147 22.3498 70.3133 22.457 70.3354 22.5605C69.8274 22.7175 69.3569 22.977 68.9531 23.323C70.6548 23.9163 72.5038 23.9368 74.2182 23.3813C73.8003 23.006 73.3056 22.7261 72.7687 22.5612Z" fill="#2F2E41"/>
<path d="M69.5908 15.0751C70.3322 14.6466 71.2314 14.9753 71.9973 15.1551C73.4504 15.6018 75.4881 15.0424 75.6648 13.3114C75.8487 11.7016 73.6465 10.8043 72.9426 12.4066L73.1476 12.3798C70.8648 8.98724 66.8939 9.11591 66.92 13.7801C66.9115 13.9242 67.1358 13.9237 67.1442 13.78C67.0602 11.0315 68.8792 9.15266 71.4505 10.919C72.0248 11.3686 72.5312 11.8987 72.9539 12.493C73.2217 12.7931 73.2799 11.5007 74.5616 11.8392C75.9721 12.3857 75.5119 14.4054 74.2511 14.8488C72.6933 15.6447 71.0062 14.1016 69.4775 14.8814C69.4529 14.8969 69.4353 14.9214 69.4284 14.9497C69.4215 14.9779 69.4259 15.0078 69.4406 15.0329C69.4552 15.058 69.4791 15.0765 69.5071 15.0844C69.5351 15.0922 69.5651 15.0889 69.5908 15.0751Z" fill="#2F2E41"/>
<path d="M71.672 24.0078C69.5485 24.006 67.5036 23.2038 65.9453 21.7612C64.387 20.3186 63.4297 18.3415 63.2645 16.2244C63.0992 14.1073 63.738 12.0057 65.0535 10.3387C66.3691 8.67175 68.2646 7.56191 70.3622 7.23057C72.4597 6.89923 74.6051 7.37073 76.3704 8.55104C78.1357 9.73134 79.3912 11.5337 79.8866 13.5987C80.3819 15.6637 80.0807 17.8395 79.0429 19.6922C78.0051 21.5449 76.3071 22.9383 74.2875 23.5946C73.4429 23.8693 72.5602 24.0087 71.672 24.0078ZM71.672 7.5615C70.0897 7.56127 68.5428 8.0303 67.227 8.90927C65.9112 9.78823 64.8857 11.0377 64.2801 12.4995C63.6744 13.9614 63.5159 15.57 63.8245 17.1219C64.1332 18.6739 64.8951 20.0995 66.014 21.2184C67.1329 22.3372 68.5585 23.0992 70.1104 23.4078C71.6624 23.7165 73.271 23.558 74.7329 22.9523C76.1947 22.3467 77.4441 21.3211 78.3231 20.0053C79.2021 18.6896 79.6711 17.1427 79.6709 15.5604C79.6685 13.4397 78.825 11.4065 77.3254 9.90695C75.8258 8.40739 73.7927 7.56389 71.672 7.5615Z" fill="#CCCCCC"/>
<path d="M95.4364 15.6103L82.9083 15.6103C82.6454 15.6103 82.3933 15.5059 82.2075 15.32C82.0216 15.1341 81.9172 14.882 81.9172 14.6192C81.9172 14.3563 82.0216 14.1042 82.2075 13.9183C82.3933 13.7325 82.6454 13.628 82.9083 13.628L95.4364 13.628C95.6992 13.628 95.9513 13.7325 96.1372 13.9183C96.3231 14.1042 96.4275 14.3563 96.4275 14.6191C96.4275 14.882 96.3231 15.1341 96.1372 15.32C95.9513 15.5058 95.6992 15.6103 95.4364 15.6103Z" fill="#CCCCCC"/>
<path d="M99.5247 18.9553L82.9083 18.9553C82.778 18.9554 82.649 18.9299 82.5286 18.8802C82.4082 18.8305 82.2988 18.7575 82.2067 18.6654C82.1145 18.5734 82.0414 18.4641 81.9915 18.3437C81.9416 18.2234 81.916 18.0944 81.916 17.9642C81.916 17.8339 81.9416 17.7049 81.9915 17.5846C82.0414 17.4643 82.1145 17.355 82.2067 17.2629C82.2988 17.1709 82.4082 17.0979 82.5286 17.0481C82.649 16.9984 82.778 16.9729 82.9083 16.9731L99.5247 16.973C99.7876 16.973 100.04 17.0775 100.226 17.2633C100.411 17.4492 100.516 17.7013 100.516 17.9642C100.516 18.227 100.411 18.4791 100.226 18.665C100.04 18.8508 99.7876 18.9553 99.5247 18.9553Z" fill="#CCCCCC"/>
<path d="M95.4181 31.7848L64.2157 31.7848C63.9531 31.7845 63.7013 31.6799 63.5157 31.4941C63.3301 31.3082 63.2258 31.0563 63.2258 30.7937C63.2258 30.531 63.3301 30.2791 63.5157 30.0933C63.7013 29.9075 63.9531 29.8029 64.2157 29.8026L95.4181 29.8025C95.681 29.8025 95.9331 29.907 96.119 30.0928C96.3048 30.2787 96.4093 30.5308 96.4093 30.7936C96.4093 31.0565 96.3048 31.3086 96.119 31.4945C95.9331 31.6803 95.681 31.7848 95.4181 31.7848Z" fill="#CCCCCC"/>
<path d="M99.5065 35.1298L64.2157 35.1298C64.0855 35.13 63.9565 35.1045 63.8361 35.0547C63.7157 35.005 63.6063 34.932 63.5141 34.84C63.4219 34.7479 63.3488 34.6386 63.2989 34.5183C63.2491 34.3979 63.2234 34.269 63.2234 34.1387C63.2234 34.0084 63.2491 33.8795 63.2989 33.7591C63.3488 33.6388 63.4219 33.5295 63.5141 33.4374C63.6063 33.3454 63.7157 33.2724 63.8361 33.2227C63.9565 33.1729 64.0855 33.1474 64.2157 33.1476L99.5065 33.1476C99.7693 33.1476 100.021 33.252 100.207 33.4378C100.393 33.6237 100.498 33.8758 100.498 34.1387C100.498 34.4015 100.393 34.6536 100.207 34.8395C100.021 35.0254 99.7693 35.1298 99.5065 35.1298Z" fill="#CCCCCC"/>
<path d="M95.4182 42.8179L64.2157 42.8179C63.9531 42.8176 63.7013 42.713 63.5157 42.5272C63.3301 42.3414 63.2259 42.0895 63.2259 41.8268C63.2259 41.5642 63.3301 41.3122 63.5157 41.1264C63.7013 40.9406 63.9531 40.836 64.2157 40.8357L95.4182 40.8357C95.681 40.8357 95.9331 40.9401 96.119 41.126C96.3049 41.3118 96.4093 41.5639 96.4093 41.8268C96.4093 42.0896 96.3049 42.3417 96.119 42.5276C95.9331 42.7135 95.681 42.8179 95.4182 42.8179Z" fill="#CCCCCC"/>
<path d="M99.5065 46.1629L64.2157 46.1629C64.0855 46.1631 63.9565 46.1376 63.8361 46.0878C63.7157 46.0381 63.6063 45.9651 63.5141 45.8731C63.422 45.781 63.3488 45.6717 63.299 45.5514C63.2491 45.4311 63.2234 45.3021 63.2234 45.1718C63.2234 45.0416 63.2491 44.9126 63.299 44.7923C63.3488 44.6719 63.422 44.5626 63.5141 44.4706C63.6063 44.3785 63.7157 44.3055 63.8361 44.2558C63.9565 44.2061 64.0855 44.1805 64.2157 44.1807L99.5065 44.1807C99.7694 44.1807 100.021 44.2851 100.207 44.471C100.393 44.6568 100.498 44.9089 100.498 45.1718C100.498 45.4347 100.393 45.6867 100.207 45.8726C100.021 46.0585 99.7694 46.1629 99.5065 46.1629Z" fill="#CCCCCC"/>
<path d="M95.4182 53.851L64.2158 53.851C63.9529 53.851 63.7008 53.7466 63.5149 53.5608C63.3291 53.3749 63.2246 53.1228 63.2246 52.8599C63.2246 52.5971 63.3291 52.345 63.5149 52.1591C63.7008 51.9732 63.9529 51.8688 64.2158 51.8688L95.4182 51.8688C95.681 51.8688 95.9331 51.9732 96.119 52.1591C96.3049 52.3449 96.4093 52.597 96.4093 52.8599C96.4093 53.1228 96.3049 53.3749 96.119 53.5607C95.9331 53.7466 95.681 53.851 95.4182 53.851Z" fill="#CCCCCC"/>
<path d="M99.5065 57.196L64.2158 57.1961C63.9529 57.1961 63.7008 57.0916 63.5149 56.9058C63.3291 56.7199 63.2246 56.4678 63.2246 56.205C63.2246 55.9421 63.3291 55.69 63.5149 55.5041C63.7008 55.3183 63.9529 55.2138 64.2158 55.2138L99.5065 55.2138C99.7694 55.2138 100.021 55.3182 100.207 55.5041C100.393 55.69 100.498 55.9421 100.498 56.2049C100.498 56.4678 100.393 56.7199 100.207 56.9057C100.021 57.0916 99.7694 57.196 99.5065 57.196Z" fill="#CCCCCC"/>
<path d="M77.2944 90.1562H33.0202C32.4628 90.1556 31.9284 89.9339 31.5342 89.5397C31.1401 89.1456 30.9184 88.6112 30.9178 88.0538V27.9497C30.9184 27.3923 31.1401 26.8579 31.5342 26.4637C31.9284 26.0696 32.4628 25.8479 33.0202 25.8473H77.2944C77.8518 25.8479 78.3862 26.0696 78.7803 26.4637C79.1745 26.8579 79.3962 27.3923 79.3968 27.9497V88.0538C79.3962 88.6112 79.1745 89.1456 78.7803 89.5397C78.3862 89.9339 77.8518 90.1556 77.2944 90.1562Z" fill="white"/>
<path d="M36.7127 41.3205C36.7113 42.4028 36.9242 43.4747 37.3391 44.4743C37.7541 45.474 38.3629 46.3815 39.1303 47.1447C39.1947 47.2082 39.2604 47.2718 39.3269 47.3338C39.7277 47.7083 40.165 48.0416 40.6322 48.3288C40.7219 48.3841 40.8116 48.4372 40.9036 48.4888C41.3761 48.7551 41.8739 48.9737 42.3897 49.1414C42.4786 49.1706 42.5691 49.1982 42.6595 49.2237C44.2992 49.6939 46.0442 49.6448 47.6547 49.0831C47.6861 49.0719 47.7175 49.0607 47.7482 49.0495C49.162 48.5351 50.4077 47.6428 51.3495 46.4696C52.2914 45.2964 52.8934 43.8873 53.0899 42.3957C53.2865 40.9041 53.0701 39.3871 52.4644 38.01C51.8586 36.6328 50.8867 35.4482 49.6544 34.5852C48.422 33.7221 46.9766 33.2136 45.4753 33.115C43.9741 33.0165 42.4745 33.3316 41.14 34.0262C39.8054 34.7207 38.6869 35.7681 37.9063 37.0542C37.1257 38.3404 36.7129 39.816 36.7127 41.3205Z" fill="white"/>
<path d="M43.1993 45.351C43.2033 45.9881 42.9685 46.6035 42.5412 47.0761C42.1184 47.5401 41.4889 47.8478 40.8537 47.7205C40.2688 47.6032 39.7935 47.092 39.8528 46.4736C39.8626 46.3396 39.9016 46.2094 39.9669 46.0921C40.0322 45.9747 40.1223 45.873 40.231 45.794C40.3396 45.7151 40.4642 45.6608 40.596 45.6349C40.7278 45.609 40.8636 45.6122 40.9941 45.6442C41.5497 45.7884 41.7711 46.5891 41.3081 46.965C41.197 47.0552 41.0374 46.8975 41.1495 46.8064C41.2186 46.7432 41.2708 46.6636 41.3013 46.575C41.3317 46.4864 41.3394 46.3916 41.3237 46.2992C41.308 46.2068 41.2693 46.1199 41.2113 46.0463C41.1533 45.9727 41.0777 45.9149 40.9916 45.8781C40.8899 45.8455 40.7821 45.8365 40.6765 45.8518C40.5708 45.867 40.47 45.9061 40.3817 45.9661C40.2933 46.026 40.2198 46.1053 40.1666 46.1979C40.1135 46.2905 40.0821 46.3939 40.0748 46.5004C40.0381 47.0218 40.4375 47.4144 40.9273 47.5069C41.4572 47.6069 41.9825 47.3357 42.3416 46.9614C42.7531 46.5267 42.9801 45.9495 42.975 45.351C42.976 45.3219 42.9883 45.2943 43.0092 45.2741C43.0301 45.2539 43.0581 45.2426 43.0872 45.2426C43.1163 45.2426 43.1443 45.2539 43.1652 45.2741C43.1861 45.2943 43.1983 45.3219 43.1993 45.351V45.351Z" fill="#2F2E41"/>
<path d="M45.3892 46.7767C47.5988 46.7767 49.3901 44.9854 49.3901 42.7758C49.3901 40.5662 47.5988 38.7749 45.3892 38.7749C43.1796 38.7749 41.3883 40.5662 41.3883 42.7758C41.3883 44.9854 43.1796 46.7767 45.3892 46.7767Z" fill="#007FFE"/>
<path d="M45.1845 44.4829L45.1804 44.3334C45.4585 44.3257 45.7037 44.3082 45.888 44.1736C45.9402 44.1333 45.9832 44.0822 46.0139 44.0238C46.0446 43.9653 46.0624 43.901 46.066 43.8351C46.0692 43.7948 46.0632 43.7544 46.0482 43.7168C46.0333 43.6793 46.0099 43.6457 45.9798 43.6187C45.9102 43.5765 45.8305 43.5539 45.7491 43.5531C45.6677 43.5524 45.5876 43.5737 45.5172 43.6146L45.3935 43.6713L45.6308 41.9377L45.7789 41.958L45.5771 43.4327C45.6597 43.402 45.7487 43.3926 45.8359 43.4051C45.9231 43.4177 46.0057 43.4518 46.0763 43.5045C46.1238 43.546 46.1611 43.5979 46.1852 43.6561C46.2094 43.7144 46.2197 43.7774 46.2154 43.8403C46.211 43.9289 46.1874 44.0154 46.146 44.0938C46.1047 44.1723 46.0467 44.2407 45.9762 44.2944C45.7394 44.4674 45.4317 44.476 45.1845 44.4829Z" fill="#2F2E41"/>
<path d="M47.3167 42.0852H46.5114V42.2347H47.3167V42.0852Z" fill="#2F2E41"/>
<path d="M44.775 42.0852H43.9697V42.2347H44.775V42.0852Z" fill="#2F2E41"/>
<path d="M42.6595 49.2237C44.2992 49.6939 46.0442 49.6448 47.6548 49.0831C47.6861 49.0719 47.7175 49.0607 47.7482 49.0495C47.3687 48.7567 46.9394 48.5349 46.4811 48.3946C46.5135 48.2797 46.513 48.1579 46.4796 48.0433C46.4342 47.8979 46.3431 47.7711 46.2199 47.6816C46.0966 47.5922 45.9478 47.5449 45.7956 47.5469H44.8208C44.6688 47.5448 44.5202 47.592 44.3971 47.6813C44.2741 47.7706 44.1833 47.8973 44.1382 48.0425C44.1048 48.1574 44.1043 48.2794 44.1368 48.3946C43.733 48.5182 43.3515 48.7052 43.0064 48.9486C42.9369 48.9972 42.8696 49.048 42.8046 49.1011C42.7553 49.1407 42.7067 49.1818 42.6595 49.2237Z" fill="#2F2E41"/>
<path d="M48.5234 42.3514C48.5234 43.0257 48.8553 43.5848 49.2867 43.682C49.3306 43.6919 49.3755 43.6969 49.4205 43.697C49.9146 43.697 50.3176 43.0937 50.3176 42.3514C50.3287 41.9687 50.2066 41.594 49.9722 41.2913C49.8993 41.2031 49.8096 41.1301 49.7083 41.0768C49.6194 41.0304 49.5207 41.006 49.4205 41.0058C49.2828 41.0075 49.1492 41.0524 49.0385 41.1343C48.7342 41.3496 48.5234 41.8139 48.5234 42.3514Z" fill="#3F3D56"/>
<path d="M40.5246 42.3514C40.5246 42.9315 40.7697 43.4264 41.1136 43.6155C41.2078 43.6682 41.3137 43.6963 41.4216 43.697C41.4456 43.697 41.4696 43.6955 41.4934 43.6925C41.9539 43.6379 42.3187 43.0578 42.3187 42.3514C42.3187 41.7855 42.0847 41.3003 41.7543 41.1022C41.6544 41.0402 41.5393 41.0068 41.4216 41.0058C41.3214 41.006 41.2227 41.0304 41.1338 41.0768C41.0323 41.1304 40.9423 41.2036 40.8692 41.2921C40.6354 41.5948 40.5136 41.9691 40.5246 42.3514Z" fill="#3F3D56"/>
<path d="M41.1696 43.4865C41.1874 43.4865 41.2049 43.4822 41.2208 43.4741C41.2366 43.466 41.2503 43.4542 41.2606 43.4397C41.271 43.4253 41.2778 43.4085 41.2805 43.3909C41.2831 43.3733 41.2815 43.3554 41.2758 43.3385C41.0615 42.7012 40.9971 42.023 41.0875 41.3568C41.1778 40.6905 41.4206 40.054 41.797 39.4969C42.1733 38.9397 42.6731 38.4768 43.2574 38.1441C43.8418 37.8115 44.4949 37.6181 45.1662 37.5789C45.8374 37.5398 46.5086 37.6559 47.1277 37.9183C47.7467 38.1808 48.2969 38.5824 48.7355 39.092C49.1741 39.6017 49.4893 40.2056 49.6565 40.8568C49.8238 41.508 49.8386 42.1891 49.6999 42.847C49.6938 42.8761 49.6995 42.9064 49.7157 42.9312C49.732 42.9561 49.7574 42.9735 49.7865 42.9796C49.8156 42.9858 49.8459 42.9801 49.8708 42.9639C49.8957 42.9477 49.9131 42.9223 49.9193 42.8933C50.0653 42.2016 50.0498 41.4855 49.874 40.8008C49.6982 40.116 49.3668 39.4811 48.9057 38.9452C48.4446 38.4094 47.8662 37.987 47.2153 37.7111C46.5644 37.4352 45.8587 37.3131 45.1529 37.3543C44.4472 37.3955 43.7605 37.5989 43.1461 37.9486C42.5318 38.2984 42.0063 38.7851 41.6107 39.371C41.2151 39.9569 40.9599 40.6261 40.8649 41.3266C40.77 42.0271 40.8379 42.7401 41.0633 43.4102C41.0708 43.4324 41.0851 43.4517 41.1042 43.4654C41.1232 43.4791 41.1461 43.4865 41.1696 43.4865Z" fill="#3F3D56"/>
<path d="M47.399 40.1836C47.4654 40.292 47.493 40.4197 47.4773 40.5458C47.4615 40.6719 47.4034 40.789 47.3124 40.8777C47.0952 41.1203 46.7489 41.1356 46.4481 41.0906C46.1107 41.0401 45.7527 40.882 45.4111 40.9885C45.1199 41.0793 44.9121 41.3435 44.6096 41.4098C44.3413 41.4686 44.0205 41.3908 43.9264 41.1048C43.8812 40.9674 44.0977 40.9085 44.1427 41.0452C44.2035 41.2302 44.4662 41.2265 44.6167 41.1753C44.8579 41.0931 45.0439 40.8933 45.281 40.7979C45.5636 40.7104 45.8662 40.7112 46.1484 40.8003C46.4166 40.8607 46.7253 40.9503 46.9925 40.8374C47.1903 40.7539 47.3476 40.4909 47.2054 40.2968C47.12 40.1802 47.3145 40.0682 47.399 40.1836V40.1836Z" fill="#2F2E41"/>
<path d="M44.9359 49.7679C44.1448 49.7685 43.3576 49.6579 42.5974 49.4391C42.5081 49.414 42.4142 49.3855 42.3199 49.3546C41.7902 49.1821 41.2789 48.9576 40.7936 48.6843C40.7025 48.6332 40.6111 48.5793 40.5145 48.5197C40.0347 48.2246 39.5856 47.8822 39.1738 47.4977C39.1059 47.4343 39.0386 47.3693 38.9728 47.3043C37.678 46.0133 36.837 44.3371 36.5762 42.5273C36.3155 40.7176 36.649 38.8721 37.5267 37.2681C38.4044 35.6641 39.7789 34.3882 41.4437 33.6321C43.1085 32.876 44.9736 32.6805 46.759 33.075C48.5444 33.4695 50.1536 34.4326 51.3448 35.8198C52.536 37.207 53.2449 38.9432 53.365 40.7677C53.4852 42.5922 53.0101 44.4064 52.0111 45.9378C51.012 47.4692 49.5431 48.635 47.8249 49.2603C47.794 49.2715 47.7621 49.2829 47.7302 49.2943C46.8322 49.6088 45.8874 49.7689 44.9359 49.7679ZM44.9359 33.3216C43.3528 33.3217 41.8053 33.7915 40.4893 34.6716C39.1734 35.5517 38.1482 36.8025 37.5435 38.2656C36.9388 39.7287 36.7819 41.3383 37.0926 42.8906C37.4032 44.4429 38.1675 45.8682 39.2887 46.9859C39.3507 47.0472 39.415 47.1092 39.4799 47.1699C39.8699 47.534 40.2953 47.8583 40.7497 48.1378C40.8412 48.1943 40.9274 48.245 41.0133 48.2932C41.473 48.5522 41.9573 48.7648 42.459 48.9281C42.5477 48.9572 42.6355 48.9839 42.7202 49.0077C44.3155 49.4655 46.0135 49.4179 47.5806 48.8715L47.6712 48.8388C49.4385 48.1956 50.9226 46.9502 51.8629 45.3215C52.8033 43.6928 53.1398 41.7848 52.8133 39.9327C52.4868 38.0806 51.5182 36.4027 50.0776 35.1937C48.6371 33.9847 46.8166 33.3219 44.9359 33.3216L44.9359 33.3216Z" fill="#CCCCCC"/>
<path d="M77.2944 90.1562H33.0202C32.4628 90.1556 31.9284 89.9339 31.5342 89.5397C31.1401 89.1456 30.9184 88.6112 30.9178 88.0538V27.9497C30.9184 27.3923 31.1401 26.8579 31.5342 26.4637C31.9284 26.0696 32.4628 25.8479 33.0202 25.8473H77.2944C77.8518 25.8479 78.3862 26.0696 78.7803 26.4637C79.1745 26.8579 79.3962 27.3923 79.3968 27.9497V88.0538C79.3962 88.6112 79.1745 89.1456 78.7803 89.5397C78.3862 89.9339 77.8518 90.1556 77.2944 90.1562ZM33.0202 26.0946C32.5284 26.0952 32.0568 26.2908 31.7091 26.6386C31.3613 26.9863 31.1657 27.4579 31.1651 27.9497V88.0538C31.1657 88.5456 31.3613 89.0172 31.7091 89.3649C32.0568 89.7127 32.5284 89.9083 33.0202 89.9089H77.2944C77.7862 89.9083 78.2578 89.7127 78.6055 89.3649C78.9533 89.0172 79.1489 88.5456 79.1495 88.0538V27.9497C79.1489 27.4579 78.9533 26.9863 78.6055 26.6386C78.2578 26.2908 77.7862 26.0952 77.2944 26.0946H33.0202Z" fill="#3F3D56"/>
<path d="M68.7234 41.4575H56.1954C55.9325 41.4575 55.6804 41.3531 55.4945 41.1672C55.3087 40.9814 55.2042 40.7293 55.2042 40.4664C55.2042 40.2036 55.3087 39.9515 55.4945 39.7656C55.6804 39.5797 55.9325 39.4753 56.1954 39.4753H68.7234C68.9863 39.4753 69.2384 39.5797 69.4243 39.7656C69.6101 39.9515 69.7146 40.2036 69.7146 40.4664C69.7146 40.7293 69.6101 40.9814 69.4243 41.1672C69.2384 41.3531 68.9863 41.4575 68.7234 41.4575Z" fill="#007FFE"/>
<path d="M72.8118 44.8025H56.1954C55.9325 44.8025 55.6804 44.6981 55.4945 44.5122C55.3087 44.3264 55.2042 44.0743 55.2042 43.8114C55.2042 43.5486 55.3087 43.2965 55.4945 43.1106C55.6804 42.9247 55.9325 42.8203 56.1954 42.8203H72.8118C73.0746 42.8203 73.3267 42.9247 73.5126 43.1106C73.6985 43.2965 73.8029 43.5486 73.8029 43.8114C73.8029 44.0743 73.6985 44.3264 73.5126 44.5122C73.3267 44.6981 73.0746 44.8025 72.8118 44.8025Z" fill="#007FFE"/>
<path d="M68.7052 57.632H37.5028C37.2399 57.632 36.9878 57.5276 36.802 57.3417C36.6161 57.1559 36.5117 56.9038 36.5117 56.6409C36.5117 56.378 36.6161 56.126 36.802 55.9401C36.9878 55.7542 37.2399 55.6498 37.5028 55.6498H68.7052C68.9681 55.6498 69.2202 55.7542 69.406 55.9401C69.5919 56.126 69.6963 56.378 69.6963 56.6409C69.6963 56.9038 69.5919 57.1559 69.406 57.3417C69.2202 57.5276 68.9681 57.632 68.7052 57.632Z" fill="#CCCCCC"/>
<path d="M72.7936 60.977H37.5028C37.2399 60.977 36.9878 60.8726 36.802 60.6868C36.6161 60.5009 36.5117 60.2488 36.5117 59.9859C36.5117 59.7231 36.6161 59.471 36.802 59.2851C36.9878 59.0992 37.2399 58.9948 37.5028 58.9948H72.7936C73.0564 58.9948 73.3085 59.0992 73.4944 59.2851C73.6802 59.471 73.7847 59.7231 73.7847 59.9859C73.7847 60.2488 73.6802 60.5009 73.4944 60.6868C73.3085 60.8726 73.0564 60.977 72.7936 60.977Z" fill="#CCCCCC"/>
<path d="M68.7052 68.6652H37.5028C37.2401 68.6648 36.9884 68.5603 36.8028 68.3744C36.6172 68.1886 36.5129 67.9367 36.5129 67.674C36.5129 67.4114 36.6172 67.1595 36.8028 66.9737C36.9884 66.7878 37.2401 66.6832 37.5028 66.6829H68.7052C68.9681 66.6829 69.2202 66.7873 69.406 66.9732C69.5919 67.1591 69.6963 67.4112 69.6963 67.674C69.6963 67.9369 69.5919 68.189 69.406 68.3749C69.2202 68.5607 68.9681 68.6652 68.7052 68.6652Z" fill="#CCCCCC"/>
<path d="M72.7936 72.0102H37.5028C37.2402 72.0098 36.9884 71.9053 36.8028 71.7194C36.6172 71.5336 36.5129 71.2817 36.5129 71.0191C36.5129 70.7564 36.6172 70.5045 36.8028 70.3187C36.9884 70.1328 37.2402 70.0283 37.5028 70.0279H72.7936C73.0564 70.0279 73.3085 70.1324 73.4944 70.3182C73.6802 70.5041 73.7847 70.7562 73.7847 71.0191C73.7847 71.2819 73.6802 71.534 73.4944 71.7199C73.3085 71.9057 73.0564 72.0102 72.7936 72.0102Z" fill="#CCCCCC"/>
<path d="M68.7052 79.6983H37.5028C37.2399 79.6983 36.9878 79.5939 36.802 79.408C36.6161 79.2221 36.5117 78.97 36.5117 78.7072C36.5117 78.4443 36.6161 78.1922 36.802 78.0064C36.9878 77.8205 37.2399 77.7161 37.5028 77.7161H68.7052C68.9681 77.7161 69.2202 77.8205 69.406 78.0064C69.5919 78.1922 69.6963 78.4443 69.6963 78.7072C69.6963 78.97 69.5919 79.2221 69.406 79.408C69.2202 79.5939 68.9681 79.6983 68.7052 79.6983Z" fill="#CCCCCC"/>
<path d="M72.7936 83.0433H37.5028C37.2399 83.0433 36.9878 82.9389 36.802 82.753C36.6161 82.5671 36.5117 82.315 36.5117 82.0522C36.5117 81.7893 36.6161 81.5372 36.802 81.3514C36.9878 81.1655 37.2399 81.0611 37.5028 81.0611H72.7936C73.0564 81.0611 73.3085 81.1655 73.4944 81.3514C73.6802 81.5372 73.7847 81.7893 73.7847 82.0522C73.7847 82.315 73.6802 82.5671 73.4944 82.753C73.3085 82.9389 73.0564 83.0433 72.7936 83.0433Z" fill="#CCCCCC"/>
<path d="M76.7807 76.47C75.4974 76.4686 74.2264 76.7201 73.0404 77.2102C71.8544 77.7003 70.7767 78.4193 69.8687 79.3262C68.9608 80.2331 68.2406 81.3101 67.7491 82.4955C67.2577 83.681 67.0048 84.9517 67.0048 86.235C67.0048 87.5182 67.2577 88.7889 67.7491 89.9744C68.2405 91.1598 68.9608 92.2368 69.8687 93.1437C70.7766 94.0506 71.8544 94.7697 73.0404 95.2598C74.2264 95.7499 75.4973 96.0014 76.7806 96H76.7807C79.3675 95.9954 81.8469 94.9646 83.6744 93.1338C85.502 91.303 86.5285 88.8218 86.5285 86.235C86.5285 83.6481 85.502 81.167 83.6744 79.3362C81.8469 77.5054 79.3675 76.4746 76.7807 76.47Z" fill="#007FFE"/>
<path d="M75.8541 90.2905C75.5971 90.2909 75.3468 90.2077 75.1412 90.0535L75.1284 90.0439L72.443 87.9897C72.1922 87.7971 72.028 87.5127 71.9868 87.1991C71.9455 86.8854 72.0304 86.5683 72.2228 86.3172C72.4153 86.0662 72.6995 85.9018 73.0131 85.8603C73.3267 85.8187 73.6439 85.9033 73.8952 86.0956L75.6345 87.4294L79.7448 82.0671C79.8401 81.9428 79.9589 81.8385 80.0946 81.7601C80.2302 81.6817 80.3799 81.6308 80.5352 81.6103C80.6905 81.5898 80.8484 81.6001 80.9997 81.6405C81.151 81.681 81.2929 81.7509 81.4172 81.8462L81.4172 81.8462L81.4176 81.8465L81.3921 81.8819L81.4182 81.8465C81.669 82.0393 81.8331 82.3236 81.8745 82.6372C81.9159 82.9508 81.8311 83.2681 81.6389 83.5193L76.8044 89.8236C76.6925 89.9689 76.5487 90.0864 76.3841 90.1671C76.2195 90.2478 76.0385 90.2895 75.8552 90.289L75.8541 90.2905Z" fill="white"/>
</g>
<defs>
<clipPath id="clip0_20_700">
<rect width="106.11" height="96" fill="white"/>
</clipPath>
</defs>
</svg>
