<svg width="183" height="96" viewBox="0 0 183 96" fill="none" xmlns="http://www.w3.org/2000/svg">
<g clip-path="url(#clip0_20_757)">
<path d="M182.436 69.9764C181.478 76.0634 178.511 81.9717 173.615 85.7105C168.796 89.3929 162.622 90.7011 156.662 91.8259C149.514 93.1765 142.346 94.411 135.158 95.5294C134.139 95.6918 133.12 95.8486 132.099 96H90.2356C90.1932 95.9435 90.1485 95.8847 90.1063 95.8259C90.038 95.7271 89.9698 95.6282 89.9038 95.5294C89.8663 95.4729 89.8286 95.4141 89.7909 95.3553H116.05C116.795 95.3546 117.509 95.0585 118.037 94.5318C118.564 94.0052 118.86 93.291 118.862 92.5459V57.4963C119.031 56.9646 119.189 56.4304 119.332 55.8893C120.002 53.3693 120.437 50.7928 120.633 48.1928C120.775 46.381 120.817 44.5692 120.786 42.7551C120.699 37.7692 120.048 32.7833 119.339 27.8327C119.288 27.468 119.233 27.1009 119.182 26.7362C118.683 23.2962 118.229 19.5527 119.963 16.5385C121.946 13.0891 126.349 11.6514 130.313 12.0044C137.445 12.642 143.452 18.1032 146.575 24.548C149.695 30.9903 150.393 38.3174 150.678 45.4704C150.829 49.2634 150.812 53.2257 150.283 57.0304C152.071 52.941 153.861 48.8516 155.652 44.7622C156.608 42.581 157.612 40.3292 159.382 38.7339C163.081 35.3951 169.198 36.068 173.149 39.108C177.097 42.1504 179.262 46.9575 180.702 51.7269C182.485 57.6257 183.396 63.8893 182.436 69.9764Z" fill="#F0F0F0"/>
<path d="M166.659 36.9145C169.245 41.4953 170.432 46.748 170.404 51.9898C170.364 57.1868 169.214 62.3153 167.032 67.0321C165.058 71.291 162.307 75.1449 158.922 78.3965C155.58 81.6408 151.616 84.1735 147.267 85.8413C142.222 87.7324 136.764 88.2509 131.453 87.344C130.715 87.2172 129.983 87.0635 129.256 86.8829C128.815 86.7742 128.626 87.4547 129.068 87.5636C134.595 88.9335 140.391 88.7668 145.831 87.0815C150.361 85.624 154.541 83.2459 158.109 80.0964C161.721 76.9384 164.708 73.1303 166.915 68.87C169.33 64.2056 170.739 59.0863 171.051 53.8432C171.359 48.5228 170.467 43.1076 168.166 38.2813C167.887 37.6965 167.588 37.1222 167.269 36.5582C167.22 36.4808 167.143 36.4254 167.054 36.4037C166.965 36.382 166.871 36.3957 166.792 36.4419C166.713 36.4881 166.655 36.5632 166.63 36.6514C166.605 36.7396 166.616 36.8339 166.659 36.9145H166.659Z" fill="white"/>
<path d="M129.198 11.9111C132.066 17.1975 134.3 22.8034 135.856 28.6129C138.97 40.2485 139.439 52.4338 137.228 64.2742C136.125 70.19 134.325 75.9544 131.866 81.4471C129.415 86.8935 125.885 92.6321 119.856 94.5391C119.176 94.7532 118.479 94.9091 117.772 95.0051C117.324 95.0666 117.514 95.7468 117.959 95.6857C124.196 94.8298 128.529 89.6487 131.247 84.3672C134.059 78.9025 136.061 72.9682 137.393 66.9768C140.032 55.0221 139.937 42.6257 137.115 30.7128C135.714 24.7782 133.618 19.0291 130.873 13.5841C130.528 12.9022 130.173 12.2258 129.807 11.5548C129.59 11.1556 128.98 11.5115 129.198 11.9111V11.9111Z" fill="white"/>
<path d="M99.6804 10.8844H57.4214C56.5637 10.8855 55.7414 11.2267 55.1349 11.8332C54.5284 12.4397 54.1872 13.262 54.1861 14.1197V35.2939H60.6897C61.1653 35.2926 61.6335 35.4127 62.0497 35.6429C62.466 35.8731 62.8167 36.2057 63.0685 36.6092L65.3226 40.1974L67.478 43.6257L67.8826 44.2704L70.3485 48.1928L70.3768 48.2375H102.916V14.1197C102.915 13.262 102.573 12.4397 101.967 11.8332C101.36 11.2267 100.538 10.8855 99.6804 10.8844Z" fill="#CCCCCC"/>
<path d="M82.9298 17.3574H61.9908C61.4357 17.3574 60.9034 17.5779 60.5109 17.9704C60.1184 18.3629 59.8979 18.8952 59.8979 19.4503C59.8979 20.0054 60.1184 20.5377 60.5109 20.9303C60.9034 21.3228 61.4357 21.5433 61.9908 21.5433H82.9298C83.4849 21.5433 84.0172 21.3228 84.4097 20.9303C84.8022 20.5377 85.0227 20.0054 85.0227 19.4503C85.0227 18.8952 84.8022 18.3629 84.4097 17.9704C84.0172 17.5779 83.4849 17.3574 82.9298 17.3574Z" fill="white"/>
<path d="M94.5415 27.635H62.1814C61.5755 27.635 60.9943 27.8758 60.5659 28.3042C60.1374 28.7327 59.8967 29.3138 59.8967 29.9198C59.8967 30.5257 60.1374 31.1068 60.5659 31.5353C60.9943 31.9638 61.5755 32.2045 62.1814 32.2045H94.5415C95.1474 32.2045 95.7286 31.9638 96.157 31.5353C96.5855 31.1068 96.8262 30.5257 96.8262 29.9198C96.8262 29.3138 96.5855 28.7327 96.157 28.3042C95.7286 27.8758 95.1474 27.635 94.5415 27.635Z" fill="white"/>
<path d="M96.6074 36.9457C96.4236 36.5529 96.1316 36.2205 95.7657 35.9876C95.3999 35.7547 94.9752 35.6308 94.5415 35.6304H62.1814C62.132 35.6304 62.0849 35.6327 62.0355 35.6351C62.4577 35.8658 62.8135 36.2012 63.0685 36.6092L65.3226 40.1974H94.5415C94.9257 40.1976 95.3038 40.1006 95.6406 39.9156C95.9774 39.7307 96.262 39.4636 96.4681 39.1393C96.6741 38.815 96.7949 38.4438 96.8193 38.0604C96.8437 37.6769 96.7708 37.2935 96.6074 36.9457Z" fill="white"/>
<path d="M96.8028 45.6021C96.7283 45.0551 96.4582 44.5535 96.0425 44.1901C95.6268 43.8268 95.0936 43.6263 94.5415 43.6257H67.478L67.8826 44.2704L70.3485 48.1927H94.5415C95.0169 48.1938 95.4805 48.0447 95.8663 47.7669C96.1625 47.5558 96.404 47.277 96.5706 46.9536C96.7371 46.6303 96.824 46.2718 96.8239 45.908C96.8241 45.8057 96.817 45.7035 96.8028 45.6021Z" fill="white"/>
<path d="M122.633 29.1197L119.339 27.8327L102.916 21.4232L83.2662 13.755C82.4663 13.4446 81.5761 13.464 80.7906 13.8089C80.005 14.1538 79.3883 14.7961 79.0755 15.595L78.3885 17.3573L76.7533 21.5432L74.3768 27.635L72.5932 32.2045L71.2567 35.6304L69.4731 40.1974L68.1343 43.6257L68.0968 43.7245L67.8826 44.2704L70.3485 48.1928L70.3768 48.2375H116.05C116.469 48.2371 116.883 48.3307 117.261 48.5115C117.64 48.6923 117.973 48.9557 118.236 49.2822L118.429 48.7928L120.786 42.7551L124.471 33.3127C124.782 32.5129 124.763 31.6224 124.419 30.8364C124.074 30.0504 123.432 29.4331 122.633 29.1197Z" fill="#007FFE"/>
<path d="M104.676 29.0586L102.916 28.3715L85.1698 21.4468C84.6523 21.2465 84.0766 21.2591 83.5683 21.4817C83.0601 21.7043 82.6605 22.1189 82.4568 22.635C82.2562 23.1528 82.2689 23.7289 82.492 24.2373C82.7151 24.7457 83.1306 25.145 83.6474 25.348L89.5086 27.635L96.7581 30.4633L102.916 32.868L103.153 32.9598C103.67 33.1605 104.246 33.1479 104.754 32.9246C105.262 32.7014 105.66 32.2858 105.862 31.769C106.063 31.2523 106.052 30.6767 105.829 30.1685C105.607 29.6603 105.192 29.2611 104.676 29.0586Z" fill="white"/>
<path d="M111.753 42.8563L102.916 39.4069L96.6074 36.9457L93.2379 35.6304L84.4615 32.2045L81.6097 31.0915C81.0777 30.8838 80.4872 30.8829 79.9546 31.0889C79.422 31.2949 78.9858 31.6929 78.732 32.2045C78.7039 32.2633 78.6756 32.3245 78.6521 32.388C78.543 32.6673 78.4899 32.9654 78.496 33.2652C78.5022 33.5651 78.5673 33.8607 78.6877 34.1354C78.8081 34.41 78.9814 34.6583 79.1977 34.866C79.4141 35.0736 79.6692 35.2366 79.9486 35.3457L80.6779 35.6304L92.3768 40.1974L102.916 44.3104L110.092 47.1128C110.356 47.2159 110.637 47.2686 110.92 47.2681C111.453 47.269 111.97 47.0836 112.38 46.7439C112.791 46.4042 113.07 45.9316 113.169 45.408C113.267 44.8844 113.18 44.3427 112.922 43.8767C112.663 43.4106 112.25 43.0497 111.753 42.8563H111.753Z" fill="white"/>
<path d="M102.916 47.9881L102.349 47.7669L96.8027 45.6022L91.7368 43.6257L82.9509 40.1974L78.7015 38.5386C78.4219 38.4292 78.1235 38.376 77.8233 38.3821C77.5232 38.3881 77.2272 38.4533 76.9522 38.5738C76.6773 38.6943 76.4288 38.8679 76.2209 39.0845C76.0131 39.3012 75.85 39.5567 75.741 39.8364C75.632 40.1161 75.5792 40.4146 75.5856 40.7147C75.5921 41.0148 75.6576 41.3108 75.7785 41.5856C75.8994 41.8604 76.0733 42.1086 76.2902 42.3162C76.5071 42.5237 76.7628 42.6865 77.0427 42.7951L79.1697 43.6257L89.7814 47.7669L90.8732 48.1928L90.9862 48.2375H103.553L102.916 47.9881Z" fill="white"/>
<path d="M81.4498 48.1928L80.3579 47.7669L75.7955 45.9857C75.4768 45.8609 75.1341 45.8093 74.7927 45.835C74.4513 45.8606 74.1201 45.9628 73.8236 46.1339C73.5271 46.3049 73.2729 46.5406 73.0799 46.8232C72.8868 47.1059 72.7599 47.4285 72.7084 47.7669C72.6858 47.9076 72.6772 48.0503 72.6826 48.1928C72.6821 48.2077 72.6829 48.2227 72.685 48.2375H81.565L81.4498 48.1928Z" fill="white"/>
<path d="M90.8733 48.1928L89.7815 47.7669H72.7084C72.6858 47.9076 72.6772 48.0503 72.6826 48.1928H70.3485L70.3768 48.2375H90.9862L90.8733 48.1928ZM90.8733 48.1928H70.3485L70.3767 48.2375H90.9862L90.8733 48.1928ZM90.8733 48.1928H70.3485L70.3767 48.2375H90.9862L90.8733 48.1928ZM90.9862 48.2375L90.8733 48.1928H70.3485L70.3767 48.2375H90.9862ZM49.8073 95.3553C49.0625 95.3542 48.3486 95.0578 47.822 94.5312C47.2954 94.0046 46.999 93.2906 46.9979 92.5459V38.1057C46.9985 37.3605 47.2946 36.6461 47.8213 36.119C48.348 35.5919 49.0622 35.2952 49.8073 35.2939H54.1861V34.8233H49.8073C48.9375 34.8249 48.1038 35.1714 47.4889 35.7866C46.8741 36.4019 46.5283 37.2359 46.5273 38.1057V92.5459C46.528 93.1751 46.7096 93.7909 47.0504 94.3199C47.3913 94.8488 47.8769 95.2687 48.4496 95.5294H89.9038C89.8663 95.4729 89.8286 95.4141 89.7909 95.3553H49.8073ZM118.429 48.7928C118.123 48.4685 117.754 48.2103 117.345 48.0338C116.936 47.8574 116.495 47.7666 116.05 47.7669H70.6379L68.0968 43.7245L68.0355 43.6257L65.8803 40.1974L63.4661 36.3574C63.1702 35.8883 62.7605 35.5017 62.2751 35.2335C61.7897 34.9653 61.2443 34.8242 60.6897 34.8233H49.8073C48.9375 34.8249 48.1038 35.1714 47.4889 35.7866C46.8741 36.4019 46.5283 37.2359 46.5273 38.1057V92.5459C46.528 93.1751 46.7096 93.7909 47.0504 94.3199C47.3913 94.8488 47.8769 95.2687 48.4496 95.5294C48.8754 95.7254 49.3386 95.8266 49.8073 95.8259H116.05C116.519 95.8266 116.983 95.7254 117.41 95.5294C117.983 95.2687 118.468 94.8488 118.809 94.3198C119.15 93.7909 119.331 93.1751 119.332 92.5459V51.0493C119.333 50.2088 119.009 49.4005 118.429 48.7928ZM118.862 92.5459C118.86 93.291 118.564 94.0052 118.037 94.5319C117.509 95.0585 116.795 95.3546 116.05 95.3553H49.8073C49.0625 95.3542 48.3486 95.0578 47.822 94.5312C47.2954 94.0046 46.999 93.2906 46.9979 92.5459V38.1057C46.9985 37.3605 47.2946 36.6461 47.8213 36.119C48.348 35.5919 49.0622 35.2952 49.8073 35.2939H60.6897C61.1653 35.2926 61.6335 35.4127 62.0497 35.6429C62.466 35.8731 62.8167 36.2057 63.0685 36.6092L65.3226 40.1974L67.478 43.6257L67.8826 44.2704L70.3485 48.1928L70.3768 48.2375H116.05C116.795 48.2381 117.51 48.5345 118.037 49.0617C118.565 49.5889 118.861 50.3037 118.862 51.0492V92.5459ZM90.8733 48.1928H70.3485L70.3768 48.2375H90.9862L90.8733 48.1928ZM90.8733 48.1928H70.3485L70.3768 48.2375H90.9862L90.8733 48.1928ZM90.8733 48.1928H70.3485L70.3768 48.2375H90.9862L90.8733 48.1928ZM90.8733 48.1928L89.7815 47.7669H70.6379L68.0968 43.7245L67.8826 44.2704L70.3485 48.1928L70.3768 48.2375H90.9862L90.8733 48.1928Z" fill="#3F3D56"/>
<path d="M36.9244 67.7109L35.5766 70.5287L24.0667 66.6713L26.0556 62.5125L36.9244 67.7109Z" fill="#883D3D"/>
<path d="M33.6837 72.418L36.408 66.722L39.8296 68.3586L35.5939 77.2145L35.3323 77.0893C34.4942 76.6885 33.8497 75.9711 33.5405 75.0951C33.2313 74.219 33.2828 73.2561 33.6837 72.418Z" fill="#2F2E41"/>
<path d="M39.6376 92.8745L36.5159 92.7691L36.3844 80.6175L40.0439 80.8335L39.6376 92.8745Z" fill="#883D3D"/>
<path d="M34.0263 91.7921L40.3366 92.0051L40.2087 95.7958L30.3975 95.4646L30.4073 95.1748C30.4386 94.2463 30.8375 93.3683 31.5162 92.7339C32.1949 92.0996 33.0978 91.7608 34.0263 91.7921Z" fill="#2F2E41"/>
<path d="M44.6647 42.0187C44.6647 42.0187 35.1106 39.5983 30.7794 43.1652L28.359 50.1716L18.6775 63.9295L32.6902 72.3372L35.238 65.9678L29.1233 62.9104L36.5119 56.541L35.238 90.1716L40.0788 90.9359C40.0788 90.9359 50.7794 49.4072 44.6647 42.0187Z" fill="#2F2E41"/>
<path d="M30.1698 44.2015L30.2862 43.9945C31.5137 41.8122 31.3148 38.2585 30.9318 35.6617C30.6111 33.4866 30.6207 29.6535 30.6853 26.8209C30.7012 25.8648 31.0422 24.9426 31.6521 24.2061C32.2621 23.4696 33.1045 22.9627 34.0409 22.7688C36.9474 22.164 40.5156 22.0358 42.3839 22.0132C42.8915 22.0112 43.3797 22.2082 43.7437 22.562C44.1077 22.9158 44.3186 23.3981 44.331 23.9056C44.3879 26.956 44.3702 32.5185 43.6132 35.503C42.4898 39.9325 44.2466 42.9425 44.2645 42.9724L44.3705 43.1495L30.1698 44.2015Z" fill="#007FFE"/>
<path d="M25.2551 56.4174C25.5661 56.2685 25.8407 56.0532 26.0595 55.7866C26.2783 55.5201 26.436 55.2088 26.5215 54.8747C26.607 54.5407 26.6182 54.1919 26.5543 53.853C26.4904 53.5142 26.353 53.1934 26.1517 52.9134L31.5437 29.662H27.4673L22.7086 52.4551C22.2606 52.8244 21.9636 53.3452 21.8739 53.9188C21.7842 54.4924 21.9081 55.079 22.2219 55.5674C22.5358 56.0558 23.018 56.4121 23.577 56.5687C24.1361 56.7254 24.7331 56.6716 25.2551 56.4174Z" fill="#883D3D"/>
<path d="M58.0406 33.53L49.0423 25.0181L46.6103 28.4229L52.6902 33.7732L44.7168 40.105C44.6592 40.1011 44.6018 40.0963 44.5431 40.0963C44.0525 40.0958 43.5721 40.2367 43.1594 40.5021C42.7467 40.7675 42.4192 41.1462 42.2161 41.5928C42.013 42.0395 41.9429 42.5352 42.0142 43.0206C42.0854 43.5061 42.295 43.9607 42.6179 44.3302C42.9407 44.6997 43.3632 44.9683 43.8347 45.1039C44.3063 45.2395 44.8069 45.2365 45.2767 45.095C45.7466 44.9536 46.1657 44.6798 46.484 44.3064C46.8023 43.933 47.0063 43.4758 47.0715 42.9895L47.0967 43.0146L58.0406 33.53Z" fill="#883D3D"/>
<path d="M33.4686 23.0677C33.4686 23.0677 27.8495 22.146 27.3399 26.4772C26.8303 30.8085 26.5756 30.8085 26.5756 30.8085C26.5756 30.8085 30.652 30.0441 31.6711 31.0632C32.6902 32.0823 33.4686 23.0677 33.4686 23.0677Z" fill="#6C63FF"/>
<path d="M41.8622 22.4008C41.8622 22.4008 46.4482 21.6365 48.4864 23.6747C50.5246 25.7129 51.5437 26.2225 51.5437 26.2225C51.5437 26.2225 46.9577 28.7703 48.7412 31.0633C48.7412 31.0633 43.9004 28.7703 43.1361 29.5346C42.3718 30.2989 41.8622 22.4008 41.8622 22.4008Z" fill="#6C63FF"/>
<path d="M37.8398 7.60905C36.3933 6.45375 36.0132 4.22403 36.8525 2.57391C37.6918 0.923792 39.5893 -0.0703558 41.4392 0.00388683C43.289 0.0781295 45.032 1.14015 46.1037 2.64974C47.6091 4.77031 47.925 7.7176 49.9267 9.37776C51.7347 10.8772 54.3248 10.8343 56.6706 10.715C57.4614 10.6748 58.2777 10.6282 58.9873 10.2768C59.6968 9.92549 60.2766 9.18451 60.1851 8.39803C60.7744 9.33095 60.4325 10.639 59.6419 11.4087C58.8512 12.1785 57.7254 12.501 56.6294 12.6294C54.6959 12.8326 52.7427 12.5287 50.9624 11.7475C49.182 10.9664 47.6358 9.73497 46.4761 8.17455C45.6599 7.04857 45.03 5.7374 43.91 4.913C42.79 4.08861 40.9225 4.03122 40.2349 5.24006C39.8949 5.83794 39.9283 6.58789 39.6155 7.20052C39.3028 7.81314 38.2873 8.14347 37.9862 7.52506" fill="#2F2E41"/>
<path d="M37.6187 19.8955C41.5172 19.8955 44.6776 16.7351 44.6776 12.8367C44.6776 8.93816 41.5172 5.7778 37.6187 5.7778C33.7202 5.7778 30.5599 8.93816 30.5599 12.8367C30.5599 16.7351 33.7202 19.8955 37.6187 19.8955Z" fill="#2F2E41"/>
<path d="M37.5761 20.4481C40.7678 20.4481 43.3552 17.8607 43.3552 14.669C43.3552 11.4773 40.7678 8.88992 37.5761 8.88992C34.3844 8.88992 31.797 11.4773 31.797 14.669C31.797 17.8607 34.3844 20.4481 37.5761 20.4481Z" fill="#883D3D"/>
<path d="M32.3067 10.4246C33.0921 10.5964 32.8351 11.9139 33.4557 12.425C34.0155 12.886 34.8218 12.4119 35.5264 12.2403C36.416 12.0236 37.3472 12.341 38.1685 12.7457C38.9898 13.1503 39.7818 13.6526 40.6778 13.8411C41.5738 14.0296 42.636 13.8171 43.1383 13.0516C43.6186 12.3196 43.4418 11.3325 43.066 10.5417C42.5989 9.55856 41.8657 8.72586 40.9496 8.13797C40.0335 7.55008 38.9711 7.23049 37.8826 7.2154C36.7942 7.20032 35.7233 7.49035 34.7913 8.05263C33.8592 8.61491 33.1033 9.42697 32.6091 10.3968" fill="#2F2E41"/>
<path d="M168.471 95.7647C168.471 95.8271 168.446 95.8868 168.402 95.9309C168.358 95.975 168.298 95.9998 168.236 96H0.235295C0.172891 96 0.113043 95.9752 0.0689161 95.9311C0.0247898 95.887 0 95.8271 0 95.7647C0 95.7023 0.0247898 95.6425 0.0689161 95.5983C0.113043 95.5542 0.172891 95.5294 0.235295 95.5294H168.236C168.298 95.5296 168.358 95.5545 168.402 95.5986C168.446 95.6426 168.471 95.7024 168.471 95.7647Z" fill="#3F3D56"/>
</g>
<defs>
<clipPath id="clip0_20_757">
<rect width="182.824" height="96" fill="white"/>
</clipPath>
</defs>
</svg>
