<svg width="107" height="96" viewBox="0 0 107 96" fill="none" xmlns="http://www.w3.org/2000/svg">
<g clip-path="url(#clip0_19_423)">
<path d="M54.6243 55.9457L31.3458 56.3551C30.9783 56.3623 30.6131 56.297 30.2709 56.163C29.9287 56.0289 29.6163 55.8286 29.3517 55.5736C29.087 55.3187 28.8752 55.014 28.7284 54.6771C28.5817 54.3401 28.5028 53.9776 28.4963 53.6101C28.4899 53.2426 28.556 52.8775 28.6908 52.5357C28.8256 52.1938 29.0266 51.8818 29.2821 51.6177C29.5377 51.3536 29.8428 51.1425 30.18 50.9964C30.5173 50.8504 30.88 50.7723 31.2475 50.7667L54.5261 50.3574C54.8731 50.3513 55.2084 50.4833 55.4581 50.7244C55.7078 50.9655 55.8515 51.2959 55.8576 51.6429L55.9098 54.6142C55.9156 54.9461 55.7951 55.2678 55.5727 55.5142C55.3503 55.7606 55.0425 55.9133 54.7117 55.9413C54.6828 55.9437 54.6536 55.9452 54.6243 55.9457Z" fill="#007FFE"/>
<path d="M50.1287 56.7051L31.0306 57.5769C30.8589 57.5848 30.6874 57.5588 30.5258 57.5003C30.3642 57.4419 30.2156 57.3522 30.0887 57.2363C29.9617 57.1204 29.8589 56.9807 29.7859 56.8251C29.713 56.6695 29.6714 56.501 29.6635 56.3294L29.4614 51.9017C29.4456 51.555 29.5682 51.2162 29.8022 50.9598C30.0362 50.7034 30.3624 50.5505 30.7091 50.5346L49.8072 49.6628C49.9789 49.655 50.1505 49.681 50.3121 49.7394C50.4737 49.7979 50.6222 49.8876 50.7492 50.0034C50.8761 50.1193 50.979 50.259 51.0519 50.4146C51.1249 50.5703 51.1665 50.7387 51.1743 50.9104L51.3764 55.338C51.3914 55.6761 51.2751 56.0069 51.0517 56.2612C50.8284 56.5154 50.5153 56.6734 50.1781 56.702C50.1618 56.7034 50.1452 56.7044 50.1287 56.7051Z" fill="#2F2E41"/>
<path d="M17.8323 94.6913V69.9233C17.8327 69.5763 17.9707 69.2437 18.2161 68.9983C18.4614 68.753 18.7941 68.615 19.1411 68.6146H22.1128C22.4598 68.615 22.7925 68.753 23.0378 68.9983C23.2832 69.2437 23.4212 69.5763 23.4216 69.9233V94.6913C23.4212 95.0382 23.2832 95.3709 23.0378 95.6162C22.7925 95.8616 22.4598 95.9996 22.1128 96H19.1411C18.7941 95.9996 18.4614 95.8616 18.2161 95.6162C17.9707 95.3709 17.8327 95.0382 17.8323 94.6913Z" fill="#007FFE"/>
<path d="M25.6309 94.6913V69.9233C25.6313 69.5763 25.7693 69.2437 26.0146 68.9983C26.26 68.753 26.5926 68.615 26.9396 68.6146H29.9114C30.2584 68.615 30.591 68.753 30.8364 68.9983C31.0817 69.2437 31.2197 69.5763 31.2201 69.9233V94.6913C31.2197 95.0382 31.0817 95.3709 30.8364 95.6162C30.591 95.8616 30.2584 95.9996 29.9114 96H26.9396C26.5926 95.9996 26.26 95.8616 26.0146 95.6162C25.7693 95.3709 25.6313 95.0382 25.6309 94.6913Z" fill="#007FFE"/>
<path d="M26.407 42.7665C32.0781 42.7665 36.6755 38.1691 36.6755 32.498C36.6755 26.8269 32.0781 22.2295 26.407 22.2295C20.7359 22.2295 16.1385 26.8269 16.1385 32.498C16.1385 38.1691 20.7359 42.7665 26.407 42.7665Z" fill="#007FFE"/>
<path d="M31.9652 36.004C32.2955 35.8955 32.5988 35.7175 32.8545 35.482C33.024 35.3138 33.1546 35.1107 33.2373 34.8867C33.32 34.6628 33.3528 34.4235 33.3332 34.1855C33.3225 34.016 33.2727 33.8513 33.1877 33.7042C33.1027 33.5571 32.9849 33.4317 32.8435 33.3377C32.4762 33.1021 31.9851 33.1014 31.4851 33.3218L31.504 29.3131L31.1013 29.3112L31.0791 34.0238L31.3893 33.8287C31.7491 33.6027 32.2629 33.4437 32.626 33.6766C32.7157 33.7382 32.79 33.8196 32.8432 33.9145C32.8963 34.0095 32.9268 34.1154 32.9323 34.2241C32.9459 34.4013 32.9212 34.5794 32.8597 34.7462C32.7983 34.913 32.7017 35.0646 32.5764 35.1907C32.1318 35.6154 31.483 35.7483 30.7433 35.867L30.8071 36.2645C31.2001 36.2125 31.5877 36.1253 31.9652 36.004Z" fill="#2F2E41"/>
<path d="M35.655 29.1106L33.5049 29.3946L33.5576 29.7937L35.7077 29.5098L35.655 29.1106Z" fill="#2F2E41"/>
<path d="M28.8683 30.0067L26.7181 30.2906L26.7709 30.6898L28.921 30.4058L28.8683 30.0067Z" fill="#2F2E41"/>
<path d="M4.62176 31.6872L19.3649 49.7066C19.5974 49.9906 19.7718 50.3177 19.8779 50.6691C19.9841 51.0205 20.02 51.3893 19.9835 51.7546C19.9471 52.1199 19.839 52.4744 19.6655 52.7979C19.492 53.1214 19.2565 53.4076 18.9724 53.64C18.6883 53.8725 18.3612 54.0467 18.0097 54.1527C17.6583 54.2587 17.2894 54.2944 16.9241 54.2578C16.5589 54.2212 16.2044 54.113 15.881 53.9393C15.5576 53.7657 15.2715 53.53 15.0392 53.2458L0.296008 35.2265C0.187164 35.0935 0.105583 34.9404 0.0559291 34.7758C0.006275 34.6113 -0.0104836 34.4386 0.00661265 34.2676C0.0237089 34.0966 0.0743224 33.9306 0.155566 33.7791C0.236809 33.6277 0.34709 33.4937 0.48011 33.3849L2.78008 31.503C3.04874 31.2833 3.39369 31.1792 3.73907 31.2137C4.08444 31.2483 4.40195 31.4186 4.62176 31.6872H4.62176Z" fill="#007FFE"/>
<path d="M9.53877 35.7089L21.645 50.5054C21.7539 50.6384 21.8355 50.7916 21.8851 50.9561C21.9348 51.1206 21.9515 51.2934 21.9344 51.4644C21.9173 51.6354 21.8667 51.8013 21.7855 51.9528C21.7042 52.1042 21.5939 52.2382 21.4609 52.347L17.5324 55.5612C17.3994 55.6701 17.2463 55.7517 17.0817 55.8013C16.9172 55.851 16.7445 55.8677 16.5735 55.8506C16.4025 55.8335 16.2365 55.7829 16.085 55.7016C15.9336 55.6204 15.7996 55.5101 15.6908 55.3771L3.58451 40.5807C3.3651 40.3119 3.26126 39.967 3.29578 39.6218C3.33029 39.2765 3.50034 38.9591 3.76862 38.7391L7.69714 35.5248C7.96579 35.305 8.31073 35.2009 8.65609 35.2354C9.00146 35.27 9.31897 35.4403 9.53877 35.7089L9.53877 35.7089Z" fill="#2F2E41"/>
<path d="M93.4724 17.7209C93.3243 17.3694 93.0765 17.069 92.7595 16.8569C92.4425 16.6448 92.0703 16.5303 91.6889 16.5276H56.0891C55.5774 16.5279 55.0867 16.7313 54.7249 17.0931C54.363 17.455 54.1596 17.9456 54.1593 18.4574V63.4944C54.1596 64.0061 54.363 64.4968 54.7249 64.8586C55.0867 65.2205 55.5774 65.4239 56.0891 65.4242H91.6901C92.2018 65.4235 92.6922 65.2199 93.054 64.8582C93.4157 64.4964 93.6193 64.006 93.6199 63.4944V18.4574C93.6208 18.2046 93.5711 17.9542 93.4737 17.7209H93.4724ZM93.1901 63.4944C93.1896 63.8924 93.0313 64.2739 92.7499 64.5554C92.4684 64.8368 92.0869 64.9951 91.6889 64.9956H56.0891C55.691 64.9955 55.3093 64.8374 55.0277 64.5559C54.7462 64.2745 54.588 63.8927 54.5879 63.4946V18.4576C54.5884 18.0596 54.7468 17.6781 55.0282 17.3967C55.3096 17.1153 55.6911 16.9569 56.0891 16.9564H91.6901C91.99 16.9575 92.2826 17.048 92.5308 17.2162C92.779 17.3844 92.9715 17.6227 93.0836 17.9008C93.1054 17.9562 93.1243 18.0127 93.1401 18.0701C93.1741 18.1965 93.1914 18.3268 93.1914 18.4576L93.1901 63.4944Z" fill="#3F3D56"/>
<path d="M86.0432 27.1607H75.32C75.2073 27.1609 75.0956 27.1388 74.9913 27.0958C74.8871 27.0527 74.7924 26.9896 74.7126 26.9099C74.6328 26.8302 74.5694 26.7356 74.5263 26.6314C74.4831 26.5272 74.4608 26.4156 74.4608 26.3028C74.4608 26.19 74.4831 26.0784 74.5263 25.9742C74.5694 25.87 74.6328 25.7754 74.7126 25.6957C74.7924 25.616 74.8871 25.5529 74.9913 25.5098C75.0956 25.4668 75.2073 25.4447 75.32 25.4449H86.0432C86.156 25.4447 86.2677 25.4668 86.3719 25.5098C86.4761 25.5529 86.5709 25.616 86.6507 25.6957C86.7305 25.7754 86.7938 25.87 86.837 25.9742C86.8802 26.0784 86.9024 26.19 86.9024 26.3028C86.9024 26.4156 86.8802 26.5272 86.837 26.6314C86.7938 26.7356 86.7305 26.8302 86.6507 26.9099C86.5709 26.9896 86.4761 27.0527 86.3719 27.0958C86.2677 27.1388 86.156 27.1609 86.0432 27.1607Z" fill="#3F3D56"/>
<path d="M86.0432 31.6644H75.32C75.2073 31.6646 75.0956 31.6425 74.9913 31.5995C74.8871 31.5564 74.7924 31.4933 74.7126 31.4136C74.6328 31.3339 74.5694 31.2393 74.5263 31.1351C74.4831 31.0309 74.4608 30.9193 74.4608 30.8065C74.4608 30.6937 74.4831 30.5821 74.5263 30.4779C74.5694 30.3737 74.6328 30.2791 74.7126 30.1994C74.7924 30.1197 74.8871 30.0566 74.9913 30.0135C75.0956 29.9705 75.2073 29.9484 75.32 29.9486H86.0432C86.156 29.9484 86.2677 29.9705 86.3719 30.0135C86.4761 30.0566 86.5709 30.1197 86.6507 30.1994C86.7305 30.2791 86.7938 30.3737 86.837 30.4779C86.8802 30.5821 86.9024 30.6937 86.9024 30.8065C86.9024 30.9193 86.8802 31.0309 86.837 31.1351C86.7938 31.2393 86.7305 31.3339 86.6507 31.4136C86.5709 31.4933 86.4761 31.5564 86.3719 31.5995C86.2677 31.6425 86.156 31.6646 86.0432 31.6644Z" fill="#3F3D56"/>
<path d="M69.8181 34.2288H61.9816C61.7257 34.2285 61.4804 34.1268 61.2995 33.9458C61.1185 33.7649 61.0167 33.5195 61.0165 33.2637V24.0161C61.0167 23.7602 61.1185 23.5148 61.2995 23.3339C61.4804 23.1529 61.7257 23.0512 61.9816 23.0509H69.8181C70.074 23.0512 70.3193 23.1529 70.5002 23.3339C70.6812 23.5148 70.7829 23.7602 70.7832 24.0161V33.2637C70.7829 33.5195 70.6812 33.7649 70.5002 33.9458C70.3193 34.1268 70.074 34.2285 69.8181 34.2288Z" fill="#007FFE"/>
<path d="M85.9688 40.8863H61.7345C61.507 40.8863 61.2888 40.7959 61.1279 40.635C60.967 40.4741 60.8766 40.2559 60.8766 40.0284C60.8766 39.8009 60.967 39.5827 61.1279 39.4218C61.2888 39.2609 61.507 39.1705 61.7345 39.1705H85.9688C86.1963 39.1705 86.4145 39.2609 86.5754 39.4218C86.7363 39.5827 86.8267 39.8009 86.8267 40.0284C86.8267 40.2559 86.7363 40.4741 86.5754 40.635C86.4145 40.7959 86.1963 40.8863 85.9688 40.8863Z" fill="#CCCCCC"/>
<path d="M85.9688 45.39H61.7345C61.5072 45.3897 61.2894 45.2991 61.1288 45.1383C60.9682 44.9774 60.878 44.7594 60.878 44.5321C60.878 44.3048 60.9682 44.0868 61.1288 43.926C61.2894 43.7652 61.5072 43.6746 61.7345 43.6743H85.9688C86.0816 43.6741 86.1933 43.6961 86.2975 43.7392C86.4017 43.7822 86.4965 43.8454 86.5763 43.9251C86.6561 44.0047 86.7194 44.0994 86.7626 44.2035C86.8058 44.3077 86.828 44.4194 86.828 44.5321C86.828 44.6449 86.8058 44.7566 86.7626 44.8607C86.7194 44.9649 86.6561 45.0595 86.5763 45.1392C86.4965 45.2189 86.4017 45.2821 86.2975 45.3251C86.1933 45.3681 86.0816 45.3902 85.9688 45.39Z" fill="#CCCCCC"/>
<path d="M85.9688 49.8937H61.7345C61.5072 49.8934 61.2894 49.8028 61.1288 49.642C60.9682 49.4811 60.878 49.2631 60.878 49.0358C60.878 48.8085 60.9682 48.5905 61.1288 48.4297C61.2894 48.2688 61.5072 48.1783 61.7345 48.1779H85.9688C86.0816 48.1778 86.1933 48.1998 86.2975 48.2429C86.4017 48.2859 86.4965 48.3491 86.5763 48.4287C86.6561 48.5084 86.7194 48.6031 86.7626 48.7072C86.8058 48.8114 86.828 48.9231 86.828 49.0358C86.828 49.1486 86.8058 49.2603 86.7626 49.3644C86.7194 49.4686 86.6561 49.5632 86.5763 49.6429C86.4965 49.7226 86.4017 49.7858 86.2975 49.8288C86.1933 49.8718 86.0816 49.8939 85.9688 49.8937Z" fill="#CCCCCC"/>
<path d="M85.9688 54.3974H61.7345C61.5072 54.3971 61.2894 54.3065 61.1288 54.1457C60.9682 53.9848 60.878 53.7668 60.878 53.5395C60.878 53.3122 60.9682 53.0942 61.1288 52.9334C61.2894 52.7725 61.5072 52.682 61.7345 52.6816H85.9688C86.0816 52.6815 86.1933 52.7035 86.2975 52.7466C86.4017 52.7896 86.4965 52.8528 86.5763 52.9324C86.6561 53.0121 86.7194 53.1068 86.7626 53.2109C86.8058 53.3151 86.828 53.4268 86.828 53.5395C86.828 53.6523 86.8058 53.764 86.7626 53.8681C86.7194 53.9723 86.6561 54.0669 86.5763 54.1466C86.4965 54.2263 86.4017 54.2895 86.2975 54.3325C86.1933 54.3755 86.0816 54.3976 85.9688 54.3974Z" fill="#CCCCCC"/>
<path d="M85.9688 58.9011H61.7345C61.5072 58.9008 61.2894 58.8102 61.1288 58.6494C60.9682 58.4885 60.878 58.2705 60.878 58.0432C60.878 57.816 60.9682 57.598 61.1288 57.4371C61.2894 57.2763 61.5072 57.1857 61.7345 57.1854H85.9688C86.0816 57.1852 86.1933 57.2072 86.2975 57.2503C86.4017 57.2933 86.4965 57.3565 86.5763 57.4362C86.6561 57.5158 86.7194 57.6105 86.7626 57.7146C86.8058 57.8188 86.828 57.9305 86.828 58.0432C86.828 58.156 86.8058 58.2677 86.7626 58.3719C86.7194 58.476 86.6561 58.5707 86.5763 58.6503C86.4965 58.73 86.4017 58.7932 86.2975 58.8362C86.1933 58.8792 86.0816 58.9013 85.9688 58.9011Z" fill="#CCCCCC"/>
<path d="M94.5084 24.5625C101.291 24.5625 106.79 19.064 106.79 12.2813C106.79 5.49851 101.291 0 94.5084 0C87.7256 0 82.2271 5.49851 82.2271 12.2813C82.2271 19.064 87.7256 24.5625 94.5084 24.5625Z" fill="#007FFE"/>
<path d="M94.2706 20.7347C95.0687 20.7347 95.7157 20.0877 95.7157 19.2896C95.7157 18.4915 95.0687 17.8445 94.2706 17.8445C93.4725 17.8445 92.8255 18.4915 92.8255 19.2896C92.8255 20.0877 93.4725 20.7347 94.2706 20.7347Z" fill="white"/>
<path d="M94.1158 4.21062C93.0264 4.22143 91.9842 4.65693 91.2111 5.42446C90.4379 6.19198 89.9948 7.23092 89.976 8.32019C89.9757 8.34104 89.9756 8.48765 89.9756 8.6794C89.9756 8.96055 90.0873 9.23017 90.2861 9.42898C90.4849 9.62779 90.7545 9.73949 91.0357 9.73953C91.317 9.73946 91.5868 9.62764 91.7857 9.42865C91.9846 9.22966 92.0963 8.95981 92.0963 8.67846V8.67777C92.0962 8.54734 92.0961 8.45706 92.0961 8.45151C92.096 8.1025 92.1868 7.75947 92.3595 7.45618C92.5322 7.15289 92.7809 6.89978 93.0811 6.72176C93.3813 6.54373 93.7227 6.44692 94.0717 6.44084C94.4206 6.43476 94.7652 6.51963 95.0714 6.68709C95.3776 6.85456 95.6349 7.09886 95.8181 7.39595C96.0013 7.69304 96.1039 8.0327 96.116 8.38151C96.1281 8.73032 96.0492 9.07626 95.887 9.38531C95.7248 9.69437 95.485 9.95588 95.1911 10.1441L95.1915 10.1446C95.1915 10.1446 93.6827 11.1159 93.2227 12.4484L93.2231 12.4485C93.1422 12.7215 93.1012 13.0047 93.1014 13.2894C93.1014 13.4064 93.1083 14.4304 93.1216 15.2615C93.1262 15.5483 93.2434 15.8218 93.4479 16.0229C93.6523 16.224 93.9277 16.3367 94.2145 16.3366C94.358 16.3366 94.5002 16.3084 94.6328 16.2534C94.7654 16.1985 94.8859 16.118 94.9874 16.0164C95.0889 15.9149 95.1694 15.7944 95.2244 15.6618C95.2793 15.5292 95.3076 15.387 95.3076 15.2435L95.3075 15.2368C95.3029 14.4756 95.3004 13.5893 95.3004 13.525C95.3004 12.7068 96.0897 11.8916 96.7381 11.36C97.4886 10.7522 98.016 9.91243 98.2377 8.97248C98.2855 8.77874 98.3118 8.58033 98.3162 8.38083C98.3162 7.83318 98.2084 7.29089 97.9988 6.78492C97.7892 6.27895 97.482 5.81922 97.0948 5.43197C96.7075 5.04472 96.2478 4.73754 95.7418 4.52796C95.2359 4.31838 94.6936 4.21051 94.1459 4.21051C94.1359 4.21051 94.1258 4.21055 94.1158 4.21062Z" fill="white"/>
<path d="M23.8327 27.9548C25.6712 26.7461 27.9818 27.2899 30.0252 27.4478C31.8716 27.5904 34.06 27.4499 35.3586 25.9414C36.7096 24.372 36.5967 22.0419 35.4782 20.3819C34.3772 18.748 32.5496 17.7163 30.6162 17.4443C29.5449 17.2873 28.4527 17.3551 27.4091 17.6433C26.3655 17.9315 25.3933 18.4338 24.5544 19.1183L25.2115 19.3905C24.8285 15.7296 22.1369 12.4201 18.5256 11.5224C14.8717 10.6142 10.7855 12.1643 8.83606 15.4222C6.91424 18.634 7.14191 23.1157 9.90815 25.7848C11.2366 27.0666 13.0437 27.7196 14.8776 27.3711C16.5689 27.0498 18.0717 25.8168 18.3882 24.0757C18.6817 22.4616 18.0407 20.6283 16.4707 19.9234C16.0411 19.7231 15.5717 19.6229 15.0977 19.6305C14.6238 19.6381 14.1577 19.7532 13.7347 19.9672C13.3517 20.1827 13.028 20.4898 12.7926 20.8611C12.5573 21.2323 12.4176 21.6561 12.3862 22.0945C12.3569 22.519 12.4434 22.9434 12.6363 23.3226C12.8543 23.7675 13.5185 23.3777 13.3011 22.934C13.1607 22.6078 13.1208 22.2471 13.1865 21.8981C13.2522 21.5491 13.4205 21.2276 13.6699 20.9747C14.2406 20.3786 15.1414 20.2796 15.8998 20.5233C17.2873 20.9693 17.9 22.5611 17.6385 23.9115C17.3456 25.424 16.0544 26.3959 14.5841 26.6448C12.9852 26.9154 11.4259 26.2403 10.316 25.1048C7.99159 22.7267 7.79043 18.8965 9.35844 16.0583C10.9491 13.179 14.3422 11.6329 17.5743 12.1159C20.7702 12.5935 23.4022 15.1072 24.2224 18.2068C24.3258 18.5951 24.3991 18.9908 24.4416 19.3905C24.4442 19.4654 24.4684 19.538 24.5111 19.5996C24.5538 19.6612 24.6134 19.7092 24.6826 19.7379C24.7519 19.7666 24.828 19.7747 24.9017 19.7614C24.9755 19.748 25.0439 19.7138 25.0987 19.6626C27.8296 17.3946 32.3718 17.6378 34.6111 20.4911C35.7092 21.8904 36.0328 24.0633 34.7505 25.4689C33.5294 26.8073 31.5016 26.8087 29.8339 26.6621C27.7005 26.4746 25.3552 26.0337 23.4442 27.29C23.0319 27.5611 23.4171 28.228 23.8327 27.9548V27.9548Z" fill="#2F2E41"/>
<path d="M32.1129 78.5604H16.7156C16.4095 78.5601 16.1159 78.4383 15.8995 78.2218C15.683 78.0053 15.5612 77.7118 15.5609 77.4056V72.2732C15.5612 71.967 15.683 71.6735 15.8995 71.457C16.1159 71.2405 16.4095 71.1187 16.7156 71.1184H32.1129C32.4191 71.1187 32.7126 71.2405 32.9291 71.457C33.1456 71.6735 33.2674 71.967 33.2677 72.2732V77.4056C33.2674 77.7118 33.1456 78.0053 32.9291 78.2218C32.7126 78.4383 32.4191 78.5601 32.1129 78.5604Z" fill="#2F2E41"/>
<path d="M32.639 53.2563C32.1569 50.791 30.2847 48.8386 27.8546 48.0359C28.7321 47.7535 29.2901 47.3354 29.2901 46.8677C29.2901 46.0174 27.4518 45.328 25.1841 45.328C22.9165 45.328 21.0782 46.0174 21.0782 46.8677C21.0782 47.3422 21.6513 47.7662 22.5511 48.0486C18.8255 49.1593 16.1214 52.4017 16.1214 56.2198C16.1214 56.2198 14.9745 63.5716 14.0741 69.4484C13.498 73.2081 16.6456 76.5686 20.7419 76.5686H35.1482C36.0919 76.5686 36.8596 75.8569 36.8596 74.982C36.8596 74.982 34.205 61.2648 32.639 53.2563Z" fill="#2F2E41"/>
</g>
<defs>
<clipPath id="clip0_19_423">
<rect width="106.79" height="96" fill="white"/>
</clipPath>
</defs>
</svg>
